<svg width="221" height="21" viewBox="0 0 221 21" fill="none" xmlns="http://www.w3.org/2000/svg">
<g clip-path="url(#clip0_2_2)">
<path d="M6.98 17.73H11.61C11.97 17.73 12.27 17.85 12.53 18.1C12.79 18.35 12.92 18.65 12.92 19.01C12.92 19.37 12.79 19.67 12.53 19.92C12.27 20.17 11.96 20.29 11.61 20.29H6.81C6.2 20.29 5.57 20.1 4.92 19.71C4.27 19.32 3.82 18.89 3.56 18.41L0.6 12.69C0.2 11.87 0 11.02 0 10.15C0 9.19 0.19 8.36 0.57 7.66L3.56 2C3.84 1.47 4.29 1 4.89 0.6C5.49 0.2 6.07 0 6.63 0H11.7C12.06 0 12.36 0.13 12.61 0.38C12.86 0.63 12.98 0.93 12.98 1.28C12.98 1.63 12.86 1.94 12.61 2.2C12.36 2.46 12.06 2.59 11.7 2.59H6.82C6.41 2.59 6.08 2.83 5.83 3.31L2.98 8.62C2.76 9.04 2.64 9.53 2.65 10.1C2.65 10.7 2.77 11.23 3.01 11.69L5.73 16.91C5.98 17.45 6.4 17.72 6.98 17.72V17.73Z" fill="#C84130"/>
<path d="M18.91 18.51L24.07 0.95C24.28 0.31 24.71 0 25.37 0C26.03 0 26.41 0.27 26.57 0.81L31.69 18.63C31.73 18.76 31.75 18.89 31.75 19.01C31.75 19.37 31.63 19.67 31.38 19.92C31.14 20.17 30.86 20.29 30.54 20.29C29.87 20.29 29.44 19.98 29.26 19.36L28.25 15.88H22.38L21.26 19.61C21.23 19.77 21.1 19.93 20.88 20.07C20.65 20.22 20.41 20.29 20.14 20.29C19.76 20.29 19.45 20.16 19.2 19.91C18.95 19.66 18.83 19.35 18.83 18.98C18.83 18.83 18.86 18.67 18.91 18.51ZM25.35 5.94L23.15 13.29H27.49L25.35 5.94Z" fill="#C84130"/>
<path d="M47.22 1.87999L50.0499 7.63999C50.4499 8.41999 50.65 9.26999 50.65 10.19C50.65 11.11 50.4499 11.93 50.0499 12.73L47.22 18.43C46.62 19.68 45.5999 20.31 44.1699 20.31C43.4899 20.31 42.87 20.13 42.33 19.78C41.79 19.42 41.3799 18.98 41.0999 18.44L38.2599 12.74C37.8799 12 37.7 11.15 37.7 10.2C37.7 9.24999 37.8899 8.39999 38.2599 7.64999L41.0999 1.88999C41.7399 0.639995 42.7599 0.00999451 44.1699 0.00999451C45.5799 0.00999451 46.61 0.639995 47.22 1.88999V1.87999ZM43.31 3.15999L40.65 8.56999C40.41 9.10999 40.2799 9.63999 40.2799 10.16C40.2799 10.72 40.4 11.25 40.65 11.76L43.38 17.23C43.52 17.57 43.78 17.73 44.16 17.73C44.49 17.73 44.73 17.56 44.91 17.23L47.66 11.76C47.91 11.22 48.04 10.69 48.04 10.16C48.04 9.59999 47.91 9.06999 47.66 8.56999L44.97 3.15999C44.8 2.75999 44.53 2.55999 44.16 2.55999C43.79 2.55999 43.5099 2.75999 43.2999 3.15999H43.31Z" fill="#C84130"/>
<path d="M59.4999 -4.27291e-06H66.1799C66.9999 -4.27291e-06 67.7699 0.339996 68.4999 1.03C69.2299 1.72 69.5899 2.55 69.5899 3.53C69.5899 3.9 69.4599 4.21 69.1999 4.46C68.9399 4.71 68.6499 4.84 68.3399 4.84C67.8999 4.84 67.5999 4.74 67.4399 4.54C67.2799 4.34 67.1199 3.97 66.9699 3.43C66.8199 2.89 66.49 2.62 65.9799 2.62H59.6299C59.3199 2.62 59.1699 2.72 59.1699 2.92C59.1699 3.04 59.2199 3.19 59.3599 3.35L68.8999 15.51C69.3599 16.1 69.5899 16.73 69.5899 17.4C69.5899 18.16 69.3099 18.84 68.7599 19.42C68.1999 20 67.5899 20.29 66.8999 20.29H59.9799C59.0599 20.29 58.2699 19.94 57.5899 19.24C56.9099 18.54 56.5699 17.78 56.5699 16.94C56.5699 15.98 57.0199 15.5 57.9099 15.5C58.2599 15.5 58.5499 15.62 58.7999 15.87C59.0399 16.12 59.1699 16.41 59.1699 16.75C59.1699 17.02 59.2599 17.25 59.4499 17.44C59.6399 17.63 59.8699 17.71 60.1599 17.71H66.5399C66.8099 17.71 66.9499 17.6 66.9499 17.38C66.9499 17.28 66.8899 17.14 66.7599 16.98L57.2399 4.82C56.7899 4.24 56.5699 3.61 56.5699 2.93C56.5699 2.14 56.8599 1.45 57.4299 0.859996C57.9999 0.269996 58.6899 -0.0200043 59.4899 -0.0200043L59.4999 -4.27291e-06Z" fill="#C84130"/>
<path d="M95.65 0H100.72C101.38 0.01 102.03 0.22 102.65 0.64C103.28 1.06 103.74 1.56 104.03 2.15L106.57 7.28C107.05 8.21 107.29 9.17 107.29 10.18C107.29 11.12 107.04 12.08 106.53 13.07L103.98 18.14C103.65 18.79 103.19 19.31 102.57 19.71C101.96 20.1 101.28 20.3 100.52 20.3H95.62C95.26 20.3 94.96 20.17 94.71 19.92C94.46 19.67 94.34 19.37 94.34 19.02C94.34 18.67 94.46 18.36 94.71 18.1C94.96 17.84 95.26 17.71 95.62 17.71H96.96V2.6H95.65C95.29 2.6 94.99 2.47 94.74 2.21C94.49 1.95 94.37 1.64 94.37 1.29C94.37 0.94 94.49 0.64 94.74 0.39C94.99 0.14 95.29 0.01 95.65 0.01V0ZM99.53 2.6V17.73H100.43C101 17.73 101.42 17.45 101.71 16.89L104.25 11.85C104.57 11.19 104.73 10.63 104.73 10.19C104.73 9.63 104.6 9.1 104.35 8.6L101.72 3.38C101.45 2.86 101 2.6 100.38 2.6H99.54H99.53Z" fill="#C84130"/>
<path d="M114.54 0H124.93C125.27 0 125.56 0.13 125.82 0.38C126.08 0.63 126.21 0.93 126.21 1.28C126.21 1.63 126.08 1.94 125.83 2.2C125.58 2.46 125.27 2.59 124.93 2.59H121.05V17.72H124.93C125.29 17.72 125.59 17.84 125.84 18.09C126.09 18.34 126.21 18.64 126.21 19C126.21 19.36 126.08 19.66 125.83 19.91C125.58 20.16 125.27 20.28 124.93 20.28H114.54C114.18 20.28 113.88 20.16 113.63 19.91C113.38 19.66 113.26 19.36 113.26 19C113.26 18.64 113.38 18.34 113.63 18.09C113.88 17.84 114.18 17.72 114.54 17.72H118.48V2.6H114.54C114.18 2.6 113.88 2.47 113.63 2.22C113.38 1.97 113.26 1.67 113.26 1.32C113.26 0.95 113.38 0.64 113.63 0.39C113.88 0.14 114.18 0.01 114.54 0.01V0Z" fill="#C84130"/>
<path d="M139.62 0H143.88C144.24 0 144.54 0.12 144.79 0.37C145.04 0.62 145.16 0.92 145.16 1.28C145.16 1.66 145.02 1.97 144.75 2.22C144.48 2.47 144.19 2.59 143.87 2.59H139.8C139.4 2.59 139.06 2.77 138.76 3.15L135.16 7.78C134.85 8.15 134.7 8.66 134.71 9.31V16.41C134.71 16.78 134.83 17.09 135.08 17.34C135.33 17.59 135.63 17.72 135.99 17.72H141.21C141.56 17.72 141.86 17.59 142.11 17.34C142.36 17.09 142.49 16.79 142.49 16.44V13.66H139.83C139.46 13.66 139.16 13.54 138.91 13.29C138.67 13.04 138.54 12.74 138.54 12.38C138.54 12.02 138.66 11.72 138.91 11.47C139.16 11.22 139.46 11.1 139.83 11.1H145.05V16.45C145.05 17.51 144.67 18.41 143.92 19.17C143.17 19.92 142.26 20.3 141.2 20.3H135.98C134.91 20.3 134 19.92 133.24 19.17C132.48 18.42 132.1 17.51 132.1 16.45V9.35C132.1 8.08 132.44 7 133.12 6.13L136.91 1.32C137.18 0.95 137.57 0.64 138.06 0.39C138.55 0.14 139.07 0.01 139.59 0.01L139.62 0Z" fill="#C84130"/>
<path d="M152.33 0H162.72C163.06 0 163.35 0.13 163.61 0.38C163.87 0.63 164 0.93 164 1.28C164 1.63 163.87 1.94 163.62 2.2C163.37 2.46 163.06 2.59 162.72 2.59H158.84V17.72H162.72C163.08 17.72 163.38 17.84 163.63 18.09C163.88 18.34 164 18.64 164 19C164 19.36 163.87 19.66 163.62 19.91C163.37 20.16 163.06 20.28 162.72 20.28H152.33C151.97 20.28 151.67 20.16 151.42 19.91C151.17 19.66 151.05 19.36 151.05 19C151.05 18.64 151.17 18.34 151.42 18.09C151.67 17.84 151.97 17.72 152.33 17.72H156.27V2.6H152.33C151.97 2.6 151.67 2.47 151.42 2.22C151.17 1.97 151.05 1.67 151.05 1.32C151.05 0.95 151.17 0.64 151.42 0.39C151.67 0.14 151.97 0.01 152.33 0.01V0Z" fill="#C84130"/>
<path d="M169.93 3.5V0.0299988H182.88V3.53C182.88 3.89 182.75 4.19 182.5 4.44C182.25 4.69 181.94 4.81 181.6 4.81C181.26 4.81 180.94 4.68 180.68 4.43C180.42 4.18 180.29 3.88 180.29 3.53V2.6H177.69V19.02C177.69 19.38 177.56 19.68 177.31 19.93C177.06 20.18 176.75 20.3 176.41 20.3C176.04 20.3 175.73 20.18 175.48 19.93C175.23 19.68 175.1 19.38 175.1 19.02V2.6H172.5V3.5C172.5 3.86 172.38 4.16 172.13 4.41C171.88 4.66 171.58 4.78 171.22 4.78C170.86 4.78 170.56 4.66 170.31 4.41C170.06 4.16 169.94 3.86 169.94 3.5H169.93Z" fill="#C84130"/>
<path d="M188.93 18.51L194.1 0.95C194.31 0.31 194.74 0 195.4 0C196.06 0 196.44 0.27 196.6 0.81L201.72 18.63C201.76 18.76 201.78 18.89 201.78 19.01C201.78 19.37 201.66 19.67 201.41 19.92C201.17 20.17 200.89 20.29 200.57 20.29C199.9 20.29 199.47 19.98 199.29 19.36L198.28 15.88H192.41L191.29 19.61C191.26 19.77 191.13 19.93 190.91 20.07C190.68 20.22 190.44 20.29 190.17 20.29C189.79 20.29 189.48 20.16 189.23 19.91C188.98 19.66 188.86 19.35 188.86 18.98C188.86 18.83 188.89 18.67 188.94 18.51H188.93ZM195.38 5.94L193.18 13.29H197.52L195.38 5.94Z" fill="#C84130"/>
<path d="M207.75 20.3V1.28C207.75 0.93 207.88 0.63 208.13 0.38C208.38 0.13 208.68 0 209.03 0C209.38 0 209.68 0.13 209.93 0.38C210.18 0.63 210.31 0.93 210.31 1.28V17.73H219.38C219.74 17.73 220.04 17.85 220.3 18.1C220.56 18.35 220.69 18.65 220.69 19.01C220.69 19.37 220.56 19.67 220.3 19.92C220.04 20.17 219.73 20.29 219.38 20.29H207.74L207.75 20.3Z" fill="#C84130"/>
</g>
<defs>
<clipPath id="clip0_2_2">
<rect width="220.7" height="20.3" fill="white"/>
</clipPath>
</defs>
</svg>
