<svg width="79" height="74" viewBox="0 0 79 74" fill="none" xmlns="http://www.w3.org/2000/svg">
<path d="M32.1776 20L32.4215 22.2011L34.7751 22.3117V24.8857H37.3701V29.7714H39.7056V34.6571H42.3005V39.5429H44.636V44.4286H47.2336L47.231 47.0026C47.4152 47.1851 49.4756 46.64 49.8259 47.3857V51.8857H52.1614V56.7714C53.0151 56.8666 54.1388 56.4526 54.7564 57.1571V61.6571H57.0918V66.4143C57.7094 67.1189 58.8331 66.7049 59.6868 66.8V74H0V66.8C0.853744 66.7049 1.97736 67.1189 2.59497 66.4143V61.6571H4.93043V56.7714H7.5254V51.8857H9.86087V47H12.4584L12.4558 44.426H14.7939L14.7939 39.6046C14.7939 39.6046 16.5351 39.638 17.3889 39.5429V34.6571H19.9838V29.7714H22.3193V24.8857H24.9169L24.9143 22.3117H27.2523V20H32.1828H32.1776ZM32.1776 22.3143H27.6364C26.4946 23.3737 28.0957 26.21 27.3925 27.2154L24.9117 27.4571V32.3429H22.3167V37.2286H19.9786C19.9099 38.4282 19.8401 39.0533 19.5913 39.2766C19.3425 39.5 18.7923 39.5528 17.7625 39.6046L17.3425 40L17.3837 44.6857H15.0482V49.1857C14.4306 49.8903 13.307 49.4763 12.4532 49.5714V54.4571H10.1178V59.3429H7.52021L7.52281 61.9169H4.92524V66.8H2.58978V71.6857H57.084V66.8C56.2303 66.7049 55.1067 67.1189 54.4891 66.4143V61.9143H52.151L52.1536 59.3403H49.5561V54.4571H47.2206V49.5714H44.6256V44.6857H42.2902V39.9286C41.7167 39.1263 40.6112 40.3091 39.8094 39.5583L39.6978 37.2286C39.5135 37.046 37.4557 37.5911 37.1028 36.8429V32.3429H34.7673V27.4571C33.9136 27.362 32.79 27.776 32.1724 27.0714V22.3143H32.1776Z" fill="#C84130"/>
<path d="M32.4371 34.6571V37.2286L34.7726 36.9714V49.5714H32.4371V56.6428L32.0478 57.0286H27.6364L27.2472 56.6428V49.5714L25.083 49.5328L24.6652 48.9543L24.948 37.3931L25.2931 37.0511L27.2446 37.2286L27.2472 34.6571H32.4371Z" fill="#C84130"/>
<path d="M32.4371 59.3428V61.6597L34.7751 61.6571V64.2311L32.4371 64.2286C32.2528 64.4111 32.8029 66.4503 32.0504 66.8H27.2497V64.226L24.9091 64.0794V61.6546L27.2497 61.6571V59.3403H32.4371V59.3428Z" fill="#C84130"/>
<path d="M49.0936 36.6216C48.7336 36.9785 48.3752 37.3421 48.0157 37.6996L45.9669 35.6508L47.0449 34.5729C47.7295 35.2524 48.4085 35.9427 49.0936 36.6216C53.6481 32.1103 58.1461 27.5364 62.6954 23.0199L63.7711 24.0956L62.7446 25.1221L63.7689 26.1465C63.412 26.5065 63.0469 26.8634 62.691 27.2244C63.0503 27.5806 63.408 27.9434 63.7667 28.3001C63.4263 28.6426 63.0786 28.9831 62.7397 29.3272C63.4187 30.0123 64.1033 30.6969 64.7885 31.3759C65.3737 30.7958 66.0985 29.9314 66.7134 29.4458C66.7967 29.38 66.8517 29.3198 66.9699 29.3485L67.8916 30.2702L67.8915 30.4243L65.8642 32.4516C65.5054 32.0949 65.1477 31.7321 64.7885 31.3759C64.4285 31.7328 64.07 32.0964 63.7105 32.4539L61.6618 30.4051C62.0187 30.0451 62.3838 29.6882 62.7397 29.3272C62.3835 28.9679 62.0207 28.6102 61.664 28.2515C62.0044 27.9089 62.3521 27.5685 62.691 27.2244C62.3487 26.8852 62.0084 26.5398 61.6666 26.2L50.1693 37.6973C49.8106 37.3407 49.4529 36.9778 49.0936 36.6216ZM54.3399 20.9263L53.3155 19.9019L49.1066 24.1108C48.4102 23.4092 47.7019 22.7133 47.0065 22.0107C48.4013 20.6016 49.8191 19.2094 51.2154 17.8018L50.191 16.7774L48.0866 18.8819C47.3901 18.1803 46.6819 17.4844 45.9865 16.7818C46.6833 16.0778 47.393 15.3804 48.0914 14.6768C47.7517 14.335 47.4047 13.9953 47.0665 13.652C49.1463 11.5588 51.2358 9.46931 53.3284 7.39005C53.6713 7.72877 54.011 8.07572 54.3533 8.41495C55.0553 7.71501 55.7553 7.00891 56.4583 6.30999C56.8027 6.64717 57.1398 6.99668 57.4832 7.33489C58.1852 6.63495 58.8851 5.92885 59.5881 5.22993C59.9325 5.56711 60.2692 5.91611 60.6125 6.25432L61.639 5.22781C64.7681 8.3795 67.9383 11.4972 71.0638 14.6525C70.4836 15.2378 69.6193 15.9625 69.1337 16.5775C69.0678 16.6608 69.0076 16.7158 69.0363 16.834L69.958 17.7557L70.1122 17.7555L72.1395 15.7282C71.7828 15.3695 71.4199 15.0118 71.0638 14.6525C71.4207 14.2925 71.7843 13.9341 72.1417 13.5746L61.6926 3.12549C60.9906 3.8244 60.2906 4.53153 59.5881 5.22993C59.2438 4.89275 58.9066 4.54324 58.5632 4.20504C57.8613 4.90498 57.1613 5.61108 56.4583 6.30999C56.1139 5.97282 55.7767 5.6233 55.4334 5.2851C54.7314 5.98504 54.032 6.69166 53.3284 7.39005C52.9682 7.03491 52.612 6.67052 52.2527 6.31435L45.9908 12.5762C46.347 12.9355 46.7114 13.2917 47.0665 13.652C46.3676 14.355 45.661 15.0544 44.9616 15.7569C45.3013 16.0987 45.6472 16.4385 45.9865 16.7818C45.6465 17.1248 45.2999 17.4653 44.96 17.8083L46.9831 19.8314L46.9829 19.9855L45.9821 20.9863C46.3214 21.3286 46.6673 21.6684 47.0065 22.0107C46.6666 22.3537 46.3199 22.6942 45.98 23.0372L48.0801 25.1373L47.0022 26.2152C47.3414 26.5576 47.6873 26.8973 48.0265 27.2396C47.6866 27.5826 47.34 27.9231 47 28.2661L49.1001 30.3662L45.9692 33.4972L46.9935 34.5215L57.3363 24.1788C57.3491 24.166 57.4082 24.19 57.4277 24.1674L57.4392 24.0246L56.4405 23.0259L50.1271 29.3392C49.4307 28.6376 48.7225 27.9417 48.027 27.2391C50.1197 25.1249 52.2452 23.0374 54.3404 20.9258L54.3399 20.9263ZM69.0005 25.1151C68.6607 24.7733 68.3138 24.4336 67.9756 24.0902C68.6565 23.4021 69.3698 22.7392 70.0096 22.011C70.036 21.8636 69.1737 21.0835 69.0043 20.9101C69.6868 20.2256 70.3749 19.5416 71.0573 18.8571L70.033 17.8327L67.9799 19.8857C68.3176 20.2296 68.6677 20.5652 69.0043 20.9101C68.3049 21.6126 67.5998 22.3136 66.8994 23.015C67.2555 23.3743 67.6199 23.7305 67.9751 24.0907C67.2777 24.7953 66.5685 25.4922 65.8701 26.1957C66.2088 26.5385 66.5584 26.8757 66.895 27.2206C66.5551 27.5636 66.2085 27.9041 65.8685 28.2471L66.8929 29.2715L67.9194 28.245C67.5812 27.9016 67.2322 27.565 66.895 27.2206C67.5924 26.516 68.3016 25.8192 69 25.1156L69.0005 25.1151ZM40.0549 44.9368L44.4437 40.5479L42.9467 39.0508L38.5578 43.4397L40.0549 44.9368ZM51.6533 44.8693L50.2117 43.4276L51.6563 41.983L50.1593 40.486L48.7146 41.9306L50.1563 43.3722L48.7116 44.8168C49.2084 45.3167 49.7124 45.8135 50.2087 46.3139C49.7314 46.7973 49.2424 47.2751 48.7641 47.7585L50.2057 49.2001L51.6503 47.7555C51.172 47.2741 50.6865 46.7958 50.2087 46.3139C50.686 45.8305 51.175 45.3527 51.6533 44.8693ZM38.5669 34.6721C39.0498 34.1933 39.5276 33.7042 40.0115 33.2275C40.4939 33.7037 40.9707 34.1918 41.4531 34.6691L42.8977 33.2245L41.4561 31.7828C40.9732 32.2606 40.4954 32.7497 40.0115 33.2275C39.5286 32.7507 39.0518 32.2636 38.5699 31.7858C38.087 32.2646 37.6092 32.7537 37.1252 33.2304C36.6249 32.7342 36.1281 32.2302 35.6282 31.7334L34.1836 33.178L35.6806 34.6751C36.1635 34.1973 36.6413 33.7082 37.1252 33.2304C37.6072 33.7082 38.086 34.1932 38.5669 34.6721Z" fill="#1B202D"/>
</svg>
