<svg width="342" height="424" viewBox="0 0 342 424" fill="none" xmlns="http://www.w3.org/2000/svg">
<rect y="5" width="342" height="419" fill="white"/>
<g clip-path="url(#clip0_16_288)">
<path d="M17.4595 18.3345C17.0656 25.6984 14.3021 32.9185 9.71277 38.682C8.22469 40.5511 9.18131 43.3579 11.526 43.8017C19.0414 45.2207 27.2008 43.2016 34.9101 41.7451C76.1386 33.9436 118.411 43.5954 160.328 45.4458C164.379 45.627 168.456 45.7333 172.445 46.4959C177.478 47.4586 182.336 49.459 187.457 49.6465C194.385 49.9028 200.931 46.8335 207.49 44.5768C237.433 34.2624 270.214 40.4386 301.852 39.0883C305.44 38.9321 309.423 38.5007 311.805 35.8127C312.781 34.7125 313.381 33.3373 313.906 31.9683C315.651 27.4174 316.732 22.6166 317.12 17.7594C317.289 15.6653 315.932 13.7462 313.894 13.2086C300.682 9.74543 287.477 6.27604 274.266 2.8129C269.095 1.45015 263.862 0.0874025 258.516 -0.000113592C252.851 -0.0876297 247.28 1.26887 241.666 2.02526C232.906 3.20673 207.19 15.6278 170.913 10.9707C93.0327 0.975066 40.0371 13.3023 20.3857 15.2902C18.7976 15.4527 17.5471 16.7405 17.4595 18.3345Z" fill="#0093A2"/>
<path d="M310.336 14.5402C310.592 17.6783 310.874 20.8726 311.236 23.8857C312.368 33.3499 314.9 42.4891 316.413 51.9033C316.976 55.3915 317.082 59.0046 317.714 62.4928C320.859 79.8835 320.434 97.593 319.102 115.221C319.483 126.117 319.146 136.806 319.846 147.721C320.421 156.76 321.209 165.868 322.028 174.895C322.366 178.62 323.873 183.19 324.417 187.066C324.829 190.023 324.904 193.029 325.186 196.005C325.886 203.537 325.68 211.189 325.68 218.828C325.68 225.685 326.586 232.562 326.893 239.432C327.168 245.614 326.574 252.221 327.13 258.366C327.255 259.76 327.88 261.129 328.068 262.523C328.343 264.536 328.212 267.824 328.437 269.718C329.675 280.37 330.463 334.512 329.562 342.707C329.369 344.457 330.238 347.695 329.95 349.746C329.068 355.984 331.701 396.085 322.372 404.093C320.959 405.306 322.597 406.562 319.859 406.919C318.689 407.069 316.057 407.013 314.85 406.875C303.602 405.618 292.373 404.687 281.062 403.774C262.68 402.293 244.079 400.599 225.478 400.399C216.206 400.299 207.096 399.667 197.792 399.649C186.857 399.624 176.215 399.405 165.28 398.442C154.463 397.486 145.403 398.43 134.693 399.174C132.192 399.349 129.597 398.967 127.177 399.174C123.245 399.517 119.299 400.255 115.291 400.393C110.633 400.555 106.257 399.599 101.686 399.417C84.1793 398.717 68.0605 400.418 50.7225 401.843C45.9644 402.237 41.694 401.912 36.8734 401.843C30.5897 401.762 24.2997 402.868 18.016 401.768C17.1094 401.612 16.1716 401.505 15.2837 401.343C13.1016 400.943 14.1708 395.729 14.1958 394.198C14.4021 380.358 8.10593 301.18 9.42519 271.494C9.46271 270.694 10.0942 263.042 10.1505 262.242C10.5819 255.753 10.8758 249.252 11.3697 242.839C11.9699 235.068 13.4893 227.667 14.2771 220.022C14.821 214.715 15.0649 209.857 15.7339 204.494C16.4029 199.13 16.3216 193.079 16.4529 187.522C16.5842 181.909 16.9969 176.139 16.7155 170.513C16.5342 166.862 15.6776 163.236 15.2462 159.604C14.3208 151.797 14.0958 142.276 14.2646 134.356C14.2833 133.431 14.9148 133.15 13.7769 132.649C14.077 131.793 14.4271 130.912 14.5209 129.999C15.5026 120.453 15.1212 110.689 15.2775 101.15C15.4775 88.8601 16.4467 76.5204 14.746 64.2681C14.5459 62.8178 13.7894 61.1675 13.5706 59.861C12.9578 56.1604 13.0829 51.4845 12.5264 47.5588C12.3201 46.1085 11.6573 44.4207 11.7198 42.9954C13.8957 42.6641 16.0215 42.114 18.1723 41.6764C21.3298 41.0388 23.9558 40.4637 27.2759 40.3387C34.8038 40.0574 42.3693 41.0201 49.8472 40.5825C55.018 40.2762 60.989 39.5386 66.0785 40.1199C70.9679 40.6825 75.9511 42.2578 80.903 42.2891C89.8503 42.3453 99.2789 41.5202 108.332 41.3514C115.879 41.2076 122.701 41.789 130.178 42.0265C142.49 42.4203 154.701 40.4575 167.062 41.3014C173.37 41.7327 181.036 43.4518 187.207 42.7516C195.954 41.7515 204.883 40.0386 213.667 40.0636C233.944 40.1262 254.308 40.1637 274.585 39.8386C275.56 39.8261 280.593 38.9947 280.018 41.3701C279.73 42.5516 277.992 41.8015 277.254 41.7827C273.272 41.6889 269.02 42.4828 265.112 42.2766C259.86 41.9953 255.096 42.4203 249.819 42.2766C229.736 41.7452 209.303 41.4952 189.427 44.2332C179.466 45.6084 170.444 43.2767 160.515 42.9892C150.574 42.7016 140.614 44.6457 130.654 44.2144C126.002 44.0081 120.418 43.0579 115.854 42.9954C110.133 42.9142 103.481 43.5768 97.6596 43.7331C90.0753 43.9394 81.8284 44.7333 74.3755 43.6956C71.6244 43.3142 68.3606 42.2703 65.6096 42.0265C59.726 41.5014 54.3614 42.5579 48.6342 42.7579C38.4552 43.1205 27.8011 40.8138 17.866 43.7893L14.5584 44.2394C14.2083 44.452 14.2521 46.7086 14.2708 47.2462C14.5084 53.2973 16.0528 58.4295 16.8781 64.2931C19.4729 82.609 18.0035 103.832 17.1782 122.448C16.703 133.175 15.9527 144.983 16.7093 155.697C17.0219 160.155 18.4037 164.843 18.66 169.281C19.2478 179.646 18.6163 192.154 17.9223 202.531C17.7284 205.413 16.6905 208.188 16.4717 211.026C16.3404 212.764 16.5967 214.64 16.4779 216.371C15.8965 224.779 14.3896 233.193 13.5518 241.595C12.3138 254.041 11.9137 267.456 11.1384 279.945C10.6882 287.178 16.0215 385.99 15.884 394.879C15.8589 396.398 15.9277 397.873 16.1403 399.374C19.2978 399.58 22.7741 400.599 25.9379 400.318C29.7081 399.98 33.0907 399.524 36.8921 399.617C42.7944 399.761 47.9464 400.13 53.88 399.617C66.3536 398.542 78.9022 396.936 91.5009 396.954C101.53 396.967 111.309 398.573 121.356 397.923C131.504 397.261 141.777 395.792 151.949 395.729C163.404 395.66 174.321 397.229 185.663 397.692C192.459 397.967 199.33 397.442 206.058 397.423C211.804 397.411 217.231 398.173 223.04 398.155C241.047 398.098 258.76 400.268 276.698 401.086C289.591 401.674 302.546 403.931 315.526 404.712C316.995 404.8 318.508 404.693 319.977 404.675C320.665 403.149 321.29 401.599 322.109 400.136C323.047 398.461 324.392 396.917 325.242 395.26C328.281 389.309 327.956 342.501 328.137 335.893C328.406 326.373 327.962 279.301 325.936 262.698C325.723 260.961 325.079 259.035 324.954 257.122C324.748 253.909 325.011 250.421 324.961 247.164C324.861 240.369 324.373 233.624 323.96 226.786C323.172 213.658 324.204 200.931 322.485 187.76C321.909 183.371 320.615 178.964 320.096 174.62C319.246 167.5 318.639 159.679 318.152 152.541C316.939 134.9 317.039 117.328 317.664 99.6246C318.446 77.6331 315.638 58.8546 311.412 37.4632C309.83 29.4679 308.517 21.579 308.185 13.515C308.142 12.4898 307.104 10.8145 307.948 9.60804C308.348 9.20171 310.042 8.70162 309.711 9.42675C309.536 9.80807 310.349 14.4964 310.349 14.4964L310.336 14.5402ZM195.96 7.62017C180.304 9.32048 163.885 12.9149 148.16 12.2898C145.053 12.1648 142.439 11.7522 139.382 11.4709C123.701 10.0519 107.995 9.32674 92.3075 9.03293C83.8417 8.87665 75.2696 9.93935 66.8225 10.2644C56.7749 10.652 46.7397 9.50802 36.7046 9.76432C30.9398 9.91434 25.1313 12.7336 19.4228 14.0776C18.7413 14.2401 18.0223 14.1214 17.222 14.3027C15.3025 14.7465 14.3521 15.5404 15.8402 17.2845C17.1532 14.8778 19.6042 15.7342 21.8488 15.2903C28.4451 13.9776 33.0656 11.1646 40.3497 11.7147C44.2888 12.0085 47.4775 11.7584 51.2852 11.946C65.8597 12.6523 80.1715 11.2458 94.6771 11.3209C109.796 11.4021 124.833 12.246 139.857 13.6588C148.842 14.5027 154.844 14.5277 163.892 13.6588C178.372 12.2648 192.809 9.84558 207.334 8.56409C237.208 5.91986 267.257 6.45746 297.143 6.36994C300.801 6.35744 305.078 6.1324 308.679 6.72626C308.873 6.75751 312.481 8.14527 311.705 6.61999C311.38 5.98862 309.342 4.29456 308.554 4.18829C306.416 3.89448 303.821 4.45084 301.758 4.45084C291.247 4.46334 280.737 4.00075 270.264 4.02576C245.561 4.08827 220.501 4.95718 195.954 7.62642L195.96 7.62017ZM62.4083 33.5187C62.821 33.3874 63.0273 32.306 63.1711 31.8559C64.3153 28.2302 64.6342 25.8485 63.4087 22.1478C63.2587 21.6978 61.9832 19.1598 61.7331 18.9723C60.4576 18.0471 54.549 19.3411 52.7296 19.4724C51.0414 19.5974 46.3771 19.9724 44.9765 19.7036C44.4451 19.6036 43.9636 18.941 43.5447 19.0223C43.3196 19.066 42.7069 19.6661 42.0754 20.0662C41.4814 20.4413 41.1375 21.1039 41.2126 21.7978L41.9941 28.7428C42.5256 31.6433 42.932 33.7375 46.2395 34.2063C47.2962 34.3563 49.2094 34.4939 50.2911 34.5251C52.7671 34.5876 55.268 34.3126 57.7065 34.025L57.4627 33.5437C59.1821 33.975 60.6827 33.6187 62.4083 33.5124V33.5187ZM52.4169 21.5852C54.2989 21.429 59.1946 20.1037 60.6139 21.0664C61.4392 21.629 62.3145 26.0736 62.3208 27.1238C62.3208 27.7426 61.5643 31.5246 61.2391 31.8621C60.6514 32.4685 59.8511 31.7684 59.2321 31.6684C57.6127 31.4058 56.4873 32.4435 54.9367 32.5935C52.9609 32.7873 49.0094 32.6685 46.9961 32.4497C44.3513 32.1622 45.8331 30.1368 45.5205 28.6303C45.4705 28.3865 44.6952 26.2861 44.5514 25.9423C44.4013 25.5735 43.9136 25.6047 43.8573 25.3672C43.7323 24.8546 44.17 24.242 44.0699 23.7731C43.9949 23.4356 43.476 23.123 43.4697 22.748C43.4697 22.4229 44.1074 21.7353 43.8761 21.1727C43.8761 21.1727 51.1852 21.6853 52.4169 21.579V21.5852ZM37.3673 18.5284C36.8859 18.3909 36.3857 18.666 36.2419 19.141C36.1106 19.5661 35.6917 19.8412 35.2477 19.7787C34.2036 19.6286 33.0656 19.8912 32.1153 19.7162C31.4775 19.5974 30.9648 18.8972 30.1458 18.7722C28.2263 18.4784 27.2884 19.2348 25.7753 19.4724C25.025 19.5911 24.2372 19.3473 23.4682 19.5974C23.0805 19.7224 20.8421 21.1664 20.8234 21.5415C20.8046 21.9166 21.2485 22.7855 21.3048 23.4793C21.4299 24.9296 20.6233 29.0429 20.7796 30.7619C20.8109 31.112 21.0297 31.4246 21.3611 31.5496C25.6815 33.2186 30.6397 34.0625 35.2603 33.8125C35.8167 33.7812 38.549 33.5499 38.7679 33.4374C40.0058 32.8373 38.8366 29.7868 38.7679 28.8303C38.6178 26.805 38.8241 24.567 38.7804 22.5104C38.7679 21.854 38.449 21.2289 38.5053 20.5788C38.524 20.3788 38.5865 20.2162 38.6678 20.06C38.9304 19.5411 38.6678 18.9098 38.1051 18.7535L37.3548 18.5409L37.3673 18.5284ZM30.8523 22.2729C31.0211 22.3416 31.2087 22.3604 31.3837 22.3229L35.5854 21.4415C36.1168 21.3289 36.6295 21.704 36.6858 22.2416C36.8296 23.5356 36.617 25.6985 36.5608 26.3611C36.5045 27.0237 36.0668 27.9614 36.1106 28.5678C36.1606 29.2116 37.0172 29.9368 36.9171 30.8244C36.8734 31.1995 36.5858 31.4996 36.2169 31.5871C35.7667 31.6996 35.1477 31.7809 34.9414 31.7871C32.8093 31.8621 29.9332 31.6996 27.7886 31.3058C27.2071 31.1995 23.1868 30.1868 22.993 30.0368C22.374 29.568 23.143 27.4051 23.2368 26.6299C23.3306 25.8548 23.143 25.0046 23.2556 24.2232C23.2993 23.9294 23.5494 23.6169 23.6807 23.2668C23.812 22.9167 24.1434 22.6854 24.5186 22.6729C26.7257 22.6042 28.6202 21.3977 30.8523 22.2666V22.2729ZM83.429 32.7185C84.5732 31.4871 85.1109 32.6935 86.2051 32.581C86.7678 32.5248 88.0621 31.8871 88.7186 31.6746C89.5501 31.4058 90.9569 31.6308 91.1633 30.2181C91.207 29.9118 90.0753 25.9423 89.8628 25.3047C89.5564 24.3983 87.7369 19.8349 87.218 19.4599C86.4239 18.8847 83.1539 19.5599 81.8471 19.4849C80.8155 19.4286 79.7338 19.0285 78.7084 18.9785C77.2641 18.9098 68.7983 18.8535 68.2544 19.7036C68.1168 20.7788 67.9105 21.9041 67.9167 22.9792C67.9292 24.8671 68.1668 27.8739 68.3794 29.7868C68.4919 30.7682 68.9484 31.5808 69.9675 30.8807C71.0117 29.8305 69.6924 22.7167 70.0801 20.9289C73.1062 20.9351 76.1637 20.7976 79.1899 20.9226C80.4716 20.9726 82.0222 21.3727 83.304 21.4352C84.2418 21.479 85.3985 20.8539 86.0926 21.5415C86.4552 21.8978 87.8995 25.8173 88.1058 26.5612C88.3622 27.4801 88.4372 28.4428 88.7186 29.3554L88.531 29.7805C84.7358 31.0057 81.0281 31.9747 77.0078 32.0997C75.8323 32.1372 70.9054 31.6871 70.4177 32.0622C70.0175 32.381 69.9363 33.1124 70.1926 33.5437C70.7491 34.4689 74.2004 33.7125 75.2946 34.2688C76.8264 33.5499 82.5224 34.1813 83.3727 33.2561C83.4165 33.2124 83.2039 32.9373 83.4165 32.706L83.429 32.7185ZM32.109 23.8419C31.2649 22.4291 29.7206 24.9296 28.8202 25.561C28.5952 25.7235 28.0512 25.1922 27.2821 24.1045C27.2821 23.4168 26.7632 23.9732 25.9129 23.8419C25.4189 25.786 27.4009 25.6797 26.7757 27.4988C26.5694 28.1052 25.3626 28.9366 25.9504 29.8743C26.0504 30.0368 27.1759 30.2243 27.4447 30.1618C27.6448 30.1181 28.3826 28.5303 29.2016 28.4428C30.6897 28.2865 31.5963 31.6558 33.6846 28.3302L31.0586 26.955C30.9398 26.7674 30.9523 26.0361 31.0711 25.8298C31.2587 25.4985 32.8781 25.1359 32.1153 23.8357L32.109 23.8419Z" fill="#1A202F"/>
<g clip-path="url(#clip1_16_288)">
<path d="M111.891 250.025C111.441 251.324 110.77 252.441 109.885 253.379C108.999 254.317 107.921 255.035 106.662 255.53C105.398 256.031 103.956 256.276 102.333 256.276C101.069 256.276 99.8908 256.089 98.7942 255.708C97.6976 255.328 96.7255 254.78 95.8875 254.053C95.0448 253.326 94.3839 252.45 93.9051 251.425C93.4262 250.4 93.182 249.221 93.182 247.892C93.182 246.232 93.5507 244.812 94.2882 243.633C95.0256 242.454 95.9642 241.323 97.1038 240.235C97.7359 239.6 98.277 239.071 98.7272 238.652C99.1773 238.228 99.5556 237.843 99.8525 237.497C100.154 237.15 100.394 236.809 100.576 236.477C100.758 236.145 100.896 235.75 101.002 235.297C101.107 234.845 101.174 234.306 101.203 233.69C101.232 233.069 101.26 232.309 101.294 231.404H104.133C104.162 232.795 104.09 233.964 103.908 234.917C103.726 235.87 103.43 236.717 103.008 237.454C102.587 238.195 102.046 238.912 101.385 239.605C100.724 240.298 99.9099 241.087 98.9522 241.963C98.1094 242.748 97.4103 243.624 96.8548 244.591C96.2994 245.558 96.0216 246.617 96.0216 247.763C96.0216 248.667 96.194 249.5 96.5388 250.256C96.8836 251.011 97.3481 251.651 97.9371 252.181C98.5213 252.71 99.206 253.124 99.9866 253.427C100.767 253.73 101.596 253.88 102.467 253.88C103.698 253.88 104.775 253.668 105.69 253.244C106.604 252.821 107.366 252.238 107.969 251.502C108.568 250.761 109.023 249.895 109.319 248.898C109.621 247.902 109.755 246.829 109.727 245.679H112.566C112.566 247.281 112.341 248.73 111.891 250.029V250.025ZM100.801 228.41V223.607H104.588V228.41H100.801Z" fill="#1A202F"/>
<path d="M118.068 223.602L125.735 243.542L132.903 223.602H135.743L125.644 250.52C125.222 251.516 124.834 252.339 124.47 252.989C124.111 253.639 123.709 254.154 123.273 254.529C122.838 254.905 122.325 255.179 121.741 255.343C121.157 255.506 120.41 255.593 119.51 255.593C118.94 255.564 118.494 255.54 118.178 255.525C117.862 255.511 117.585 255.458 117.345 255.367V252.965C117.675 253.023 118.001 253.081 118.312 253.124C118.628 253.167 118.949 253.191 119.28 253.191C119.912 253.191 120.429 253.1 120.836 252.917C121.243 252.734 121.593 252.489 121.894 252.171C122.196 251.853 122.45 251.468 122.66 251.016C122.871 250.564 123.096 250.063 123.336 249.519L124.327 246.891L115.037 223.598H118.059L118.068 223.602Z" fill="#1A202F"/>
<path d="M152.876 240.192V233.396H155.132V226.601H150.621V224.334H157.382V217.538H161.893V224.334H166.404V226.601H159.643V235.663H157.387V240.197H155.132V244.731H157.387V246.997H150.626V240.202H152.881L152.876 240.192ZM159.643 242.459V244.726H157.387V242.459H159.643Z" fill="#1A202F"/>
<path d="M170.915 246.988V244.721H168.659V237.925H170.915V231.13H173.17V226.596H170.915V224.329H177.676V231.125H175.421V237.92H173.165V242.454H175.421V244.721H177.676V246.988H170.915ZM168.659 228.863V226.596H170.915V228.863H168.659ZM177.676 244.721V242.454H179.932V244.721H177.676ZM179.932 242.459V240.192H182.187V242.459H179.932ZM184.442 219.796V222.062H182.187V219.796H184.442ZM182.187 240.192V237.925H184.442V235.658H186.698V231.125H188.953V224.329H193.464V231.125H191.209V237.92H188.953V244.716H191.209V246.983H184.447V240.187H182.192L182.187 240.192ZM186.693 217.534V215.267H188.948V213H191.204V217.534H188.948V219.8H184.438V217.534H186.693ZM191.204 244.721V242.454H193.459V244.721H191.204Z" fill="#C84130"/>
<path d="M93 294.798V283.435H95.8253V277.751H98.6505V274.911H104.301V277.751H101.476V283.435H98.6505V291.958H101.476V294.798H107.126V297.637H95.8253V294.798H93ZM109.956 272.072V274.911H104.306V272.072H109.956ZM109.956 291.958V294.798H107.131V291.958H109.956ZM109.956 306.16V309H107.131V306.16H109.956ZM112.782 297.637V291.958H109.956V289.118H112.782V286.279H115.607V280.595H118.432V272.072H109.952V269.232H124.083V280.595H121.257V289.118H118.432V297.642H115.607V303.321H118.432V306.16H109.952V297.637H112.777H112.782Z" fill="#1A202F"/>
<path d="M132.568 297.637V294.798H129.743V286.274H132.568V277.751H135.393V272.072H132.568V269.232H141.049V277.756H138.223V286.279H135.398V291.958H138.223V294.798H141.049V297.637H132.568ZM129.738 274.916V272.077H132.563V274.916H129.738ZM141.044 294.798V291.958H143.869V294.798H141.044ZM143.869 291.958V289.118H146.694V291.958H143.869ZM146.699 289.118V286.279H149.524V283.439H152.35V277.756H155.175V269.232H160.825V277.756H158V286.279H155.175V294.802H158V297.642H149.519V289.118H146.694H146.699ZM158 294.798V291.958H160.825V294.798H158Z" fill="#1A202F"/>
<path d="M166.481 291.958V280.595H169.306V274.916H172.131V272.077H177.782V274.916H174.956V280.595H172.131V286.279H177.782V289.118H172.131V291.958H174.956V294.798H183.437V297.637H172.131V294.798H169.306V291.958H166.481ZM186.262 280.595V272.072H177.782V269.232H189.087V272.072H191.913V280.595H189.087V283.435H183.437V280.595H186.262ZM183.437 283.435V286.274H177.786V283.435H183.437ZM186.262 263.553V266.393H183.437V263.553H186.262ZM189.092 291.958V294.798H183.442V291.958H189.092ZM189.092 260.714V257.874H191.917V255.035H194.743V260.714H191.917V263.553H186.267V260.714H189.092ZM191.917 289.118V291.958H189.092V289.118H191.917Z" fill="#1A202F"/>
<path d="M200.393 291.958V297.637H194.743V291.958H200.393Z" fill="#1A202F"/>
<path d="M211.699 291.958V297.637H206.048V291.958H211.699Z" fill="#1A202F"/>
<path d="M223 291.958V297.637H217.349V291.958H223Z" fill="#1A202F"/>
</g>
<g clip-path="url(#clip2_16_288)">
<path d="M194.356 169.195C194.193 167.639 195.707 167.384 195.761 167.265C196.468 165.718 196.468 164.071 197.982 162.223C199.287 160.63 201.807 160.493 201.046 157.945C200.728 156.88 192.28 152.11 192.063 150.172C191.981 149.434 192.597 148.979 193.504 149.507C194.465 150.071 200.058 155.524 200.339 155.205C199.641 153.831 201.426 153.849 201.608 153.457C201.889 152.857 201.608 151.983 201.916 151.318C203.248 148.378 204.418 145.357 206.077 142.589C205.07 141.916 204.1 141.16 202.913 140.851C201.082 140.369 193.114 139.103 191.337 139.076C190.431 139.058 189.57 139.267 188.718 139.495C189.017 140.323 188.818 141.488 189.733 141.934C191.881 142.999 198.453 142.298 201.571 143.09C202.215 143.254 202.532 142.708 202.523 143.928L199.532 150.709C197.51 151.337 192.425 143.818 189.67 145.784C189.96 147.241 191.202 148.97 189.262 149.143L189.57 150.345C191.501 149.753 190.504 151.264 190.984 152.056C192.779 154.968 195.036 157.007 198.009 158.637C195.97 161.24 194.039 164.08 192.915 167.265C192.425 168.64 192.461 171.625 192.326 171.807C192.199 171.98 188.827 173.209 188.301 173.118C187.775 173.027 181.62 168.922 180.687 168.212C177.994 166.164 176.154 162.132 172.229 162.56C171.305 164.334 179.961 169.659 181.647 171.006C182.672 171.835 183.805 173.883 184.031 174.01C184.856 174.438 186.189 174.219 186.633 174.611C187.077 175.002 187.032 176.167 187.177 176.267C187.322 176.368 189.443 175.048 190.322 174.875C191.537 174.629 193.368 175.102 194.039 174.838C194.51 174.656 194.338 173.346 194.945 172.736C197.909 169.759 205.877 165.745 210.128 165.654C210.881 165.636 211.969 166.464 212.893 166.2C213.682 166.091 213.582 166.883 213.31 167.411C212.784 168.449 205.243 175.102 203.756 176.295C202.007 177.706 198.499 180.636 196.767 181.647C195.924 182.138 189.815 184.832 189.162 184.851C187.848 184.887 186.488 183.831 185.373 183.185C182.844 181.71 176.408 177.223 174.287 175.375C170.987 172.499 169.872 168.612 164.842 168.704C164.959 171.334 166.963 171.234 168.186 172.29C172.293 175.83 175.284 177.924 179.454 181.019C182.599 183.349 185.609 186.926 189.425 187.827C188.546 190.776 186.597 193.398 186.851 196.529C185.518 197.02 168.594 192.897 167.099 191.714C166.065 190.904 159.557 180.6 159.24 179.353L156.04 166.701C158.116 167.365 158.922 170.387 159.938 172.062C160.337 172.727 159.756 173.236 161.08 172.781C163.4 171.98 164.443 168.412 165.902 166.555C167.733 164.225 171.468 160.239 174.369 159.519C176.372 159.028 177.487 160.785 179.436 158.4C179.952 157.107 171.087 152.21 169.265 153.448C169.365 156.57 173.109 155.587 173.535 157.726C170.779 158.618 168.368 160.73 166.283 162.66C165.277 163.588 161.433 169.004 160.3 168.394C156.412 161.34 152.133 152.848 156.031 145.229C157.082 146.858 155.179 152.22 157.971 152.529C161.823 152.957 167.543 149.125 171.64 149.016L174.06 145.912L180.261 148.852C181.366 148.233 182.318 147.532 183.152 146.558C184.367 145.138 187.585 139.495 188.555 137.602C189.887 134.998 190.531 131.94 191.854 129.319L192.597 128.991C200.756 133.223 200.085 121.718 203.801 117.358L203.493 114.837C196.84 114.118 189.987 114.701 183.469 116.248C181.557 114.992 173.879 109.321 172.302 109.248C171.758 109.221 171.332 109.349 170.978 109.767L162.485 120.908C158.324 123.211 157.989 119.488 155.342 120.016C151.462 120.79 149.921 125.214 151.671 128.772C152.849 131.175 156.421 131.976 156.729 129.127C156.901 127.553 154.182 129.055 153.13 127.17C151.063 123.466 157.037 119.57 158.913 122.947C160.173 125.223 156.647 130.147 157.091 133.023C157.436 135.217 159.439 137.028 159.91 139.194L155.668 137.501C155.75 140.441 153.429 142.881 152.822 145.775C150.239 158.136 155.614 178.17 162.376 189.065C163.482 190.84 164.978 192.551 165.957 194.508L167.099 195.236C171.939 194.69 180.451 198.713 184.521 198.713C185.563 198.713 186.551 197.748 186.86 197.849C187.005 197.894 186.533 199.842 188.401 200.115C193.205 196.538 187.231 187.326 193.667 185.342C195.235 184.86 196.541 185.415 197.964 184.569C201.58 182.411 208.007 175.212 211.552 172.008C212.703 170.97 218.586 166.756 218.749 166.264C218.985 165.545 218.749 165.017 218.559 164.334C213.854 164.826 208.134 163.67 212.902 158.382C213.89 157.28 221.586 151.382 222.375 151.819C226.363 156.179 217.226 158.291 221.378 161.695C222.837 161.622 225.475 155.788 226.617 154.249C228.802 151.309 231.865 149.189 233.189 145.502C233.089 133.251 241.419 123.866 244.937 112.744L243.178 111.688C240.876 113.244 233.996 118.096 231.602 117.55C230.778 117.358 229.871 116.275 228.702 116.175C224.142 115.756 217.462 124.267 212.24 124.367C211.533 131.676 211.669 139.285 210.219 146.576L205.687 146.258L209.159 149.698C209.657 152.101 208.606 154.313 208.424 156.552C208.316 157.936 207.935 160.266 207.971 160.484C208.089 161.276 209.14 162.168 209.186 162.723C209.304 164.325 206.122 163.625 204.753 163.98C201.617 164.79 199.378 167.657 195.707 167.293C196.876 169.231 196.441 170.915 194.302 169.222L194.356 169.195ZM165.938 147.641L158.841 149.826L158.786 142.034C162.313 141.925 163.545 145.775 165.938 147.641ZM161.361 126.879L163.663 128.6L161.678 125.523L163.174 124.158L163.482 126.734C168.431 128.955 173.018 127.107 178.067 126.988C181.548 126.907 185.237 127.999 188.799 127.107C189.842 127.817 187.503 134.734 186.932 136C186.198 137.629 181.339 145.821 179.925 145.839C171.015 141.069 155.242 141.124 160.037 126.797L161.361 126.888V126.879ZM167.77 143.236C169.383 144.137 171.595 143.454 170.96 145.948L166.627 147.35C164.76 146.076 164.261 143.627 163.255 142.18C163.011 141.825 160.753 141.907 161.642 140.76C162.684 139.413 166.754 142.671 167.76 143.236H167.77ZM168.549 122.683L164.905 120.863L172.048 112.443C174.296 111.706 179.3 115.929 181.212 117.34C181.439 118.196 172.945 123.648 171.631 124.139C170.317 124.631 168.558 125.432 167.579 123.866L168.549 122.683ZM175.511 124.021C179.98 121.063 182.98 117.986 187.857 122.082C189.216 123.229 191.591 125.232 188.537 125.368C183.796 125.587 178.457 124.194 173.797 125.76C173.689 124.558 174.813 124.476 175.511 124.021ZM196.84 126.561C190.875 128.235 192.978 124.312 191.954 122.319C191.328 121.099 187.177 119.807 186.452 117.85C190.105 118.05 194.229 116.903 197.755 116.994C198.952 117.031 200.583 117.158 200.674 118.678C198.68 120.271 197.429 123.912 196.831 126.57L196.84 126.561ZM222.801 148.105C221.55 149.006 214.334 154.786 213.537 154.331C213.074 150.627 216.945 150.008 218.83 148.142C219.664 147.323 219.601 146.321 220.127 145.748C223.254 142.316 226.381 138.767 230.814 136.955L228.149 144.037L229.799 143.026C230.225 143.891 229.871 144.374 229.354 145.065L228.457 145.256L228.14 144.028C226.418 147.04 224.886 146.604 222.792 148.105H222.801ZM229.545 119.306L214.624 145.966L212.431 147.405L214.226 126.324C219.311 124.039 223.562 119.197 229.545 119.315V119.306ZM230.197 121.8C231.729 120.298 238.238 118.423 240.35 116.667L233.424 133.178C230.361 134.58 227.397 135.89 224.704 137.938C222.402 139.695 221.015 142.235 218.45 143.5C221.414 138.384 223.771 132.686 226.771 127.626C227.342 126.661 229.953 122.037 230.197 121.8Z" fill="#1A202F"/>
<path d="M233.923 244.988C234.558 239.764 229.572 236.214 228.521 231.181C230.433 230.052 230.533 232.091 231.775 232.3C234.141 232.701 244.257 232.555 243.976 229.406C241.293 226.02 235.591 225.537 234.793 220.713C232.862 222.443 231.711 221.095 229.962 219.475L233.905 206.905C232.536 201.417 235.582 191.677 233.86 186.799C232.446 182.812 224.179 181.392 220.589 182.084L219.42 177.878C217.117 178.361 214.606 176.586 212.494 176.686C210.745 176.768 212.812 179.571 213.065 179.699C213.718 180.045 217.344 178.862 217.67 181.01C217.743 181.519 215.613 190.376 215.114 190.813C213.147 192.533 201.843 187.099 198.671 188.783C198.471 189.101 199.595 190.703 200.021 190.913C201.689 191.75 212.54 192.442 213.084 192.842C213.491 193.953 211.905 201.635 211.606 201.981C211.234 202.409 210.736 202.563 210.174 202.582L195.951 200.688C192.507 200.77 193.196 203.283 196.577 203.255C197.583 203.255 198.308 202.409 198.816 202.518C198.943 202.545 199.215 203.465 200.021 203.647C201.825 204.065 209.304 205.148 210.002 206.286L212.848 222.169C208.651 222.87 202.831 224.072 201.735 228.796C209.53 234.53 219.148 238.608 224.55 246.991L233.923 244.97V244.988ZM215.005 223.207C214.887 218.738 212.431 209.7 213.102 205.622C213.229 204.839 214.38 205.121 214.643 204.739C216.03 202.709 213.265 195.245 219.365 196.856C223.889 198.049 222.683 204.52 222.42 208.389C222.302 210.136 221.622 216.672 221.251 217.982C221.042 218.702 220.97 219.184 220.109 219.348L215.259 219.066L215.948 221.423L220.272 221.241L220.489 229.651C222.057 228.65 222.783 228.404 224.333 229.806C220.634 234.348 215.313 226.648 210.999 227.476C211.869 230.88 214.253 229.961 216.283 230.971C217.978 231.809 222.61 235.049 224.577 234.466C225.339 234.239 225.62 231.572 226.726 232.864L231.376 242.558L230.179 243.805L224.469 243.832C219.592 237.406 211.452 233.492 204.953 228.75C203.81 226.447 212.766 225.255 214.389 225.756C213.392 224.418 215.014 223.589 215.005 223.207ZM225.375 216.972C226.236 216.553 227.215 217.118 228.104 216.954C227.161 218.119 227.596 221.687 227.369 222.169C227.17 222.579 225.031 223.143 224.922 224.472C227.161 226.42 229.726 223.271 231.675 223.653C232.717 223.862 240.758 228.313 240.16 229.324C237.485 228.796 234.975 230.207 232.545 230.179C230.333 230.152 228.348 227.421 225.475 229.233L224.695 226.147L222.438 227.276C222.991 225.282 222.547 222.643 222.955 220.877C223.009 220.64 225.13 217.09 225.384 216.972H225.375ZM222.638 195.327C222.076 195.509 216.147 194.599 217.027 193.288C218.948 193.716 221.278 193.516 222.638 195.327ZM231.331 186.617C232.328 189.274 231.729 200.042 231.331 203.228C231.004 205.813 229.663 213.568 227.188 214.551C225.946 215.042 225.439 213.04 225.348 212.239C224.496 205.221 229.844 191.477 217.761 191.168L218.713 184.532C221.251 183.777 230.361 184.022 231.34 186.617H231.331Z" fill="#1A202F"/>
<path d="M190.712 82.6156C192.253 86.8026 193.25 84.9093 196.432 85.8013C200.003 86.8117 204.082 89.3238 207.88 89.9883C208.47 91.5539 208.116 90.9622 207.318 91.4173L196.939 97.1972C196.323 101.084 199.006 99.3453 200.873 99.4454C204.001 99.6184 207.228 100.183 210.355 100.328C211.579 100.392 216.383 99.5 216.981 100.72C215.404 106.272 213.8 112.416 209.548 116.375L210.99 118.596C213.183 117.468 214.226 115.019 216.247 113.69C220.045 111.205 231.086 108.065 230.007 101.748C229.79 100.456 228.53 100.019 228.04 98.9448C222.946 87.8857 214.86 83.1253 206.14 75.5159C205.505 74.9607 200.556 68.6347 199.713 70.2458C201.934 76.4989 206.43 81.8783 209.829 87.5944C209.159 88.714 193.45 81.0409 190.721 82.6065L190.712 82.6156ZM214.552 93.7566L215.912 91.4993C211.416 88.3681 209.666 83.0434 206.358 78.911C206.213 78.4104 207.482 78.2375 207.772 78.2648C208.47 78.3376 216.936 86.9664 218.151 88.2316C219.791 89.9519 220.843 92.0909 222.284 93.6292C223.263 94.685 225.439 95.3677 225.973 96.3325C226.762 97.7615 226.037 99.3271 226.137 100.802C226.191 101.548 227.134 102.24 226.934 103.441C226.436 106.545 218.93 109.603 216.374 110.941L220.879 98.5807C220.562 97.3337 205.569 97.9618 203.04 97.6068C202.115 97.4702 202.061 98.0437 201.871 96.4963C205.95 95.3221 210.11 91.6267 214.552 93.7657V93.7566Z" fill="#1A202F"/>
</g>
<path d="M95.2472 318.406V323H94.0739V312.818H95.2472V316.557H95.3466C95.5256 316.162 95.794 315.849 96.152 315.617C96.5133 315.382 96.9938 315.264 97.5938 315.264C98.1141 315.264 98.5698 315.369 98.9609 315.577C99.352 315.783 99.6553 316.099 99.8707 316.527C100.089 316.951 100.199 317.491 100.199 318.148V323H99.0256V318.227C99.0256 317.621 98.8681 317.152 98.5533 316.82C98.2417 316.486 97.8092 316.318 97.2557 316.318C96.8712 316.318 96.5265 316.399 96.2216 316.562C95.92 316.724 95.6813 316.961 95.5057 317.273C95.3333 317.584 95.2472 317.962 95.2472 318.406ZM104.593 323.179C104.109 323.179 103.669 323.088 103.275 322.906C102.881 322.72 102.567 322.453 102.335 322.105C102.103 321.754 101.987 321.33 101.987 320.832C101.987 320.395 102.074 320.04 102.246 319.768C102.418 319.493 102.649 319.278 102.937 319.122C103.225 318.966 103.544 318.85 103.892 318.774C104.243 318.695 104.596 318.632 104.95 318.585C105.414 318.526 105.791 318.481 106.079 318.451C106.371 318.418 106.583 318.363 106.715 318.287C106.851 318.211 106.919 318.078 106.919 317.889V317.849C106.919 317.359 106.785 316.978 106.517 316.706C106.251 316.434 105.849 316.298 105.308 316.298C104.748 316.298 104.309 316.421 103.991 316.666C103.673 316.911 103.449 317.173 103.32 317.452L102.206 317.054C102.405 316.59 102.67 316.229 103.002 315.97C103.336 315.708 103.701 315.526 104.095 315.423C104.493 315.317 104.884 315.264 105.269 315.264C105.514 315.264 105.796 315.294 106.114 315.354C106.435 315.41 106.745 315.528 107.044 315.707C107.345 315.886 107.595 316.156 107.794 316.517C107.993 316.878 108.093 317.362 108.093 317.969V323H106.919V321.966H106.86C106.78 322.132 106.647 322.309 106.462 322.498C106.276 322.687 106.029 322.848 105.721 322.98C105.413 323.113 105.037 323.179 104.593 323.179ZM104.771 322.125C105.235 322.125 105.627 322.034 105.945 321.852C106.266 321.669 106.508 321.434 106.671 321.146C106.836 320.857 106.919 320.554 106.919 320.236V319.162C106.869 319.222 106.76 319.276 106.591 319.326C106.425 319.372 106.233 319.414 106.014 319.45C105.799 319.483 105.588 319.513 105.383 319.54C105.181 319.563 105.017 319.583 104.891 319.599C104.586 319.639 104.301 319.704 104.036 319.793C103.774 319.879 103.562 320.01 103.399 320.186C103.24 320.358 103.161 320.594 103.161 320.892C103.161 321.3 103.311 321.608 103.613 321.817C103.918 322.022 104.304 322.125 104.771 322.125ZM113.336 323.159C112.62 323.159 112.004 322.99 111.487 322.652C110.97 322.314 110.572 321.848 110.294 321.255C110.015 320.662 109.876 319.984 109.876 319.222C109.876 318.446 110.019 317.762 110.304 317.168C110.592 316.572 110.993 316.106 111.507 315.771C112.024 315.433 112.627 315.264 113.316 315.264C113.853 315.264 114.337 315.364 114.768 315.562C115.199 315.761 115.552 316.04 115.827 316.398C116.102 316.756 116.273 317.173 116.339 317.651H115.166C115.076 317.303 114.877 316.994 114.569 316.726C114.264 316.454 113.853 316.318 113.336 316.318C112.879 316.318 112.478 316.437 112.133 316.676C111.792 316.911 111.525 317.245 111.333 317.675C111.144 318.103 111.049 318.605 111.049 319.182C111.049 319.772 111.142 320.286 111.328 320.723C111.517 321.161 111.782 321.5 112.123 321.742C112.468 321.984 112.872 322.105 113.336 322.105C113.641 322.105 113.918 322.052 114.167 321.946C114.415 321.84 114.626 321.688 114.798 321.489C114.97 321.29 115.093 321.051 115.166 320.773H116.339C116.273 321.223 116.109 321.629 115.847 321.991C115.588 322.349 115.245 322.634 114.818 322.846C114.394 323.055 113.9 323.159 113.336 323.159ZM121.256 323.159C120.52 323.159 119.886 322.997 119.352 322.672C118.822 322.344 118.412 321.886 118.124 321.3C117.839 320.71 117.696 320.024 117.696 319.241C117.696 318.459 117.839 317.77 118.124 317.173C118.412 316.573 118.813 316.106 119.327 315.771C119.844 315.433 120.447 315.264 121.137 315.264C121.534 315.264 121.927 315.33 122.315 315.463C122.703 315.596 123.056 315.811 123.374 316.109C123.692 316.404 123.946 316.795 124.135 317.283C124.324 317.77 124.418 318.37 124.418 319.082V319.58H118.532V318.565H123.225C123.225 318.134 123.139 317.75 122.966 317.412C122.797 317.074 122.555 316.807 122.24 316.612C121.929 316.416 121.561 316.318 121.137 316.318C120.669 316.318 120.265 316.434 119.924 316.666C119.586 316.895 119.325 317.193 119.143 317.561C118.961 317.929 118.87 318.323 118.87 318.744V319.42C118.87 319.997 118.969 320.486 119.168 320.887C119.37 321.285 119.65 321.588 120.008 321.797C120.366 322.002 120.782 322.105 121.256 322.105C121.564 322.105 121.843 322.062 122.091 321.976C122.343 321.886 122.56 321.754 122.743 321.578C122.925 321.399 123.066 321.177 123.165 320.912L124.299 321.23C124.179 321.615 123.979 321.953 123.697 322.244C123.415 322.533 123.067 322.758 122.653 322.92C122.239 323.08 121.773 323.159 121.256 323.159ZM131.612 317.074L130.558 317.372C130.492 317.196 130.394 317.026 130.265 316.86C130.139 316.691 129.966 316.552 129.748 316.442C129.529 316.333 129.249 316.278 128.907 316.278C128.44 316.278 128.051 316.386 127.739 316.602C127.431 316.814 127.277 317.084 127.277 317.412C127.277 317.704 127.383 317.934 127.595 318.103C127.807 318.272 128.138 318.413 128.589 318.526L129.723 318.804C130.405 318.97 130.914 319.223 131.249 319.565C131.584 319.903 131.751 320.339 131.751 320.872C131.751 321.31 131.625 321.701 131.373 322.045C131.125 322.39 130.777 322.662 130.329 322.861C129.882 323.06 129.361 323.159 128.768 323.159C127.989 323.159 127.345 322.99 126.834 322.652C126.324 322.314 126.001 321.82 125.865 321.17L126.978 320.892C127.084 321.303 127.285 321.611 127.58 321.817C127.878 322.022 128.268 322.125 128.748 322.125C129.295 322.125 129.729 322.009 130.051 321.777C130.376 321.542 130.538 321.26 130.538 320.932C130.538 320.667 130.445 320.445 130.26 320.266C130.074 320.083 129.789 319.947 129.404 319.858L128.132 319.56C127.432 319.394 126.919 319.137 126.591 318.789C126.266 318.438 126.103 317.999 126.103 317.472C126.103 317.041 126.224 316.66 126.466 316.328C126.712 315.997 127.045 315.737 127.466 315.548C127.89 315.359 128.37 315.264 128.907 315.264C129.663 315.264 130.256 315.43 130.687 315.761C131.121 316.093 131.43 316.53 131.612 317.074ZM97.1761 340.159C96.4602 340.159 95.8438 339.99 95.3267 339.652C94.8097 339.314 94.4119 338.848 94.1335 338.255C93.8551 337.662 93.7159 336.984 93.7159 336.222C93.7159 335.446 93.8584 334.762 94.1435 334.168C94.4318 333.572 94.8329 333.106 95.3466 332.771C95.8636 332.433 96.4669 332.264 97.1562 332.264C97.6932 332.264 98.1771 332.364 98.608 332.562C99.0388 332.761 99.3918 333.04 99.6669 333.398C99.942 333.756 100.113 334.173 100.179 334.651H99.0057C98.9162 334.303 98.7173 333.994 98.4091 333.726C98.1042 333.454 97.6932 333.318 97.1761 333.318C96.7188 333.318 96.3177 333.437 95.973 333.676C95.6316 333.911 95.3648 334.245 95.1726 334.675C94.9837 335.103 94.8892 335.605 94.8892 336.182C94.8892 336.772 94.982 337.286 95.1676 337.723C95.3565 338.161 95.6217 338.5 95.9631 338.742C96.3078 338.984 96.7121 339.105 97.1761 339.105C97.4811 339.105 97.7578 339.052 98.0064 338.946C98.255 338.84 98.4654 338.688 98.6378 338.489C98.8101 338.29 98.9328 338.051 99.0057 337.773H100.179C100.113 338.223 99.9486 338.629 99.6868 338.991C99.4283 339.349 99.0852 339.634 98.6577 339.846C98.2334 340.055 97.7396 340.159 97.1761 340.159ZM104.996 340.159C104.307 340.159 103.702 339.995 103.182 339.667C102.665 339.339 102.26 338.88 101.969 338.29C101.68 337.7 101.536 337.01 101.536 336.222C101.536 335.426 101.68 334.732 101.969 334.138C102.26 333.545 102.665 333.085 103.182 332.756C103.702 332.428 104.307 332.264 104.996 332.264C105.686 332.264 106.289 332.428 106.806 332.756C107.326 333.085 107.731 333.545 108.019 334.138C108.311 334.732 108.457 335.426 108.457 336.222C108.457 337.01 108.311 337.7 108.019 338.29C107.731 338.88 107.326 339.339 106.806 339.667C106.289 339.995 105.686 340.159 104.996 340.159ZM104.996 339.105C105.52 339.105 105.951 338.971 106.289 338.702C106.627 338.434 106.877 338.081 107.04 337.643C107.202 337.206 107.283 336.732 107.283 336.222C107.283 335.711 107.202 335.236 107.04 334.795C106.877 334.354 106.627 333.998 106.289 333.726C105.951 333.454 105.52 333.318 104.996 333.318C104.473 333.318 104.042 333.454 103.704 333.726C103.366 333.998 103.116 334.354 102.953 334.795C102.791 335.236 102.71 335.711 102.71 336.222C102.71 336.732 102.791 337.206 102.953 337.643C103.116 338.081 103.366 338.434 103.704 338.702C104.042 338.971 104.473 339.105 104.996 339.105ZM111.421 335.406V340H110.248V332.364H111.381V333.557H111.481C111.66 333.169 111.931 332.857 112.296 332.622C112.661 332.384 113.131 332.264 113.708 332.264C114.225 332.264 114.677 332.37 115.065 332.582C115.453 332.791 115.755 333.109 115.97 333.537C116.185 333.961 116.293 334.498 116.293 335.148V340H115.12V335.227C115.12 334.627 114.964 334.16 114.653 333.825C114.341 333.487 113.913 333.318 113.37 333.318C112.995 333.318 112.661 333.399 112.366 333.562C112.074 333.724 111.844 333.961 111.675 334.273C111.506 334.584 111.421 334.962 111.421 335.406ZM125.576 340.159C124.841 340.159 124.206 339.997 123.672 339.672C123.142 339.344 122.733 338.886 122.444 338.3C122.159 337.71 122.017 337.024 122.017 336.241C122.017 335.459 122.159 334.77 122.444 334.173C122.733 333.573 123.134 333.106 123.647 332.771C124.164 332.433 124.768 332.264 125.457 332.264C125.855 332.264 126.248 332.33 126.635 332.463C127.023 332.596 127.376 332.811 127.694 333.109C128.012 333.404 128.266 333.795 128.455 334.283C128.644 334.77 128.738 335.37 128.738 336.082V336.58H122.852V335.565H127.545C127.545 335.134 127.459 334.75 127.287 334.412C127.118 334.074 126.876 333.807 126.561 333.612C126.249 333.416 125.881 333.318 125.457 333.318C124.99 333.318 124.585 333.434 124.244 333.666C123.906 333.895 123.646 334.193 123.463 334.561C123.281 334.929 123.19 335.323 123.19 335.744V336.42C123.19 336.997 123.289 337.486 123.488 337.887C123.69 338.285 123.971 338.588 124.328 338.797C124.686 339.002 125.102 339.105 125.576 339.105C125.885 339.105 126.163 339.062 126.412 338.976C126.663 338.886 126.881 338.754 127.063 338.578C127.245 338.399 127.386 338.177 127.485 337.912L128.619 338.23C128.5 338.615 128.299 338.953 128.017 339.244C127.736 339.533 127.388 339.758 126.973 339.92C126.559 340.08 126.093 340.159 125.576 340.159ZM131.696 329.818V340H130.523V329.818H131.696ZM137.783 340V332.364H138.916V333.557H139.016C139.175 333.149 139.432 332.833 139.786 332.607C140.141 332.379 140.567 332.264 141.064 332.264C141.568 332.264 141.987 332.379 142.322 332.607C142.66 332.833 142.923 333.149 143.112 333.557H143.192C143.387 333.162 143.681 332.849 144.072 332.617C144.463 332.382 144.932 332.264 145.479 332.264C146.162 332.264 146.72 332.478 147.154 332.906C147.588 333.33 147.806 333.991 147.806 334.889V340H146.632V334.889C146.632 334.326 146.478 333.923 146.17 333.681C145.862 333.439 145.499 333.318 145.081 333.318C144.544 333.318 144.128 333.481 143.833 333.805C143.538 334.127 143.391 334.535 143.391 335.028V340H142.198V334.77C142.198 334.336 142.057 333.986 141.775 333.721C141.493 333.452 141.13 333.318 140.686 333.318C140.381 333.318 140.096 333.399 139.831 333.562C139.569 333.724 139.357 333.95 139.195 334.238C139.036 334.523 138.956 334.853 138.956 335.227V340H137.783ZM153.053 340.159C152.364 340.159 151.759 339.995 151.238 339.667C150.721 339.339 150.317 338.88 150.025 338.29C149.737 337.7 149.593 337.01 149.593 336.222C149.593 335.426 149.737 334.732 150.025 334.138C150.317 333.545 150.721 333.085 151.238 332.756C151.759 332.428 152.364 332.264 153.053 332.264C153.742 332.264 154.346 332.428 154.863 332.756C155.383 333.085 155.787 333.545 156.076 334.138C156.367 334.732 156.513 335.426 156.513 336.222C156.513 337.01 156.367 337.7 156.076 338.29C155.787 338.88 155.383 339.339 154.863 339.667C154.346 339.995 153.742 340.159 153.053 340.159ZM153.053 339.105C153.577 339.105 154.008 338.971 154.346 338.702C154.684 338.434 154.934 338.081 155.096 337.643C155.259 337.206 155.34 336.732 155.34 336.222C155.34 335.711 155.259 335.236 155.096 334.795C154.934 334.354 154.684 333.998 154.346 333.726C154.008 333.454 153.577 333.318 153.053 333.318C152.529 333.318 152.099 333.454 151.76 333.726C151.422 333.998 151.172 334.354 151.01 334.795C150.847 335.236 150.766 335.711 150.766 336.222C150.766 336.732 150.847 337.206 151.01 337.643C151.172 338.081 151.422 338.434 151.76 338.702C152.099 338.971 152.529 339.105 153.053 339.105ZM152.516 331.33L153.729 329.023H155.101L153.55 331.33H152.516ZM164.275 332.364L161.451 340H160.258L157.434 332.364H158.707L160.815 338.449H160.895L163.002 332.364H164.275ZM165.824 340V332.364H166.997V340H165.824ZM166.42 331.091C166.192 331.091 165.995 331.013 165.829 330.857C165.666 330.701 165.585 330.514 165.585 330.295C165.585 330.077 165.666 329.889 165.829 329.734C165.995 329.578 166.192 329.5 166.42 329.5C166.649 329.5 166.845 329.578 167.007 329.734C167.173 329.889 167.256 330.077 167.256 330.295C167.256 330.514 167.173 330.701 167.007 330.857C166.845 331.013 166.649 331.091 166.42 331.091ZM170.319 329.818V340H169.146V329.818H170.319ZM174 337.136V337.077C174.006 336.444 174.073 335.94 174.199 335.565C174.324 335.191 174.503 334.888 174.735 334.656C174.967 334.424 175.246 334.21 175.571 334.014C175.766 333.895 175.942 333.754 176.098 333.592C176.253 333.426 176.376 333.235 176.466 333.02C176.558 332.804 176.605 332.566 176.605 332.304C176.605 331.979 176.529 331.697 176.376 331.459C176.224 331.22 176.02 331.036 175.765 330.907C175.509 330.778 175.226 330.713 174.914 330.713C174.643 330.713 174.381 330.769 174.129 330.882C173.877 330.995 173.667 331.172 173.498 331.414C173.328 331.656 173.231 331.973 173.204 332.364H171.951C171.978 331.8 172.124 331.318 172.389 330.917C172.657 330.516 173.01 330.209 173.448 329.997C173.889 329.785 174.377 329.679 174.914 329.679C175.498 329.679 176.005 329.795 176.436 330.027C176.87 330.259 177.205 330.577 177.44 330.982C177.679 331.386 177.798 331.847 177.798 332.364C177.798 332.728 177.742 333.058 177.629 333.353C177.52 333.648 177.36 333.911 177.152 334.143C176.946 334.375 176.698 334.581 176.406 334.76C176.114 334.942 175.881 335.134 175.705 335.337C175.529 335.536 175.402 335.772 175.322 336.048C175.243 336.323 175.199 336.666 175.193 337.077V337.136H174ZM174.636 340.08C174.391 340.08 174.18 339.992 174.005 339.816C173.829 339.64 173.741 339.43 173.741 339.185C173.741 338.939 173.829 338.729 174.005 338.553C174.18 338.378 174.391 338.29 174.636 338.29C174.881 338.29 175.092 338.378 175.267 338.553C175.443 338.729 175.531 338.939 175.531 339.185C175.531 339.347 175.489 339.496 175.407 339.632C175.327 339.768 175.219 339.877 175.083 339.96C174.951 340.04 174.802 340.08 174.636 340.08Z" fill="#1B202D"/>
<path d="M141.004 323.139C140.239 323.139 139.558 323.015 138.961 322.766C138.368 322.514 137.902 322.171 137.564 321.737C137.226 321.303 137.057 320.811 137.057 320.261C137.057 319.836 137.153 319.447 137.345 319.092C137.541 318.734 137.806 318.438 138.141 318.202C138.476 317.964 138.85 317.811 139.264 317.745V317.675C138.721 317.566 138.28 317.303 137.942 316.885C137.604 316.464 137.435 315.975 137.435 315.418C137.435 314.891 137.589 314.422 137.897 314.011C138.205 313.597 138.628 313.272 139.165 313.037C139.705 312.798 140.318 312.679 141.004 312.679C141.691 312.679 142.302 312.798 142.839 313.037C143.379 313.276 143.803 313.602 144.112 314.016C144.42 314.427 144.576 314.895 144.579 315.418C144.576 315.978 144.403 316.467 144.062 316.885C143.721 317.303 143.283 317.566 142.749 317.675V317.745C143.157 317.811 143.527 317.964 143.858 318.202C144.193 318.438 144.458 318.734 144.654 319.092C144.852 319.447 144.954 319.836 144.957 320.261C144.954 320.811 144.783 321.303 144.445 321.737C144.107 322.171 143.639 322.514 143.043 322.766C142.45 323.015 141.77 323.139 141.004 323.139ZM141.004 321.558C141.346 321.558 141.644 321.497 141.899 321.374C142.155 321.248 142.353 321.076 142.496 320.857C142.642 320.635 142.715 320.38 142.715 320.092C142.715 319.797 142.64 319.536 142.491 319.311C142.342 319.082 142.14 318.903 141.884 318.774C141.629 318.642 141.336 318.575 141.004 318.575C140.676 318.575 140.383 318.642 140.124 318.774C139.866 318.903 139.662 319.082 139.513 319.311C139.367 319.536 139.294 319.797 139.294 320.092C139.294 320.38 139.365 320.635 139.508 320.857C139.651 321.076 139.851 321.248 140.11 321.374C140.368 321.497 140.666 321.558 141.004 321.558ZM141.004 317.009C141.289 317.009 141.543 316.951 141.765 316.835C141.987 316.719 142.161 316.558 142.287 316.353C142.413 316.147 142.476 315.911 142.476 315.642C142.476 315.377 142.413 315.145 142.287 314.946C142.161 314.744 141.989 314.586 141.77 314.474C141.551 314.358 141.296 314.3 141.004 314.3C140.716 314.3 140.461 314.358 140.239 314.474C140.017 314.586 139.843 314.744 139.717 314.946C139.594 315.145 139.533 315.377 139.533 315.642C139.533 315.911 139.596 316.147 139.722 316.353C139.848 316.558 140.022 316.719 140.244 316.835C140.466 316.951 140.719 317.009 141.004 317.009ZM151.84 318.585V323H149.722V312.818H151.78V316.711H151.87C152.042 316.26 152.321 315.907 152.705 315.652C153.09 315.393 153.572 315.264 154.152 315.264C154.682 315.264 155.144 315.38 155.539 315.612C155.937 315.841 156.245 316.171 156.464 316.602C156.686 317.029 156.795 317.541 156.792 318.138V323H154.674V318.516C154.677 318.045 154.558 317.679 154.316 317.417C154.077 317.155 153.742 317.024 153.312 317.024C153.023 317.024 152.768 317.085 152.546 317.208C152.327 317.331 152.155 317.51 152.029 317.745C151.906 317.977 151.843 318.257 151.84 318.585ZM161.909 323.149C161.136 323.149 160.469 322.985 159.905 322.657C159.345 322.326 158.913 321.865 158.608 321.275C158.303 320.682 158.15 319.994 158.15 319.212C158.15 318.423 158.303 317.733 158.608 317.143C158.913 316.55 159.345 316.089 159.905 315.761C160.469 315.43 161.136 315.264 161.909 315.264C162.681 315.264 163.347 315.43 163.907 315.761C164.471 316.089 164.905 316.55 165.21 317.143C165.515 317.733 165.667 318.423 165.667 319.212C165.667 319.994 165.515 320.682 165.21 321.275C164.905 321.865 164.471 322.326 163.907 322.657C163.347 322.985 162.681 323.149 161.909 323.149ZM161.919 321.509C162.27 321.509 162.563 321.409 162.799 321.21C163.034 321.008 163.211 320.733 163.331 320.385C163.453 320.037 163.515 319.641 163.515 319.197C163.515 318.753 163.453 318.357 163.331 318.009C163.211 317.661 163.034 317.385 162.799 317.183C162.563 316.981 162.27 316.88 161.919 316.88C161.564 316.88 161.266 316.981 161.024 317.183C160.785 317.385 160.605 317.661 160.482 318.009C160.363 318.357 160.303 318.753 160.303 319.197C160.303 319.641 160.363 320.037 160.482 320.385C160.605 320.733 160.785 321.008 161.024 321.21C161.266 321.409 161.564 321.509 161.919 321.509ZM167.044 323V315.364H169.098V316.696H169.177C169.316 316.222 169.55 315.864 169.878 315.622C170.206 315.377 170.584 315.254 171.012 315.254C171.118 315.254 171.232 315.261 171.355 315.274C171.477 315.287 171.585 315.306 171.678 315.329V317.208C171.578 317.178 171.441 317.152 171.265 317.129C171.09 317.105 170.929 317.094 170.783 317.094C170.471 317.094 170.193 317.162 169.948 317.298C169.706 317.43 169.514 317.616 169.371 317.854C169.232 318.093 169.162 318.368 169.162 318.68V323H167.044ZM174.732 323.144C174.244 323.144 173.81 323.06 173.429 322.891C173.048 322.718 172.746 322.465 172.524 322.13C172.306 321.792 172.196 321.371 172.196 320.867C172.196 320.443 172.274 320.087 172.43 319.798C172.586 319.51 172.798 319.278 173.066 319.102C173.335 318.927 173.64 318.794 173.981 318.705C174.326 318.615 174.687 318.552 175.065 318.516C175.509 318.469 175.867 318.426 176.139 318.386C176.41 318.343 176.608 318.28 176.73 318.197C176.853 318.115 176.914 317.992 176.914 317.83V317.8C176.914 317.485 176.815 317.241 176.616 317.069C176.42 316.897 176.142 316.81 175.781 316.81C175.4 316.81 175.096 316.895 174.871 317.064C174.646 317.23 174.496 317.438 174.423 317.69L172.465 317.531C172.564 317.067 172.76 316.666 173.051 316.328C173.343 315.987 173.719 315.725 174.18 315.543C174.644 315.357 175.181 315.264 175.791 315.264C176.215 315.264 176.621 315.314 177.009 315.413C177.4 315.513 177.746 315.667 178.048 315.876C178.353 316.085 178.593 316.353 178.769 316.681C178.944 317.006 179.032 317.395 179.032 317.849V323H177.024V321.941H176.964C176.841 322.18 176.677 322.39 176.472 322.572C176.266 322.751 176.019 322.892 175.731 322.995C175.443 323.094 175.11 323.144 174.732 323.144ZM175.338 321.683C175.65 321.683 175.925 321.621 176.164 321.499C176.402 321.373 176.589 321.204 176.725 320.991C176.861 320.779 176.929 320.539 176.929 320.271V319.46C176.863 319.503 176.772 319.543 176.656 319.58C176.543 319.613 176.415 319.644 176.273 319.674C176.13 319.701 175.988 319.725 175.845 319.749C175.703 319.768 175.574 319.787 175.458 319.803C175.209 319.84 174.992 319.898 174.806 319.977C174.621 320.057 174.477 320.165 174.374 320.3C174.271 320.433 174.22 320.599 174.22 320.798C174.22 321.086 174.324 321.306 174.533 321.459C174.745 321.608 175.013 321.683 175.338 321.683ZM187.029 317.541L185.09 317.661C185.057 317.495 184.986 317.346 184.876 317.213C184.767 317.077 184.623 316.969 184.444 316.89C184.268 316.807 184.058 316.766 183.812 316.766C183.484 316.766 183.207 316.835 182.982 316.974C182.757 317.11 182.644 317.293 182.644 317.521C182.644 317.704 182.717 317.858 182.863 317.984C183.009 318.11 183.259 318.211 183.613 318.287L184.996 318.565C185.738 318.718 186.291 318.963 186.656 319.301C187.021 319.639 187.203 320.083 187.203 320.634C187.203 321.134 187.055 321.573 186.76 321.951C186.469 322.329 186.068 322.624 185.557 322.836C185.05 323.045 184.465 323.149 183.802 323.149C182.791 323.149 181.986 322.939 181.386 322.518C180.79 322.094 180.44 321.517 180.337 320.788L182.42 320.678C182.483 320.987 182.636 321.222 182.878 321.384C183.12 321.543 183.43 321.623 183.807 321.623C184.179 321.623 184.477 321.552 184.702 321.409C184.931 321.263 185.047 321.076 185.05 320.847C185.047 320.655 184.966 320.498 184.807 320.375C184.648 320.249 184.402 320.153 184.071 320.087L182.748 319.823C182.003 319.674 181.448 319.415 181.083 319.048C180.722 318.68 180.541 318.211 180.541 317.641C180.541 317.15 180.674 316.728 180.939 316.373C181.207 316.018 181.583 315.745 182.067 315.553C182.555 315.36 183.125 315.264 183.778 315.264C184.742 315.264 185.501 315.468 186.055 315.876C186.611 316.283 186.936 316.839 187.029 317.541Z" fill="#C84130"/>
</g>
<defs>
<clipPath id="clip0_16_288">
<rect width="321" height="407" fill="white" transform="translate(9)"/>
</clipPath>
<clipPath id="clip1_16_288">
<rect width="130" height="96" fill="white" transform="translate(93 213)"/>
</clipPath>
<clipPath id="clip2_16_288">
<rect width="94" height="177" fill="white" transform="matrix(-1 0 0 1 245 70)"/>
</clipPath>
</defs>
</svg>
