<svg width="321" height="407" viewBox="0 0 321 407" fill="none" xmlns="http://www.w3.org/2000/svg">
<g clip-path="url(#clip0_14_381)">
<rect x="-9" y="5" width="342" height="419" fill="white"/>
<path d="M8.45954 18.3345C8.06563 25.6984 5.30206 32.9185 0.71277 38.682C-0.775309 40.5511 0.181313 43.3579 2.52598 43.8017C10.0414 45.2207 18.2008 43.2016 25.9101 41.7451C67.1386 33.9436 109.411 43.5954 151.328 45.4458C155.379 45.627 159.456 45.7333 163.445 46.4959C168.478 47.4586 173.336 49.459 178.457 49.6465C185.385 49.9028 191.931 46.8335 198.49 44.5768C228.433 34.2624 261.214 40.4386 292.852 39.0883C296.44 38.9321 300.423 38.5007 302.805 35.8127C303.781 34.7125 304.381 33.3373 304.906 31.9683C306.651 27.4174 307.732 22.6166 308.12 17.7594C308.289 15.6653 306.932 13.7462 304.894 13.2086C291.682 9.74543 278.477 6.27604 265.266 2.8129C260.095 1.45015 254.862 0.0874025 249.516 -0.000113592C243.851 -0.0876297 238.28 1.26887 232.666 2.02526C223.906 3.20673 198.19 15.6278 161.913 10.9707C84.0327 0.975066 31.0371 13.3023 11.3857 15.2902C9.79756 15.4527 8.54707 16.7405 8.45954 18.3345Z" fill="#0093A2"/>
<path d="M301.336 14.5402C301.592 17.6783 301.874 20.8726 302.236 23.8857C303.368 33.3499 305.9 42.4891 307.413 51.9033C307.976 55.3915 308.082 59.0046 308.714 62.4928C311.859 79.8835 311.434 97.593 310.102 115.221C310.483 126.117 310.146 136.806 310.846 147.721C311.421 156.76 312.209 165.868 313.028 174.895C313.366 178.62 314.873 183.19 315.417 187.066C315.829 190.023 315.904 193.029 316.186 196.005C316.886 203.537 316.68 211.189 316.68 218.828C316.68 225.685 317.586 232.562 317.893 239.432C318.168 245.614 317.574 252.221 318.13 258.366C318.255 259.76 318.88 261.129 319.068 262.523C319.343 264.536 319.212 267.824 319.437 269.718C320.675 280.37 321.463 334.512 320.562 342.707C320.369 344.457 321.238 347.695 320.95 349.746C320.068 355.984 322.701 396.085 313.372 404.093C311.959 405.306 313.597 406.562 310.859 406.919C309.689 407.069 307.057 407.013 305.85 406.875C294.602 405.618 283.373 404.687 272.062 403.774C253.68 402.293 235.079 400.599 216.478 400.399C207.206 400.299 198.096 399.667 188.792 399.649C177.857 399.624 167.215 399.405 156.28 398.442C145.463 397.486 136.403 398.43 125.693 399.174C123.192 399.349 120.597 398.967 118.177 399.174C114.245 399.517 110.299 400.255 106.291 400.393C101.633 400.555 97.2567 399.599 92.6861 399.417C75.1793 398.717 59.0605 400.418 41.7225 401.843C36.9644 402.237 32.694 401.912 27.8734 401.843C21.5897 401.762 15.2997 402.868 9.01604 401.768C8.10943 401.612 7.17157 401.505 6.28372 401.343C4.10162 400.943 5.17079 395.729 5.1958 394.198C5.40213 380.358 -0.894072 301.18 0.425192 271.494C0.462707 270.694 1.0942 263.042 1.15047 262.242C1.58189 255.753 1.87576 249.252 2.3697 242.839C2.96993 235.068 4.48927 227.667 5.27708 220.022C5.82104 214.715 6.06489 209.857 6.7339 204.494C7.40291 199.13 7.32163 193.079 7.45293 187.522C7.58423 181.909 7.99689 176.139 7.71553 170.513C7.53421 166.862 6.67763 163.236 6.24621 159.604C5.32085 151.797 5.09576 142.276 5.26458 134.356C5.28333 133.431 5.91483 133.15 4.77689 132.649C5.077 131.793 5.42714 130.912 5.52093 129.999C6.50256 120.453 6.12116 110.689 6.27747 101.15C6.47755 88.8601 7.44668 76.5204 5.74601 64.2681C5.54594 62.8178 4.78939 61.1675 4.57056 59.861C3.95782 56.1604 4.08287 51.4845 3.5264 47.5588C3.32007 46.1085 2.65731 44.4207 2.71984 42.9954C4.89568 42.6641 7.02151 42.114 9.17235 41.6764C12.3298 41.0388 14.9558 40.4637 18.2759 40.3387C25.8038 40.0574 33.3693 41.0201 40.8472 40.5825C46.018 40.2762 51.989 39.5386 57.0785 40.1199C61.9679 40.6825 66.9511 42.2578 71.903 42.2891C80.8503 42.3453 90.2789 41.5202 99.3325 41.3514C106.879 41.2076 113.701 41.789 121.178 42.0265C133.49 42.4203 145.701 40.4575 158.062 41.3014C164.37 41.7327 172.036 43.4518 178.207 42.7516C186.954 41.7515 195.883 40.0386 204.667 40.0636C224.944 40.1262 245.308 40.1637 265.585 39.8386C266.56 39.8261 271.593 38.9947 271.018 41.3701C270.73 42.5516 268.992 41.8015 268.254 41.7827C264.272 41.6889 260.02 42.4828 256.112 42.2766C250.86 41.9953 246.096 42.4203 240.819 42.2766C220.736 41.7452 200.303 41.4952 180.427 44.2332C170.466 45.6084 161.444 43.2767 151.515 42.9892C141.574 42.7016 131.614 44.6457 121.654 44.2144C117.002 44.0081 111.418 43.0579 106.854 42.9954C101.133 42.9142 94.4806 43.5768 88.6596 43.7331C81.0753 43.9394 72.8284 44.7333 65.3755 43.6956C62.6244 43.3142 59.3606 42.2703 56.6096 42.0265C50.726 41.5014 45.3614 42.5579 39.6342 42.7579C29.4552 43.1205 18.8011 40.8138 8.86598 43.7893L5.55844 44.2394C5.2083 44.452 5.25207 46.7086 5.27083 47.2462C5.50842 53.2973 7.05277 58.4295 7.87809 64.2931C10.4729 82.609 9.00353 103.832 8.17821 122.448C7.70303 133.175 6.95273 144.983 7.70928 155.697C8.0219 160.155 9.40369 164.843 9.66004 169.281C10.2478 179.646 9.61627 192.154 8.92225 202.531C8.72843 205.413 7.69052 208.188 7.47169 211.026C7.34038 212.764 7.59674 214.64 7.47794 216.371C6.89646 224.779 5.38963 233.193 4.5518 241.595C3.31382 254.041 2.91366 267.456 2.13836 279.945C1.68818 287.178 7.02151 385.99 6.88396 394.879C6.85895 396.398 6.92772 397.873 7.14031 399.374C10.2978 399.58 13.7741 400.599 16.9379 400.318C20.7081 399.98 24.0907 399.524 27.8921 399.617C33.7944 399.761 38.9464 400.13 44.88 399.617C57.3536 398.542 69.9022 396.936 82.5009 396.954C92.5298 396.967 102.309 398.573 112.356 397.923C122.504 397.261 132.777 395.792 142.949 395.729C154.404 395.66 165.321 397.229 176.663 397.692C183.459 397.967 190.33 397.442 197.058 397.423C202.804 397.411 208.231 398.173 214.04 398.155C232.047 398.098 249.76 400.268 267.698 401.086C280.591 401.674 293.546 403.931 306.526 404.712C307.995 404.8 309.508 404.693 310.977 404.675C311.665 403.149 312.29 401.599 313.109 400.136C314.047 398.461 315.392 396.917 316.242 395.26C319.281 389.309 318.956 342.501 319.137 335.893C319.406 326.373 318.962 279.301 316.936 262.698C316.723 260.961 316.079 259.035 315.954 257.122C315.748 253.909 316.011 250.421 315.961 247.164C315.861 240.369 315.373 233.624 314.96 226.786C314.172 213.658 315.204 200.931 313.485 187.76C312.909 183.371 311.615 178.964 311.096 174.62C310.246 167.5 309.639 159.679 309.152 152.541C307.939 134.9 308.039 117.328 308.664 99.6246C309.446 77.6331 306.638 58.8546 302.412 37.4632C300.83 29.4679 299.517 21.579 299.185 13.515C299.142 12.4898 298.104 10.8145 298.948 9.60804C299.348 9.20171 301.042 8.70162 300.711 9.42675C300.536 9.80807 301.349 14.4964 301.349 14.4964L301.336 14.5402ZM186.96 7.62017C171.304 9.32048 154.885 12.9149 139.16 12.2898C136.053 12.1648 133.439 11.7522 130.382 11.4709C114.701 10.0519 98.9948 9.32674 83.3075 9.03293C74.8417 8.87665 66.2696 9.93935 57.8225 10.2644C47.7749 10.652 37.7397 9.50802 27.7046 9.76432C21.9398 9.91434 16.1313 12.7336 10.4228 14.0776C9.74132 14.2401 9.02229 14.1214 8.22198 14.3027C6.30248 14.7465 5.35211 15.5404 6.84019 17.2845C8.1532 14.8778 10.6042 15.7342 12.8488 15.2903C19.4451 13.9776 24.0656 11.1646 31.3497 11.7147C35.2888 12.0085 38.4775 11.7584 42.2852 11.946C56.8597 12.6523 71.1715 11.2458 85.6771 11.3209C100.796 11.4021 115.833 12.246 130.857 13.6588C139.842 14.5027 145.844 14.5277 154.892 13.6588C169.372 12.2648 183.809 9.84558 198.334 8.56409C228.208 5.91986 258.257 6.45746 288.143 6.36994C291.801 6.35744 296.078 6.1324 299.679 6.72626C299.873 6.75751 303.481 8.14527 302.705 6.61999C302.38 5.98862 300.342 4.29456 299.554 4.18829C297.416 3.89448 294.821 4.45084 292.758 4.45084C282.247 4.46334 271.737 4.00075 261.264 4.02576C236.561 4.08827 211.501 4.95718 186.954 7.62642L186.96 7.62017ZM53.4083 33.5187C53.821 33.3874 54.0273 32.306 54.1711 31.8559C55.3153 28.2302 55.6342 25.8485 54.4087 22.1478C54.2587 21.6978 52.9832 19.1598 52.7331 18.9723C51.4576 18.0471 45.549 19.3411 43.7296 19.4724C42.0414 19.5974 37.3771 19.9724 35.9765 19.7036C35.4451 19.6036 34.9636 18.941 34.5447 19.0223C34.3196 19.066 33.7069 19.6661 33.0754 20.0662C32.4814 20.4413 32.1375 21.1039 32.2126 21.7978L32.9941 28.7428C33.5256 31.6433 33.932 33.7375 37.2395 34.2063C38.2962 34.3563 40.2094 34.4939 41.2911 34.5251C43.7671 34.5876 46.268 34.3126 48.7065 34.025L48.4627 33.5437C50.1821 33.975 51.6827 33.6187 53.4083 33.5124V33.5187ZM43.4169 21.5852C45.2989 21.429 50.1946 20.1037 51.6139 21.0664C52.4392 21.629 53.3145 26.0736 53.3208 27.1238C53.3208 27.7426 52.5643 31.5246 52.2391 31.8621C51.6514 32.4685 50.8511 31.7684 50.2321 31.6684C48.6127 31.4058 47.4873 32.4435 45.9367 32.5935C43.9609 32.7873 40.0094 32.6685 37.9961 32.4497C35.3513 32.1622 36.8331 30.1368 36.5205 28.6303C36.4705 28.3865 35.6952 26.2861 35.5514 25.9423C35.4013 25.5735 34.9136 25.6047 34.8573 25.3672C34.7323 24.8546 35.17 24.242 35.0699 23.7731C34.9949 23.4356 34.476 23.123 34.4697 22.748C34.4697 22.4229 35.1074 21.7353 34.8761 21.1727C34.8761 21.1727 42.1852 21.6853 43.4169 21.579V21.5852ZM28.3673 18.5284C27.8859 18.3909 27.3857 18.666 27.2419 19.141C27.1106 19.5661 26.6917 19.8412 26.2477 19.7787C25.2036 19.6286 24.0656 19.8912 23.1153 19.7162C22.4775 19.5974 21.9648 18.8972 21.1458 18.7722C19.2263 18.4784 18.2884 19.2348 16.7753 19.4724C16.025 19.5911 15.2372 19.3473 14.4682 19.5974C14.0805 19.7224 11.8421 21.1664 11.8234 21.5415C11.8046 21.9166 12.2485 22.7855 12.3048 23.4793C12.4299 24.9296 11.6233 29.0429 11.7796 30.7619C11.8109 31.112 12.0297 31.4246 12.3611 31.5496C16.6815 33.2186 21.6397 34.0625 26.2603 33.8125C26.8167 33.7812 29.549 33.5499 29.7679 33.4374C31.0058 32.8373 29.8366 29.7868 29.7679 28.8303C29.6178 26.805 29.8241 24.567 29.7804 22.5104C29.7679 21.854 29.449 21.2289 29.5053 20.5788C29.524 20.3788 29.5865 20.2162 29.6678 20.06C29.9304 19.5411 29.6678 18.9098 29.1051 18.7535L28.3548 18.5409L28.3673 18.5284ZM21.8523 22.2729C22.0211 22.3416 22.2087 22.3604 22.3837 22.3229L26.5854 21.4415C27.1168 21.3289 27.6295 21.704 27.6858 22.2416C27.8296 23.5356 27.617 25.6985 27.5608 26.3611C27.5045 27.0237 27.0668 27.9614 27.1106 28.5678C27.1606 29.2116 28.0172 29.9368 27.9171 30.8244C27.8734 31.1995 27.5858 31.4996 27.2169 31.5871C26.7667 31.6996 26.1477 31.7809 25.9414 31.7871C23.8093 31.8621 20.9332 31.6996 18.7886 31.3058C18.2071 31.1995 14.1868 30.1868 13.993 30.0368C13.374 29.568 14.143 27.4051 14.2368 26.6299C14.3306 25.8548 14.143 25.0046 14.2556 24.2232C14.2993 23.9294 14.5494 23.6169 14.6807 23.2668C14.812 22.9167 15.1434 22.6854 15.5186 22.6729C17.7257 22.6042 19.6202 21.3977 21.8523 22.2666V22.2729ZM74.429 32.7185C75.5732 31.4871 76.1109 32.6935 77.2051 32.581C77.7678 32.5248 79.0621 31.8871 79.7186 31.6746C80.5501 31.4058 81.9569 31.6308 82.1633 30.2181C82.207 29.9118 81.0753 25.9423 80.8628 25.3047C80.5564 24.3983 78.7369 19.8349 78.218 19.4599C77.4239 18.8847 74.1539 19.5599 72.8471 19.4849C71.8155 19.4286 70.7338 19.0285 69.7084 18.9785C68.2641 18.9098 59.7983 18.8535 59.2544 19.7036C59.1168 20.7788 58.9105 21.9041 58.9167 22.9792C58.9292 24.8671 59.1668 27.8739 59.3794 29.7868C59.4919 30.7682 59.9484 31.5808 60.9675 30.8807C62.0117 29.8305 60.6924 22.7167 61.0801 20.9289C64.1062 20.9351 67.1637 20.7976 70.1899 20.9226C71.4716 20.9726 73.0222 21.3727 74.304 21.4352C75.2418 21.479 76.3985 20.8539 77.0926 21.5415C77.4552 21.8978 78.8995 25.8173 79.1058 26.5612C79.3622 27.4801 79.4372 28.4428 79.7186 29.3554L79.531 29.7805C75.7358 31.0057 72.0281 31.9747 68.0078 32.0997C66.8323 32.1372 61.9054 31.6871 61.4177 32.0622C61.0175 32.381 60.9363 33.1124 61.1926 33.5437C61.7491 34.4689 65.2004 33.7125 66.2946 34.2688C67.8264 33.5499 73.5224 34.1813 74.3727 33.2561C74.4165 33.2124 74.2039 32.9373 74.4165 32.706L74.429 32.7185ZM23.109 23.8419C22.2649 22.4291 20.7206 24.9296 19.8202 25.561C19.5952 25.7235 19.0512 25.1922 18.2821 24.1045C18.2821 23.4168 17.7632 23.9732 16.9129 23.8419C16.4189 25.786 18.4009 25.6797 17.7757 27.4988C17.5694 28.1052 16.3626 28.9366 16.9504 29.8743C17.0504 30.0368 18.1759 30.2243 18.4447 30.1618C18.6448 30.1181 19.3826 28.5303 20.2016 28.4428C21.6897 28.2865 22.5963 31.6558 24.6846 28.3302L22.0586 26.955C21.9398 26.7674 21.9523 26.0361 22.0711 25.8298C22.2587 25.4985 23.8781 25.1359 23.1153 23.8357L23.109 23.8419Z" fill="#1A202F"/>
</g>
<g clip-path="url(#clip1_14_381)">
<path d="M207.965 315.018C208.973 311.136 205.538 310.938 204.272 308.944C202.384 305.994 202.678 302.882 204.155 299.897L201.165 298.766C202.83 294.732 198.703 291.62 197.027 288.192C196.394 286.898 193.018 278.854 193.627 278.329C199.934 279.017 205.69 282.946 210.884 286.198C210.579 289.043 209.758 292.016 210.227 294.919C210.391 295.933 209.782 296.061 211.376 295.98C219.512 295.548 216.933 291.445 218.937 287.527C219.371 286.676 222.9 282.328 223.791 281.488C225.877 279.507 231.493 276.475 234.529 277.058C236.44 277.42 248.561 284.438 249.44 285.93C251.562 289.521 247.694 300.736 241.914 300.2C244.106 302.753 241.727 308.023 243.051 310.063C243.438 310.658 245.244 311.334 246.088 312.162C250.624 316.557 256.662 319.553 252.465 326.292C249.604 323.564 247.319 326.501 244.2 327.376C233.439 330.384 234.4 325.114 228.351 319.565C225.654 317.093 220.156 312.29 217.284 310.203C213.158 307.207 213.439 310.774 211.728 310.063C212.724 306.472 208.48 307.568 209.793 311.509C210.098 312.441 214.283 317.396 214.893 317.676C216.745 318.515 218.644 315.543 221.505 316.767C223.075 317.443 223.837 319.705 224.775 320.439C226.323 321.64 227.894 321.978 229.851 323.808C232.219 326.035 236.815 332.937 240.144 333.252C241.41 333.368 241.938 331.573 243.415 331.946C243.649 333.508 243.438 336.388 241.434 336.737C236.991 337.519 230.754 326.979 227.085 324.997C226.229 324.543 218.081 321.64 217.202 321.477C215.28 321.127 210.661 323.867 211.739 324.881C216.264 325.988 221.305 327.865 225.221 330.279C227.284 331.55 230.543 333.158 229.851 335.816C228.585 337.332 228.937 336.574 227.952 336.201C223.345 334.476 218.832 328.717 214.06 328.74C212.923 328.74 212.279 329.812 211.364 329.812C210.122 329.812 208.902 327.912 207.214 328.413L208.715 332.634L204.201 331.923L203.44 336.866L199.676 336.155C199.137 334.791 202.853 331.759 201.2 330.862C197.168 328.693 193.874 335.024 193.639 337.915L195.831 338.323C196.511 346.053 193.323 353.374 190.638 360.521C189.255 361.535 183.288 354.586 181.353 353.665C180.134 353.083 173.64 351.019 173.276 352.756C173.3 353.934 174.671 354.89 175.586 355.519C177.051 356.533 186.43 361.908 187.801 362.433C200.239 367.189 202.384 348.384 206.159 342.567C208.222 339.396 209.184 342.672 208.387 345.353C207.32 348.932 203.088 358.236 200.872 361.278C197.168 366.373 189.231 366.746 183.393 365.091C184.542 361.99 180.029 361.628 177.544 360.019C175.633 358.783 170.545 355.403 170.217 353.397C169.361 348.069 176.969 349.573 180.228 350.448C183.862 351.415 186.863 353.91 189.853 355.904L192.877 343.208C187.989 345.038 189.735 341.109 188.657 340.305C187.578 339.501 175.504 334.021 174.05 333.66C167.262 331.969 166.078 338.696 171.811 342.112C175.656 344.409 182.057 340.526 186.101 343.569C186.711 344.723 184.812 344.98 184.038 345.132C179.747 345.936 174.062 346.472 170.053 344.607C169.736 344.455 165.516 339.967 165.363 339.664C164.39 337.728 165.715 333.8 167.227 332.261C172.432 326.909 181.775 335.607 187.649 335.851L193.651 314.995H207.988L207.965 315.018ZM232.266 315.904C231.035 315.857 230.731 315.589 229.863 316.778C233.497 322.025 235.76 326.979 243.638 325.441C244.786 325.219 250.589 322.491 250.894 321.617C251.89 318.772 243.122 312.465 242.676 312.908C242.559 318.527 236.064 316.032 232.255 315.904H232.266ZM233.427 279.88C231.621 280.031 225.971 282.911 224.799 284.193C224.33 284.718 220.789 290.99 220.813 291.398C220.895 292.692 222.29 292.028 222.888 291.958C224.494 291.759 228.702 290.827 230.051 290.174C233.38 288.565 234.353 283.004 239.652 283.983C240.015 286.047 237.741 285.487 236.311 286.851C235.349 287.761 234.916 289.451 233.943 290.314C232.864 291.281 227.612 293.497 228.316 295.618C231.586 298.183 243.157 299.419 245.29 295.957C245.83 295.082 247.342 290.291 247.295 289.265C247.166 286.98 246.111 287.493 245.255 286.525C243.438 284.508 236.17 279.658 233.45 279.88H233.427ZM226.452 298.078L225.654 300.247L213.24 300.911C217.12 303.208 214.565 304.549 217.366 307.277C225.373 315.088 233.263 314.948 232.864 302.31H235.127C235.056 304.479 235.373 306.694 234.951 308.851C234.564 310.821 233.11 311.777 232.864 313.596L238.948 313.292L239.523 312.418C241.012 308.326 238.632 304.77 239.652 300.923C234.88 300.142 230.965 299.967 226.452 298.067V298.078ZM223.791 297.029C223.791 295.187 216.112 296.085 215.502 298.078C218.128 297.752 221.739 299.058 223.791 297.029ZM222.29 321.372C222.489 319.588 221.094 318.982 219.277 319.262L222.29 321.372ZM210.989 321.745C216.194 316.615 200.192 316.429 197.156 317.28C194.976 317.898 194.26 321.605 194.378 323.494C201.025 320.381 205.409 327.224 210.977 321.745H210.989ZM207.589 308.664C210.766 306.577 209.125 302.648 209.477 299.512C204.764 298.335 204.835 308.664 207.589 308.664ZM197.402 281.873L204.952 297.39C209.887 295.129 208.211 294.884 208.035 291.316C207.929 289.055 209.102 287.854 206.218 285.627C205.468 285.056 197.883 281.442 197.402 281.885V281.873ZM204.178 327.364C199.653 323.68 193.299 325.266 192.877 331.246C196.406 326.362 200.896 330.384 204.178 327.364Z" fill="#1A202F"/>
<path d="M248.714 295.98C248.338 299.78 254.141 299.279 257.529 300.783C260.214 301.984 269.932 307.545 270.413 309.865C272.406 319.378 266.814 328.798 263.883 337.32C263.168 339.396 263.402 342.042 262.699 343.977C260.847 349.037 242.641 357.058 237.764 360.905L211.751 337.192L208.773 338.743L236.44 365.009C238.186 365.23 244.739 359.53 246.955 358.177C252.875 354.563 259.417 351.334 265.372 347.72C266.614 345.341 265.688 342.683 266.239 340.235C267.294 335.56 270.014 330.465 271.304 325.918C272.417 321.955 275.207 311.812 273.437 308.489C272.3 306.367 260.694 299.745 257.811 298.416C254.962 297.111 251.996 295.537 248.725 295.98H248.714Z" fill="#1A202F"/>
</g>
<path d="M45.6747 172.148C45.0838 172.148 44.5621 171.998 44.1097 171.7C43.6573 171.398 43.3034 170.974 43.0479 170.426C42.7925 169.875 42.6648 169.224 42.6648 168.473C42.6648 167.728 42.7925 167.082 43.0479 166.534C43.3034 165.986 43.6589 165.563 44.1143 165.265C44.5698 164.966 45.0961 164.817 45.6932 164.817C46.1548 164.817 46.5195 164.894 46.7873 165.048C47.0581 165.198 47.2643 165.371 47.4059 165.565C47.5505 165.755 47.6629 165.912 47.7429 166.036H47.8352V162.545H48.9247V172H47.8722V170.911H47.7429C47.6629 171.04 47.549 171.203 47.4013 171.4C47.2536 171.594 47.0427 171.768 46.7688 171.922C46.4949 172.072 46.1302 172.148 45.6747 172.148ZM45.8224 171.169C46.2595 171.169 46.6288 171.055 46.9304 170.827C47.232 170.597 47.4613 170.278 47.6183 169.872C47.7752 169.462 47.8537 168.99 47.8537 168.455C47.8537 167.925 47.7768 167.462 47.6229 167.065C47.469 166.665 47.2412 166.354 46.9396 166.132C46.638 165.908 46.2656 165.795 45.8224 165.795C45.3608 165.795 44.9761 165.914 44.6683 166.151C44.3636 166.385 44.1344 166.703 43.9805 167.107C43.8297 167.507 43.7543 167.956 43.7543 168.455C43.7543 168.959 43.8312 169.418 43.9851 169.83C44.142 170.24 44.3729 170.566 44.6776 170.809C44.9853 171.049 45.367 171.169 45.8224 171.169ZM54.0444 172.148C53.3612 172.148 52.7718 171.997 52.2763 171.695C51.7839 171.391 51.4038 170.966 51.136 170.421C50.8713 169.873 50.739 169.236 50.739 168.51C50.739 167.784 50.8713 167.143 51.136 166.589C51.4038 166.032 51.7762 165.598 52.2532 165.288C52.7333 164.974 53.2934 164.817 53.9336 164.817C54.3029 164.817 54.6676 164.878 55.0277 165.001C55.3878 165.125 55.7156 165.325 56.011 165.602C56.3065 165.875 56.5419 166.239 56.7173 166.691C56.8928 167.143 56.9805 167.701 56.9805 168.362V168.824H51.5146V167.882H55.8725C55.8725 167.482 55.7925 167.125 55.6325 166.811C55.4755 166.497 55.2508 166.249 54.9585 166.068C54.6692 165.886 54.3275 165.795 53.9336 165.795C53.4996 165.795 53.1242 165.903 52.8072 166.119C52.4933 166.331 52.2517 166.608 52.0824 166.95C51.9131 167.291 51.8285 167.657 51.8285 168.048V168.676C51.8285 169.212 51.9208 169.666 52.1055 170.038C52.2932 170.407 52.5533 170.689 52.8857 170.883C53.218 171.074 53.6043 171.169 54.0444 171.169C54.3306 171.169 54.5891 171.129 54.82 171.049C55.0539 170.966 55.2554 170.843 55.4247 170.68C55.594 170.513 55.7248 170.307 55.8171 170.061L56.8697 170.357C56.7589 170.714 56.5727 171.027 56.3111 171.298C56.0495 171.566 55.7263 171.775 55.3416 171.926C54.9569 172.074 54.5245 172.148 54.0444 172.148ZM64.3807 172.166C63.9313 172.166 63.5236 172.082 63.1573 171.912C62.7911 171.74 62.5002 171.492 62.2848 171.169C62.0694 170.843 61.9616 170.449 61.9616 169.987C61.9616 169.581 62.0417 169.252 62.2017 168.999C62.3617 168.744 62.5756 168.544 62.8434 168.399C63.1112 168.254 63.4066 168.147 63.7298 168.076C64.056 168.002 64.3838 167.944 64.7131 167.901C65.1439 167.845 65.4933 167.804 65.761 167.776C66.0318 167.745 66.2288 167.694 66.3519 167.624C66.4781 167.553 66.5412 167.43 66.5412 167.254V167.217C66.5412 166.762 66.4165 166.408 66.1673 166.156C65.921 165.903 65.5471 165.777 65.0455 165.777C64.5253 165.777 64.1175 165.891 63.8221 166.119C63.5266 166.346 63.3189 166.589 63.1989 166.848L62.1648 166.479C62.3494 166.048 62.5956 165.712 62.9034 165.472C63.2143 165.229 63.5528 165.06 63.919 164.964C64.2884 164.866 64.6515 164.817 65.0085 164.817C65.2363 164.817 65.4979 164.844 65.7933 164.9C66.0919 164.952 66.3796 165.061 66.6566 165.228C66.9367 165.394 67.169 165.645 67.3537 165.98C67.5384 166.316 67.6307 166.765 67.6307 167.328V172H66.5412V171.04H66.4858C66.4119 171.194 66.2888 171.358 66.1165 171.534C65.9441 171.709 65.7148 171.858 65.4286 171.982C65.1424 172.105 64.7931 172.166 64.3807 172.166ZM64.5469 171.188C64.9777 171.188 65.3409 171.103 65.6364 170.934C65.9349 170.764 66.1596 170.546 66.3104 170.278C66.4643 170.01 66.5412 169.729 66.5412 169.433V168.436C66.495 168.491 66.3935 168.542 66.2365 168.588C66.0826 168.632 65.9041 168.67 65.701 168.704C65.5009 168.735 65.3055 168.762 65.1147 168.787C64.927 168.808 64.7746 168.827 64.6577 168.842C64.3745 168.879 64.1098 168.939 63.8636 169.022C63.6205 169.102 63.4235 169.224 63.2727 169.387C63.125 169.547 63.0511 169.766 63.0511 170.043C63.0511 170.421 63.1912 170.707 63.4712 170.901C63.7544 171.092 64.1129 171.188 64.5469 171.188ZM70.7087 162.545V172H69.6192V162.545H70.7087ZM75.5664 174.807C75.0401 174.807 74.5877 174.739 74.2092 174.604C73.8306 174.471 73.5152 174.296 73.2628 174.077C73.0135 173.862 72.815 173.631 72.6673 173.385L73.5352 172.776C73.6336 172.905 73.7583 173.053 73.9091 173.219C74.0599 173.388 74.2661 173.534 74.5277 173.657C74.7924 173.783 75.1386 173.847 75.5664 173.847C76.1388 173.847 76.6113 173.708 76.9837 173.431C77.3561 173.154 77.5423 172.72 77.5423 172.129V170.689H77.4499C77.3699 170.818 77.256 170.978 77.1083 171.169C76.9637 171.357 76.7544 171.525 76.4805 171.672C76.2096 171.817 75.8434 171.889 75.3817 171.889C74.8093 171.889 74.2953 171.754 73.8398 171.483C73.3874 171.212 73.0289 170.818 72.7642 170.301C72.5026 169.784 72.3718 169.156 72.3718 168.418C72.3718 167.691 72.4995 167.059 72.755 166.52C73.0104 165.979 73.3659 165.56 73.8214 165.265C74.2769 164.966 74.8031 164.817 75.4002 164.817C75.8619 164.817 76.2281 164.894 76.4989 165.048C76.7728 165.198 76.9821 165.371 77.1268 165.565C77.2745 165.755 77.3884 165.912 77.4684 166.036H77.5792V164.909H78.6317V172.203C78.6317 172.812 78.4933 173.308 78.2163 173.69C77.9424 174.074 77.573 174.356 77.1083 174.534C76.6467 174.716 76.1327 174.807 75.5664 174.807ZM75.5295 170.911C75.9665 170.911 76.3358 170.81 76.6374 170.61C76.939 170.41 77.1683 170.123 77.3253 169.747C77.4822 169.372 77.5607 168.922 77.5607 168.399C77.5607 167.888 77.4838 167.437 77.3299 167.047C77.176 166.656 76.9483 166.349 76.6467 166.128C76.3451 165.906 75.9727 165.795 75.5295 165.795C75.0678 165.795 74.6831 165.912 74.3754 166.146C74.0707 166.38 73.8414 166.694 73.6875 167.088C73.5367 167.482 73.4613 167.919 73.4613 168.399C73.4613 168.892 73.5382 169.327 73.6921 169.706C73.8491 170.081 74.0799 170.377 74.3846 170.592C74.6924 170.804 75.074 170.911 75.5295 170.911ZM85.0948 169.101V164.909H86.1843V172H85.0948V170.8H85.021C84.8548 171.16 84.5962 171.466 84.2454 171.718C83.8945 171.968 83.4513 172.092 82.9158 172.092C82.4727 172.092 82.0787 171.995 81.734 171.801C81.3893 171.605 81.1185 171.309 80.9215 170.915C80.7246 170.518 80.6261 170.018 80.6261 169.415V164.909H81.7156V169.341C81.7156 169.858 81.8602 170.27 82.1495 170.578C82.4419 170.886 82.8143 171.04 83.2667 171.04C83.5375 171.04 83.813 170.971 84.093 170.832C84.3762 170.694 84.6132 170.481 84.804 170.195C84.9979 169.909 85.0948 169.544 85.0948 169.101ZM89.2693 167.734V172H88.1798V164.909H89.2323V166.017H89.3247C89.4909 165.657 89.7432 165.368 90.0818 165.149C90.4203 164.928 90.8573 164.817 91.3928 164.817C91.873 164.817 92.2931 164.915 92.6531 165.112C93.0132 165.306 93.2933 165.602 93.4933 165.999C93.6934 166.393 93.7934 166.891 93.7934 167.494V172H92.7039V167.568C92.7039 167.011 92.5593 166.577 92.27 166.266C91.9807 165.952 91.5837 165.795 91.0789 165.795C90.7311 165.795 90.4203 165.871 90.1464 166.022C89.8756 166.172 89.6617 166.393 89.5047 166.682C89.3477 166.971 89.2693 167.322 89.2693 167.734ZM98.665 172.148C98.0248 172.148 97.4631 171.995 96.9799 171.691C96.4998 171.386 96.1243 170.96 95.8535 170.412C95.5858 169.864 95.4519 169.224 95.4519 168.491C95.4519 167.753 95.5858 167.108 95.8535 166.557C96.1243 166.006 96.4998 165.578 96.9799 165.274C97.4631 164.969 98.0248 164.817 98.665 164.817C99.3051 164.817 99.8652 164.969 100.345 165.274C100.829 165.578 101.204 166.006 101.472 166.557C101.743 167.108 101.878 167.753 101.878 168.491C101.878 169.224 101.743 169.864 101.472 170.412C101.204 170.96 100.829 171.386 100.345 171.691C99.8652 171.995 99.3051 172.148 98.665 172.148ZM98.665 171.169C99.1512 171.169 99.5513 171.044 99.8652 170.795C100.179 170.546 100.412 170.218 100.562 169.812C100.713 169.406 100.789 168.965 100.789 168.491C100.789 168.018 100.713 167.576 100.562 167.167C100.412 166.757 100.179 166.426 99.8652 166.174C99.5513 165.922 99.1512 165.795 98.665 165.795C98.1787 165.795 97.7786 165.922 97.4647 166.174C97.1507 166.426 96.9184 166.757 96.7676 167.167C96.6168 167.576 96.5414 168.018 96.5414 168.491C96.5414 168.965 96.6168 169.406 96.7676 169.812C96.9184 170.218 97.1507 170.546 97.4647 170.795C97.7786 171.044 98.1787 171.169 98.665 171.169ZM109.875 172.148C109.284 172.148 108.762 171.998 108.31 171.7C107.858 171.398 107.504 170.974 107.248 170.426C106.993 169.875 106.865 169.224 106.865 168.473C106.865 167.728 106.993 167.082 107.248 166.534C107.504 165.986 107.859 165.563 108.315 165.265C108.77 164.966 109.296 164.817 109.893 164.817C110.355 164.817 110.72 164.894 110.987 165.048C111.258 165.198 111.465 165.371 111.606 165.565C111.751 165.755 111.863 165.912 111.943 166.036H112.035V162.545H113.125V172H112.072V170.911H111.943C111.863 171.04 111.749 171.203 111.601 171.4C111.454 171.594 111.243 171.768 110.969 171.922C110.695 172.072 110.33 172.148 109.875 172.148ZM110.023 171.169C110.46 171.169 110.829 171.055 111.131 170.827C111.432 170.597 111.661 170.278 111.818 169.872C111.975 169.462 112.054 168.99 112.054 168.455C112.054 167.925 111.977 167.462 111.823 167.065C111.669 166.665 111.441 166.354 111.14 166.132C110.838 165.908 110.466 165.795 110.023 165.795C109.561 165.795 109.176 165.914 108.869 166.151C108.564 166.385 108.335 166.703 108.181 167.107C108.03 167.507 107.954 167.956 107.954 168.455C107.954 168.959 108.031 169.418 108.185 169.83C108.342 170.24 108.573 170.566 108.878 170.809C109.186 171.049 109.567 171.169 110.023 171.169ZM118.245 172.148C117.561 172.148 116.972 171.997 116.476 171.695C115.984 171.391 115.604 170.966 115.336 170.421C115.072 169.873 114.939 169.236 114.939 168.51C114.939 167.784 115.072 167.143 115.336 166.589C115.604 166.032 115.976 165.598 116.453 165.288C116.934 164.974 117.494 164.817 118.134 164.817C118.503 164.817 118.868 164.878 119.228 165.001C119.588 165.125 119.916 165.325 120.211 165.602C120.507 165.875 120.742 166.239 120.918 166.691C121.093 167.143 121.181 167.701 121.181 168.362V168.824H115.715V167.882H120.073C120.073 167.482 119.993 167.125 119.833 166.811C119.676 166.497 119.451 166.249 119.159 166.068C118.869 165.886 118.528 165.795 118.134 165.795C117.7 165.795 117.324 165.903 117.007 166.119C116.693 166.331 116.452 166.608 116.283 166.95C116.113 167.291 116.029 167.657 116.029 168.048V168.676C116.029 169.212 116.121 169.666 116.306 170.038C116.493 170.407 116.753 170.689 117.086 170.883C117.418 171.074 117.804 171.169 118.245 171.169C118.531 171.169 118.789 171.129 119.02 171.049C119.254 170.966 119.456 170.843 119.625 170.68C119.794 170.513 119.925 170.307 120.017 170.061L121.07 170.357C120.959 170.714 120.773 171.027 120.511 171.298C120.25 171.566 119.927 171.775 119.542 171.926C119.157 172.074 118.725 172.148 118.245 172.148ZM127.584 162.545V172H126.494V162.545H127.584ZM132.46 172.148C131.82 172.148 131.258 171.995 130.775 171.691C130.295 171.386 129.919 170.96 129.648 170.412C129.381 169.864 129.247 169.224 129.247 168.491C129.247 167.753 129.381 167.108 129.648 166.557C129.919 166.006 130.295 165.578 130.775 165.274C131.258 164.969 131.82 164.817 132.46 164.817C133.1 164.817 133.66 164.969 134.14 165.274C134.623 165.578 134.999 166.006 135.267 166.557C135.538 167.108 135.673 167.753 135.673 168.491C135.673 169.224 135.538 169.864 135.267 170.412C134.999 170.96 134.623 171.386 134.14 171.691C133.66 171.995 133.1 172.148 132.46 172.148ZM132.46 171.169C132.946 171.169 133.346 171.044 133.66 170.795C133.974 170.546 134.206 170.218 134.357 169.812C134.508 169.406 134.583 168.965 134.583 168.491C134.583 168.018 134.508 167.576 134.357 167.167C134.206 166.757 133.974 166.426 133.66 166.174C133.346 165.922 132.946 165.795 132.46 165.795C131.974 165.795 131.574 165.922 131.26 166.174C130.946 166.426 130.713 166.757 130.562 167.167C130.412 167.576 130.336 168.018 130.336 168.491C130.336 168.965 130.412 169.406 130.562 169.812C130.713 170.218 130.946 170.546 131.26 170.795C131.574 171.044 131.974 171.169 132.46 171.169ZM142.359 166.497L141.38 166.774C141.319 166.611 141.228 166.453 141.108 166.299C140.991 166.142 140.831 166.012 140.628 165.911C140.424 165.809 140.164 165.759 139.847 165.759C139.413 165.759 139.052 165.859 138.763 166.059C138.476 166.256 138.333 166.506 138.333 166.811C138.333 167.082 138.432 167.296 138.629 167.453C138.826 167.61 139.133 167.741 139.552 167.845L140.604 168.104C141.238 168.258 141.711 168.493 142.022 168.81C142.333 169.124 142.488 169.529 142.488 170.024C142.488 170.43 142.371 170.794 142.137 171.114C141.906 171.434 141.583 171.686 141.168 171.871C140.752 172.055 140.269 172.148 139.718 172.148C138.995 172.148 138.396 171.991 137.922 171.677C137.448 171.363 137.148 170.904 137.022 170.301L138.056 170.043C138.155 170.424 138.341 170.71 138.615 170.901C138.892 171.092 139.253 171.188 139.7 171.188C140.207 171.188 140.611 171.08 140.909 170.864C141.211 170.646 141.362 170.384 141.362 170.08C141.362 169.833 141.275 169.627 141.103 169.461C140.931 169.292 140.666 169.165 140.309 169.082L139.127 168.805C138.478 168.652 138.001 168.413 137.696 168.09C137.395 167.764 137.244 167.356 137.244 166.866C137.244 166.466 137.356 166.112 137.581 165.805C137.808 165.497 138.118 165.255 138.509 165.08C138.903 164.904 139.349 164.817 139.847 164.817C140.549 164.817 141.1 164.971 141.5 165.278C141.903 165.586 142.189 165.992 142.359 166.497ZM46.8796 178.545V188H44.8807V180.443H44.8253L42.6602 181.8V180.027L45.0007 178.545H46.8796ZM52.8337 188.208C52.0397 188.205 51.3564 188.009 50.784 187.621C50.2146 187.234 49.7761 186.672 49.4683 185.936C49.1636 185.201 49.0128 184.316 49.0159 183.282C49.0159 182.251 49.1682 181.372 49.4729 180.646C49.7807 179.92 50.2193 179.367 50.7886 178.989C51.3611 178.607 52.0428 178.416 52.8337 178.416C53.6247 178.416 54.3048 178.607 54.8742 178.989C55.4466 179.37 55.8867 179.924 56.1945 180.651C56.5023 181.374 56.6546 182.251 56.6515 183.282C56.6515 184.319 56.4977 185.205 56.1899 185.941C55.8852 186.677 55.4482 187.238 54.8788 187.626C54.3095 188.014 53.6278 188.208 52.8337 188.208ZM52.8337 186.55C53.3754 186.55 53.8078 186.278 54.1309 185.733C54.4541 185.189 54.6141 184.371 54.6111 183.282C54.6111 182.565 54.5372 181.968 54.3895 181.491C54.2448 181.014 54.0386 180.655 53.7709 180.415C53.5062 180.175 53.1938 180.055 52.8337 180.055C52.2951 180.055 51.8643 180.324 51.5411 180.863C51.218 181.402 51.0548 182.208 51.0518 183.282C51.0518 184.008 51.1241 184.615 51.2687 185.101C51.4165 185.584 51.6242 185.947 51.892 186.19C52.1597 186.43 52.4736 186.55 52.8337 186.55ZM61.7839 188.208C60.9899 188.205 60.3066 188.009 59.7342 187.621C59.1648 187.234 58.7263 186.672 58.4185 185.936C58.1138 185.201 57.963 184.316 57.9661 183.282C57.9661 182.251 58.1184 181.372 58.4231 180.646C58.7309 179.92 59.1694 179.367 59.7388 178.989C60.3113 178.607 60.993 178.416 61.7839 178.416C62.5749 178.416 63.255 178.607 63.8244 178.989C64.3968 179.37 64.8369 179.924 65.1447 180.651C65.4525 181.374 65.6048 182.251 65.6017 183.282C65.6017 184.319 65.4479 185.205 65.1401 185.941C64.8354 186.677 64.3984 187.238 63.829 187.626C63.2596 188.014 62.5779 188.208 61.7839 188.208ZM61.7839 186.55C62.3256 186.55 62.758 186.278 63.0811 185.733C63.4043 185.189 63.5643 184.371 63.5613 183.282C63.5613 182.565 63.4874 181.968 63.3397 181.491C63.195 181.014 62.9888 180.655 62.7211 180.415C62.4564 180.175 62.144 180.055 61.7839 180.055C61.2453 180.055 60.8145 180.324 60.4913 180.863C60.1681 181.402 60.005 182.208 60.002 183.282C60.002 184.008 60.0743 184.615 60.2189 185.101C60.3667 185.584 60.5744 185.947 60.8422 186.19C61.1099 186.43 61.4238 186.55 61.7839 186.55ZM73.826 180.909V182.386H69.5558V180.909H73.826ZM70.5252 179.21H72.4918V185.821C72.4918 186.003 72.5195 186.144 72.5749 186.246C72.6303 186.344 72.7073 186.413 72.8058 186.453C72.9073 186.493 73.0243 186.513 73.1566 186.513C73.2489 186.513 73.3413 186.506 73.4336 186.49C73.5259 186.472 73.5967 186.458 73.646 186.449L73.9553 187.912C73.8568 187.943 73.7183 187.978 73.5398 188.018C73.3613 188.062 73.1443 188.088 72.8888 188.097C72.4149 188.115 71.9994 188.052 71.6424 187.908C71.2885 187.763 71.013 187.538 70.8161 187.234C70.6191 186.929 70.5221 186.544 70.5252 186.08V179.21ZM75.1071 188V180.909H77.0737V188H75.1071ZM76.095 179.995C75.8026 179.995 75.5518 179.898 75.3425 179.704C75.1363 179.507 75.0332 179.272 75.0332 178.998C75.0332 178.727 75.1363 178.495 75.3425 178.301C75.5518 178.104 75.8026 178.005 76.095 178.005C76.3874 178.005 76.6367 178.104 76.8429 178.301C77.0521 178.495 77.1568 178.727 77.1568 178.998C77.1568 179.272 77.0521 179.507 76.8429 179.704C76.6367 179.898 76.3874 179.995 76.095 179.995ZM80.431 185.96L80.4356 183.6H80.7219L82.9932 180.909H85.2506L82.1991 184.473H81.7329L80.431 185.96ZM78.6491 188V178.545H80.6157V188H78.6491ZM83.0809 188L80.9942 184.912L82.3053 183.522L85.3845 188H83.0809ZM89.9871 180.909V182.386H85.7169V180.909H89.9871ZM86.6863 179.21H88.653V185.821C88.653 186.003 88.6807 186.144 88.7361 186.246C88.7915 186.344 88.8684 186.413 88.9669 186.453C89.0684 186.493 89.1854 186.513 89.3177 186.513C89.4101 186.513 89.5024 186.506 89.5947 186.49C89.6871 186.472 89.7578 186.458 89.8071 186.449L90.1164 187.912C90.0179 187.943 89.8794 187.978 89.7009 188.018C89.5224 188.062 89.3054 188.088 89.05 188.097C88.576 188.115 88.1605 188.052 87.8035 187.908C87.4496 187.763 87.1742 187.538 86.9772 187.234C86.7802 186.929 86.6833 186.544 86.6863 186.08V179.21ZM94.3959 188.138C93.6788 188.138 93.0586 187.986 92.5354 187.681C92.0153 187.374 91.6137 186.946 91.3305 186.398C91.0474 185.847 90.9058 185.209 90.9058 184.482C90.9058 183.75 91.0474 183.11 91.3305 182.562C91.6137 182.011 92.0153 181.583 92.5354 181.278C93.0586 180.971 93.6788 180.817 94.3959 180.817C95.113 180.817 95.7316 180.971 96.2517 181.278C96.7749 181.583 97.1781 182.011 97.4612 182.562C97.7443 183.11 97.8859 183.75 97.8859 184.482C97.8859 185.209 97.7443 185.847 97.4612 186.398C97.1781 186.946 96.7749 187.374 96.2517 187.681C95.7316 187.986 95.113 188.138 94.3959 188.138ZM94.4051 186.615C94.7313 186.615 95.0037 186.523 95.2222 186.338C95.4407 186.15 95.6054 185.895 95.7162 185.572C95.83 185.249 95.887 184.881 95.887 184.468C95.887 184.056 95.83 183.688 95.7162 183.365C95.6054 183.042 95.4407 182.786 95.2222 182.599C95.0037 182.411 94.7313 182.317 94.4051 182.317C94.0758 182.317 93.7988 182.411 93.5741 182.599C93.3525 182.786 93.1848 183.042 93.0709 183.365C92.9601 183.688 92.9047 184.056 92.9047 184.468C92.9047 184.881 92.9601 185.249 93.0709 185.572C93.1848 185.895 93.3525 186.15 93.5741 186.338C93.7988 186.523 94.0758 186.615 94.4051 186.615ZM100.947 185.96L100.951 183.6H101.237L103.509 180.909H105.766L102.715 184.473H102.248L100.947 185.96ZM99.1647 188V178.545H101.131V188H99.1647ZM103.597 188L101.51 184.912L102.821 183.522L105.9 188H103.597ZM112.631 182.931L110.831 183.042C110.8 182.888 110.734 182.75 110.632 182.626C110.53 182.5 110.397 182.4 110.23 182.326C110.067 182.249 109.872 182.211 109.644 182.211C109.339 182.211 109.082 182.276 108.873 182.405C108.664 182.531 108.559 182.7 108.559 182.913C108.559 183.082 108.627 183.225 108.762 183.342C108.898 183.459 109.13 183.553 109.459 183.624L110.743 183.882C111.432 184.024 111.946 184.251 112.285 184.565C112.623 184.879 112.793 185.292 112.793 185.803C112.793 186.267 112.656 186.675 112.382 187.026C112.111 187.377 111.738 187.651 111.264 187.848C110.794 188.042 110.25 188.138 109.635 188.138C108.696 188.138 107.948 187.943 107.391 187.552C106.837 187.158 106.513 186.623 106.417 185.946L108.351 185.844C108.41 186.13 108.552 186.349 108.776 186.5C109.001 186.647 109.289 186.721 109.639 186.721C109.984 186.721 110.261 186.655 110.47 186.523C110.683 186.387 110.791 186.213 110.794 186.001C110.791 185.823 110.715 185.676 110.567 185.562C110.42 185.446 110.192 185.356 109.884 185.295L108.656 185.05C107.964 184.912 107.448 184.672 107.11 184.33C106.774 183.988 106.606 183.553 106.606 183.023C106.606 182.568 106.73 182.176 106.976 181.846C107.225 181.517 107.574 181.263 108.024 181.085C108.476 180.906 109.005 180.817 109.612 180.817C110.507 180.817 111.212 181.006 111.726 181.385C112.243 181.763 112.545 182.279 112.631 182.931ZM122.738 190.659V186.911H122.645C122.565 187.04 122.451 187.203 122.304 187.4C122.156 187.594 121.945 187.768 121.671 187.922C121.397 188.072 121.033 188.148 120.577 188.148C119.986 188.148 119.464 187.998 119.012 187.7C118.56 187.398 118.206 186.974 117.95 186.426C117.695 185.875 117.567 185.224 117.567 184.473C117.567 183.728 117.695 183.082 117.95 182.534C118.206 181.986 118.561 181.563 119.017 181.265C119.472 180.966 119.998 180.817 120.596 180.817C121.057 180.817 121.422 180.894 121.69 181.048C121.96 181.198 122.167 181.371 122.308 181.565C122.453 181.755 122.565 181.912 122.645 182.036H122.775V180.909H123.827V190.659H122.738ZM120.725 187.169C121.162 187.169 121.531 187.055 121.833 186.827C122.134 186.597 122.364 186.278 122.521 185.872C122.678 185.462 122.756 184.99 122.756 184.455C122.756 183.925 122.679 183.462 122.525 183.065C122.371 182.665 122.144 182.354 121.842 182.132C121.54 181.908 121.168 181.795 120.725 181.795C120.263 181.795 119.878 181.914 119.571 182.151C119.266 182.385 119.037 182.703 118.883 183.107C118.732 183.507 118.657 183.956 118.657 184.455C118.657 184.959 118.734 185.418 118.887 185.83C119.044 186.24 119.275 186.566 119.58 186.809C119.888 187.049 120.269 187.169 120.725 187.169ZM130.29 185.101V180.909H131.38V188H130.29V186.8H130.216C130.05 187.16 129.792 187.466 129.441 187.718C129.09 187.968 128.647 188.092 128.111 188.092C127.668 188.092 127.274 187.995 126.929 187.801C126.585 187.605 126.314 187.309 126.117 186.915C125.92 186.518 125.821 186.018 125.821 185.415V180.909H126.911V185.341C126.911 185.858 127.056 186.27 127.345 186.578C127.637 186.886 128.01 187.04 128.462 187.04C128.733 187.04 129.008 186.971 129.288 186.832C129.571 186.694 129.808 186.481 129.999 186.195C130.193 185.909 130.29 185.544 130.29 185.101ZM136.348 188.148C135.665 188.148 135.075 187.997 134.58 187.695C134.088 187.391 133.707 186.966 133.44 186.421C133.175 185.873 133.043 185.236 133.043 184.51C133.043 183.784 133.175 183.143 133.44 182.589C133.707 182.032 134.08 181.598 134.557 181.288C135.037 180.974 135.597 180.817 136.237 180.817C136.607 180.817 136.971 180.878 137.331 181.001C137.691 181.125 138.019 181.325 138.315 181.602C138.61 181.875 138.846 182.239 139.021 182.691C139.196 183.143 139.284 183.701 139.284 184.362V184.824H133.818V183.882H138.176C138.176 183.482 138.096 183.125 137.936 182.811C137.779 182.497 137.555 182.249 137.262 182.068C136.973 181.886 136.631 181.795 136.237 181.795C135.803 181.795 135.428 181.903 135.111 182.119C134.797 182.331 134.555 182.608 134.386 182.95C134.217 183.291 134.132 183.657 134.132 184.048V184.676C134.132 185.212 134.225 185.666 134.409 186.038C134.597 186.407 134.857 186.689 135.189 186.883C135.522 187.074 135.908 187.169 136.348 187.169C136.634 187.169 136.893 187.129 137.124 187.049C137.358 186.966 137.559 186.843 137.728 186.68C137.898 186.513 138.028 186.307 138.121 186.061L139.173 186.357C139.063 186.714 138.876 187.027 138.615 187.298C138.353 187.566 138.03 187.775 137.645 187.926C137.261 188.074 136.828 188.148 136.348 188.148ZM48.7955 196.909L46.1733 204H45.0653L42.4432 196.909H43.625L45.5824 202.56H45.6562L47.6136 196.909H48.7955ZM50.2335 204V196.909H51.323V204H50.2335ZM50.7875 195.727C50.5751 195.727 50.392 195.655 50.2381 195.51C50.0873 195.366 50.0119 195.192 50.0119 194.989C50.0119 194.786 50.0873 194.612 50.2381 194.467C50.392 194.322 50.5751 194.25 50.7875 194.25C50.9998 194.25 51.1814 194.322 51.3322 194.467C51.4861 194.612 51.563 194.786 51.563 194.989C51.563 195.192 51.4861 195.366 51.3322 195.51C51.1814 195.655 50.9998 195.727 50.7875 195.727ZM58.3412 198.497L57.3625 198.774C57.3009 198.611 57.2101 198.453 57.0901 198.299C56.9732 198.142 56.8131 198.012 56.61 197.911C56.4069 197.809 56.1468 197.759 55.8298 197.759C55.3959 197.759 55.0342 197.859 54.7449 198.059C54.4587 198.256 54.3156 198.506 54.3156 198.811C54.3156 199.082 54.4141 199.296 54.6111 199.453C54.808 199.61 55.1158 199.741 55.5344 199.845L56.5869 200.104C57.2209 200.258 57.6933 200.493 58.0042 200.81C58.315 201.124 58.4704 201.529 58.4704 202.024C58.4704 202.43 58.3535 202.794 58.1196 203.114C57.8888 203.434 57.5656 203.686 57.1501 203.871C56.7346 204.055 56.2515 204.148 55.7006 204.148C54.9773 204.148 54.3787 203.991 53.9047 203.677C53.4308 203.363 53.1307 202.904 53.0045 202.301L54.0386 202.043C54.1371 202.424 54.3233 202.71 54.5972 202.901C54.8742 203.092 55.2358 203.188 55.6821 203.188C56.1899 203.188 56.5931 203.08 56.8916 202.864C57.1932 202.646 57.344 202.384 57.344 202.08C57.344 201.833 57.2578 201.627 57.0855 201.461C56.9131 201.292 56.6485 201.165 56.2915 201.082L55.1096 200.805C54.4603 200.652 53.9832 200.413 53.6785 200.09C53.3769 199.764 53.2261 199.356 53.2261 198.866C53.2261 198.466 53.3385 198.112 53.5631 197.805C53.7909 197.497 54.1002 197.255 54.491 197.08C54.885 196.904 55.3312 196.817 55.8298 196.817C56.5315 196.817 57.0824 196.971 57.4825 197.278C57.8857 197.586 58.1719 197.992 58.3412 198.497ZM63.1942 196.909V197.832H59.5195V196.909H63.1942ZM60.5906 195.21H61.68V201.969C61.68 202.277 61.7247 202.507 61.8139 202.661C61.9063 202.812 62.0232 202.914 62.1648 202.966C62.3094 203.015 62.4618 203.04 62.6218 203.04C62.7418 203.04 62.8403 203.034 62.9173 203.021C62.9942 203.006 63.0558 202.994 63.1019 202.984L63.3235 203.963C63.2496 203.991 63.1465 204.018 63.0142 204.046C62.8819 204.077 62.7141 204.092 62.511 204.092C62.2032 204.092 61.9016 204.026 61.6062 203.894C61.3138 203.761 61.0707 203.56 60.8768 203.289C60.686 203.018 60.5906 202.677 60.5906 202.264V195.21ZM67.7299 204.148C67.0467 204.148 66.4573 203.997 65.9618 203.695C65.4694 203.391 65.0893 202.966 64.8216 202.421C64.5569 201.873 64.4245 201.236 64.4245 200.51C64.4245 199.784 64.5569 199.143 64.8216 198.589C65.0893 198.032 65.4617 197.598 65.9387 197.288C66.4189 196.974 66.979 196.817 67.6191 196.817C67.9885 196.817 68.3532 196.878 68.7132 197.001C69.0733 197.125 69.4011 197.325 69.6966 197.602C69.992 197.875 70.2275 198.239 70.4029 198.691C70.5783 199.143 70.666 199.701 70.666 200.362V200.824H65.2001V199.882H69.5581C69.5581 199.482 69.478 199.125 69.318 198.811C69.161 198.497 68.9364 198.249 68.644 198.068C68.3547 197.886 68.0131 197.795 67.6191 197.795C67.1852 197.795 66.8097 197.903 66.4927 198.119C66.1788 198.331 65.9372 198.608 65.7679 198.95C65.5987 199.291 65.514 199.657 65.514 200.048V200.676C65.514 201.212 65.6064 201.666 65.791 202.038C65.9788 202.407 66.2388 202.689 66.5712 202.883C66.9036 203.074 67.2898 203.169 67.7299 203.169C68.0162 203.169 68.2747 203.129 68.5055 203.049C68.7394 202.966 68.941 202.843 69.1103 202.68C69.2795 202.513 69.4103 202.307 69.5027 202.061L70.5552 202.357C70.4444 202.714 70.2582 203.027 69.9966 203.298C69.735 203.566 69.4119 203.775 69.0272 203.926C68.6425 204.074 68.21 204.148 67.7299 204.148ZM77.0691 199.734V204H75.9796V194.545H77.0691V198.017H77.1614C77.3276 197.651 77.5769 197.36 77.9093 197.145C78.2447 196.926 78.691 196.817 79.248 196.817C79.7312 196.817 80.1544 196.914 80.5176 197.108C80.8807 197.298 81.1623 197.592 81.3624 197.989C81.5655 198.383 81.6671 198.885 81.6671 199.494V204H80.5776V199.568C80.5776 199.005 80.4314 198.569 80.139 198.262C79.8497 197.951 79.4481 197.795 78.9341 197.795C78.5771 197.795 78.257 197.871 77.9739 198.022C77.6938 198.172 77.4722 198.393 77.3091 198.682C77.1491 198.971 77.0691 199.322 77.0691 199.734ZM86.5409 204.148C85.9008 204.148 85.3391 203.995 84.8559 203.691C84.3758 203.386 84.0003 202.96 83.7295 202.412C83.4617 201.864 83.3279 201.224 83.3279 200.491C83.3279 199.753 83.4617 199.108 83.7295 198.557C84.0003 198.006 84.3758 197.578 84.8559 197.274C85.3391 196.969 85.9008 196.817 86.5409 196.817C87.1811 196.817 87.7412 196.969 88.2213 197.274C88.7045 197.578 89.08 198.006 89.3477 198.557C89.6186 199.108 89.754 199.753 89.754 200.491C89.754 201.224 89.6186 201.864 89.3477 202.412C89.08 202.96 88.7045 203.386 88.2213 203.691C87.7412 203.995 87.1811 204.148 86.5409 204.148ZM86.5409 203.169C87.0272 203.169 87.4273 203.044 87.7412 202.795C88.0551 202.546 88.2875 202.218 88.4383 201.812C88.5891 201.406 88.6645 200.965 88.6645 200.491C88.6645 200.018 88.5891 199.576 88.4383 199.167C88.2875 198.757 88.0551 198.426 87.7412 198.174C87.4273 197.922 87.0272 197.795 86.5409 197.795C86.0547 197.795 85.6546 197.922 85.3406 198.174C85.0267 198.426 84.7944 198.757 84.6436 199.167C84.4927 199.576 84.4173 200.018 84.4173 200.491C84.4173 200.965 84.4927 201.406 84.6436 201.812C84.7944 202.218 85.0267 202.546 85.3406 202.795C85.6546 203.044 86.0547 203.169 86.5409 203.169ZM91.8649 206.659C91.6802 206.659 91.5156 206.644 91.3709 206.613C91.2263 206.585 91.1262 206.558 91.0708 206.53L91.3478 205.57C91.6125 205.637 91.8464 205.662 92.0495 205.643C92.2527 205.625 92.4327 205.534 92.5897 205.371C92.7497 205.211 92.8959 204.951 93.0282 204.591L93.2314 204.037L90.6092 196.909H91.791L93.7484 202.56H93.8223L95.7797 196.909H96.9615L93.9515 205.034C93.8161 205.4 93.6484 205.703 93.4483 205.944C93.2483 206.187 93.0159 206.367 92.7512 206.484C92.4896 206.601 92.1942 206.659 91.8649 206.659ZM99.8214 201.341V201.286C99.8275 200.698 99.8891 200.23 100.006 199.882C100.123 199.534 100.289 199.253 100.505 199.037C100.72 198.822 100.979 198.623 101.28 198.442C101.462 198.331 101.625 198.2 101.77 198.049C101.914 197.895 102.028 197.719 102.111 197.518C102.197 197.318 102.24 197.097 102.24 196.854C102.24 196.552 102.17 196.29 102.028 196.069C101.886 195.847 101.697 195.676 101.46 195.556C101.223 195.436 100.96 195.376 100.671 195.376C100.418 195.376 100.175 195.429 99.9414 195.533C99.7075 195.638 99.5121 195.803 99.3551 196.027C99.1982 196.252 99.1074 196.546 99.0827 196.909H97.9194C97.944 196.386 98.0794 195.938 98.3256 195.566C98.5749 195.193 98.9027 194.909 99.3089 194.712C99.7183 194.515 100.172 194.416 100.671 194.416C101.212 194.416 101.683 194.524 102.083 194.739C102.487 194.955 102.797 195.25 103.016 195.626C103.238 196.001 103.348 196.429 103.348 196.909C103.348 197.248 103.296 197.554 103.191 197.828C103.09 198.102 102.942 198.346 102.748 198.562C102.557 198.777 102.327 198.968 102.056 199.134C101.785 199.304 101.568 199.482 101.405 199.67C101.242 199.854 101.123 200.074 101.049 200.33C100.975 200.585 100.935 200.904 100.929 201.286V201.341H99.8214ZM100.412 204.074C100.185 204.074 99.9891 203.992 99.826 203.829C99.6629 203.666 99.5813 203.471 99.5813 203.243C99.5813 203.015 99.6629 202.82 99.826 202.657C99.9891 202.493 100.185 202.412 100.412 202.412C100.64 202.412 100.835 202.493 100.999 202.657C101.162 202.82 101.243 203.015 101.243 203.243C101.243 203.394 101.205 203.532 101.128 203.658C101.054 203.785 100.954 203.886 100.828 203.963C100.705 204.037 100.566 204.074 100.412 204.074Z" fill="#1B202D"/>
<path d="M142.665 231.136C142.034 231.136 141.49 230.997 141.033 230.719C140.578 230.438 140.227 230.045 139.98 229.543C139.736 229.037 139.614 228.449 139.614 227.778C139.614 227.108 139.736 226.517 139.98 226.006C140.227 225.491 140.571 225.091 141.011 224.804C141.455 224.514 141.972 224.369 142.562 224.369C142.903 224.369 143.24 224.426 143.572 224.54C143.905 224.653 144.207 224.838 144.48 225.094C144.753 225.347 144.97 225.682 145.132 226.099C145.294 226.517 145.375 227.031 145.375 227.642V228.068H140.33V227.199H144.352C144.352 226.83 144.278 226.5 144.131 226.21C143.986 225.92 143.778 225.692 143.509 225.524C143.241 225.357 142.926 225.273 142.562 225.273C142.162 225.273 141.815 225.372 141.523 225.571C141.233 225.767 141.01 226.023 140.854 226.338C140.697 226.653 140.619 226.991 140.619 227.352V227.932C140.619 228.426 140.705 228.845 140.875 229.189C141.048 229.53 141.288 229.79 141.595 229.969C141.902 230.145 142.259 230.233 142.665 230.233C142.929 230.233 143.168 230.196 143.381 230.122C143.597 230.045 143.783 229.932 143.939 229.781C144.095 229.628 144.216 229.437 144.301 229.21L145.273 229.483C145.17 229.812 144.999 230.102 144.757 230.352C144.516 230.599 144.217 230.793 143.862 230.932C143.507 231.068 143.108 231.136 142.665 231.136ZM147.911 222.273V231H146.905V222.273H147.911ZM155.787 231.136C155.173 231.136 154.645 230.991 154.201 230.702C153.758 230.412 153.417 230.013 153.179 229.504C152.94 228.996 152.821 228.415 152.821 227.761C152.821 227.097 152.943 226.51 153.187 226.001C153.434 225.49 153.778 225.091 154.218 224.804C154.662 224.514 155.179 224.369 155.77 224.369C156.23 224.369 156.645 224.455 157.014 224.625C157.383 224.795 157.686 225.034 157.922 225.341C158.157 225.648 158.304 226.006 158.36 226.415H157.355C157.278 226.116 157.108 225.852 156.843 225.622C156.582 225.389 156.23 225.273 155.787 225.273C155.395 225.273 155.051 225.375 154.755 225.58C154.463 225.781 154.234 226.067 154.069 226.436C153.907 226.803 153.826 227.233 153.826 227.727C153.826 228.233 153.906 228.673 154.065 229.048C154.227 229.423 154.454 229.714 154.747 229.922C155.042 230.129 155.389 230.233 155.787 230.233C156.048 230.233 156.285 230.188 156.498 230.097C156.711 230.006 156.892 229.875 157.039 229.705C157.187 229.534 157.292 229.33 157.355 229.091H158.36C158.304 229.477 158.163 229.825 157.939 230.135C157.717 230.442 157.423 230.686 157.056 230.868C156.693 231.047 156.27 231.136 155.787 231.136ZM162.49 231.136C161.899 231.136 161.38 230.996 160.934 230.714C160.491 230.433 160.145 230.04 159.895 229.534C159.647 229.028 159.524 228.437 159.524 227.761C159.524 227.08 159.647 226.484 159.895 225.976C160.145 225.467 160.491 225.072 160.934 224.791C161.38 224.51 161.899 224.369 162.49 224.369C163.081 224.369 163.598 224.51 164.041 224.791C164.487 225.072 164.833 225.467 165.081 225.976C165.331 226.484 165.456 227.08 165.456 227.761C165.456 228.437 165.331 229.028 165.081 229.534C164.833 230.04 164.487 230.433 164.041 230.714C163.598 230.996 163.081 231.136 162.49 231.136ZM162.49 230.233C162.939 230.233 163.308 230.118 163.598 229.888C163.887 229.658 164.102 229.355 164.241 228.98C164.38 228.605 164.45 228.199 164.45 227.761C164.45 227.324 164.38 226.916 164.241 226.538C164.102 226.161 163.887 225.855 163.598 225.622C163.308 225.389 162.939 225.273 162.49 225.273C162.041 225.273 161.672 225.389 161.382 225.622C161.092 225.855 160.877 226.161 160.738 226.538C160.599 226.916 160.529 227.324 160.529 227.761C160.529 228.199 160.599 228.605 160.738 228.98C160.877 229.355 161.092 229.658 161.382 229.888C161.672 230.118 162.041 230.233 162.49 230.233ZM167.996 227.062V231H166.991V224.455H167.962V225.477H168.048C168.201 225.145 168.434 224.878 168.746 224.676C169.059 224.472 169.462 224.369 169.957 224.369C170.4 224.369 170.788 224.46 171.12 224.642C171.452 224.821 171.711 225.094 171.896 225.46C172.08 225.824 172.173 226.284 172.173 226.841V231H171.167V226.909C171.167 226.395 171.033 225.994 170.766 225.707C170.499 225.418 170.133 225.273 169.667 225.273C169.346 225.273 169.059 225.342 168.806 225.482C168.556 225.621 168.359 225.824 168.214 226.091C168.069 226.358 167.996 226.682 167.996 227.062ZM178.647 225.92L177.743 226.176C177.686 226.026 177.603 225.879 177.492 225.737C177.384 225.592 177.236 225.473 177.049 225.379C176.861 225.286 176.621 225.239 176.328 225.239C175.928 225.239 175.594 225.331 175.327 225.516C175.063 225.697 174.931 225.929 174.931 226.21C174.931 226.46 175.022 226.658 175.203 226.803C175.385 226.947 175.669 227.068 176.056 227.165L177.027 227.403C177.613 227.545 178.049 227.763 178.336 228.055C178.623 228.345 178.766 228.719 178.766 229.176C178.766 229.551 178.658 229.886 178.442 230.182C178.229 230.477 177.931 230.71 177.547 230.881C177.164 231.051 176.718 231.136 176.209 231.136C175.542 231.136 174.989 230.991 174.551 230.702C174.114 230.412 173.837 229.989 173.721 229.432L174.675 229.193C174.766 229.545 174.938 229.81 175.191 229.986C175.446 230.162 175.78 230.25 176.192 230.25C176.661 230.25 177.033 230.151 177.309 229.952C177.587 229.75 177.726 229.509 177.726 229.227C177.726 229 177.647 228.81 177.488 228.656C177.328 228.5 177.084 228.384 176.755 228.307L175.664 228.051C175.064 227.909 174.624 227.689 174.343 227.391C174.064 227.089 173.925 226.713 173.925 226.261C173.925 225.892 174.029 225.565 174.236 225.281C174.446 224.997 174.732 224.774 175.093 224.612C175.456 224.45 175.868 224.369 176.328 224.369C176.976 224.369 177.485 224.511 177.854 224.795C178.226 225.08 178.49 225.455 178.647 225.92ZM184.405 228.324V224.455H185.411V231H184.405V229.892H184.337C184.183 230.224 183.945 230.507 183.621 230.74C183.297 230.97 182.888 231.085 182.393 231.085C181.984 231.085 181.621 230.996 181.303 230.817C180.984 230.635 180.734 230.362 180.553 229.999C180.371 229.632 180.28 229.17 180.28 228.614V224.455H181.286V228.545C181.286 229.023 181.419 229.403 181.686 229.688C181.956 229.972 182.3 230.114 182.717 230.114C182.967 230.114 183.222 230.05 183.48 229.922C183.741 229.794 183.96 229.598 184.136 229.334C184.315 229.07 184.405 228.733 184.405 228.324ZM187.252 231V224.455H188.224V225.477H188.309C188.446 225.128 188.666 224.857 188.97 224.663C189.274 224.467 189.639 224.369 190.065 224.369C190.497 224.369 190.856 224.467 191.143 224.663C191.433 224.857 191.659 225.128 191.821 225.477H191.889C192.056 225.139 192.308 224.871 192.643 224.672C192.978 224.47 193.38 224.369 193.849 224.369C194.434 224.369 194.913 224.553 195.285 224.919C195.657 225.283 195.843 225.849 195.843 226.619V231H194.838V226.619C194.838 226.136 194.706 225.791 194.441 225.584C194.177 225.376 193.866 225.273 193.508 225.273C193.048 225.273 192.691 225.412 192.439 225.69C192.186 225.966 192.059 226.315 192.059 226.739V231H191.037V226.517C191.037 226.145 190.916 225.845 190.674 225.618C190.433 225.388 190.122 225.273 189.741 225.273C189.48 225.273 189.235 225.342 189.008 225.482C188.784 225.621 188.602 225.814 188.463 226.061C188.326 226.305 188.258 226.588 188.258 226.909V231H187.252ZM197.682 231V224.455H198.688V231H197.682ZM198.194 223.364C197.998 223.364 197.828 223.297 197.686 223.163C197.547 223.03 197.478 222.869 197.478 222.682C197.478 222.494 197.547 222.334 197.686 222.2C197.828 222.067 197.998 222 198.194 222C198.39 222 198.557 222.067 198.696 222.2C198.838 222.334 198.909 222.494 198.909 222.682C198.909 222.869 198.838 223.03 198.696 223.163C198.557 223.297 198.39 223.364 198.194 223.364ZM203.001 231.136C202.456 231.136 201.974 230.999 201.557 230.723C201.139 230.445 200.813 230.053 200.577 229.547C200.341 229.038 200.223 228.438 200.223 227.744C200.223 227.057 200.341 226.46 200.577 225.955C200.813 225.449 201.141 225.058 201.561 224.783C201.982 224.507 202.467 224.369 203.018 224.369C203.445 224.369 203.781 224.44 204.028 224.582C204.278 224.722 204.469 224.881 204.599 225.06C204.733 225.236 204.837 225.381 204.911 225.494H204.996V222.273H206.001V231H205.03V229.994H204.911C204.837 230.114 204.732 230.264 204.595 230.446C204.459 230.625 204.264 230.786 204.011 230.928C203.759 231.067 203.422 231.136 203.001 231.136ZM203.138 230.233C203.541 230.233 203.882 230.128 204.161 229.918C204.439 229.705 204.651 229.411 204.795 229.036C204.94 228.658 205.013 228.222 205.013 227.727C205.013 227.239 204.942 226.811 204.8 226.445C204.658 226.075 204.447 225.788 204.169 225.584C203.891 225.376 203.547 225.273 203.138 225.273C202.712 225.273 202.357 225.382 202.072 225.601C201.791 225.817 201.58 226.111 201.438 226.483C201.298 226.852 201.229 227.267 201.229 227.727C201.229 228.193 201.3 228.616 201.442 228.997C201.587 229.375 201.8 229.676 202.081 229.901C202.365 230.122 202.717 230.233 203.138 230.233ZM210.642 231.136C210.051 231.136 209.533 230.996 209.087 230.714C208.643 230.433 208.297 230.04 208.047 229.534C207.8 229.028 207.676 228.437 207.676 227.761C207.676 227.08 207.8 226.484 208.047 225.976C208.297 225.467 208.643 225.072 209.087 224.791C209.533 224.51 210.051 224.369 210.642 224.369C211.233 224.369 211.75 224.51 212.193 224.791C212.639 225.072 212.986 225.467 213.233 225.976C213.483 226.484 213.608 227.08 213.608 227.761C213.608 228.437 213.483 229.028 213.233 229.534C212.986 230.04 212.639 230.433 212.193 230.714C211.75 230.996 211.233 231.136 210.642 231.136ZM210.642 230.233C211.091 230.233 211.46 230.118 211.75 229.888C212.04 229.658 212.254 229.355 212.393 228.98C212.533 228.605 212.602 228.199 212.602 227.761C212.602 227.324 212.533 226.916 212.393 226.538C212.254 226.161 212.04 225.855 211.75 225.622C211.46 225.389 211.091 225.273 210.642 225.273C210.193 225.273 209.824 225.389 209.534 225.622C209.244 225.855 209.03 226.161 208.891 226.538C208.751 226.916 208.682 227.324 208.682 227.761C208.682 228.199 208.751 228.605 208.891 228.98C209.03 229.355 209.244 229.658 209.534 229.888C209.824 230.118 210.193 230.233 210.642 230.233ZM215.143 231V224.455H216.115V225.443H216.183C216.302 225.119 216.518 224.857 216.831 224.655C217.143 224.453 217.495 224.352 217.887 224.352C217.961 224.352 218.054 224.354 218.164 224.357C218.275 224.359 218.359 224.364 218.416 224.369V225.392C218.382 225.384 218.304 225.371 218.181 225.354C218.062 225.334 217.936 225.324 217.802 225.324C217.484 225.324 217.2 225.391 216.95 225.524C216.703 225.655 216.507 225.837 216.362 226.07C216.22 226.3 216.149 226.562 216.149 226.858V231H215.143ZM125.79 246.136C125.159 246.136 124.615 245.997 124.158 245.719C123.703 245.438 123.352 245.045 123.105 244.543C122.861 244.037 122.739 243.449 122.739 242.778C122.739 242.108 122.861 241.517 123.105 241.006C123.352 240.491 123.696 240.091 124.136 239.804C124.58 239.514 125.097 239.369 125.688 239.369C126.028 239.369 126.365 239.426 126.697 239.54C127.03 239.653 127.332 239.838 127.605 240.094C127.878 240.347 128.095 240.682 128.257 241.099C128.419 241.517 128.5 242.031 128.5 242.642V243.068H123.455V242.199H127.477C127.477 241.83 127.403 241.5 127.256 241.21C127.111 240.92 126.903 240.692 126.634 240.524C126.366 240.357 126.051 240.273 125.688 240.273C125.287 240.273 124.94 240.372 124.648 240.571C124.358 240.767 124.135 241.023 123.979 241.338C123.822 241.653 123.744 241.991 123.744 242.352V242.932C123.744 243.426 123.83 243.845 124 244.189C124.173 244.53 124.413 244.79 124.72 244.969C125.027 245.145 125.384 245.233 125.79 245.233C126.054 245.233 126.293 245.196 126.506 245.122C126.722 245.045 126.908 244.932 127.064 244.781C127.22 244.628 127.341 244.437 127.426 244.21L128.398 244.483C128.295 244.812 128.124 245.102 127.882 245.352C127.641 245.599 127.342 245.793 126.987 245.932C126.632 246.068 126.233 246.136 125.79 246.136ZM134.666 240.92L133.763 241.176C133.706 241.026 133.622 240.879 133.511 240.737C133.403 240.592 133.256 240.473 133.068 240.379C132.881 240.286 132.641 240.239 132.348 240.239C131.947 240.239 131.614 240.331 131.347 240.516C131.082 240.697 130.95 240.929 130.95 241.21C130.95 241.46 131.041 241.658 131.223 241.803C131.405 241.947 131.689 242.068 132.075 242.165L133.047 242.403C133.632 242.545 134.068 242.763 134.355 243.055C134.642 243.345 134.786 243.719 134.786 244.176C134.786 244.551 134.678 244.886 134.462 245.182C134.249 245.477 133.95 245.71 133.567 245.881C133.183 246.051 132.737 246.136 132.229 246.136C131.561 246.136 131.009 245.991 130.571 245.702C130.134 245.412 129.857 244.989 129.74 244.432L130.695 244.193C130.786 244.545 130.957 244.81 131.21 244.986C131.466 245.162 131.8 245.25 132.212 245.25C132.68 245.25 133.053 245.151 133.328 244.952C133.607 244.75 133.746 244.509 133.746 244.227C133.746 244 133.666 243.81 133.507 243.656C133.348 243.5 133.104 243.384 132.774 243.307L131.683 243.051C131.084 242.909 130.643 242.689 130.362 242.391C130.084 242.089 129.945 241.713 129.945 241.261C129.945 240.892 130.048 240.565 130.256 240.281C130.466 239.997 130.751 239.774 131.112 239.612C131.476 239.45 131.888 239.369 132.348 239.369C132.996 239.369 133.504 239.511 133.874 239.795C134.246 240.08 134.51 240.455 134.666 240.92ZM139.146 239.455V240.307H135.754V239.455H139.146ZM136.743 237.886H137.748V244.125C137.748 244.409 137.789 244.622 137.872 244.764C137.957 244.903 138.065 244.997 138.196 245.045C138.329 245.091 138.47 245.114 138.618 245.114C138.728 245.114 138.819 245.108 138.89 245.097C138.961 245.082 139.018 245.071 139.061 245.062L139.265 245.966C139.197 245.991 139.102 246.017 138.98 246.043C138.858 246.071 138.703 246.085 138.515 246.085C138.231 246.085 137.953 246.024 137.68 245.902C137.41 245.78 137.186 245.594 137.007 245.344C136.831 245.094 136.743 244.778 136.743 244.398V237.886ZM142.585 246.153C142.17 246.153 141.794 246.075 141.456 245.919C141.118 245.76 140.849 245.531 140.65 245.233C140.451 244.932 140.352 244.568 140.352 244.142C140.352 243.767 140.426 243.463 140.574 243.23C140.721 242.994 140.919 242.81 141.166 242.676C141.413 242.543 141.686 242.443 141.984 242.378C142.285 242.31 142.588 242.256 142.892 242.216C143.289 242.165 143.612 242.126 143.859 242.101C144.109 242.072 144.291 242.026 144.404 241.96C144.521 241.895 144.579 241.781 144.579 241.619V241.585C144.579 241.165 144.464 240.838 144.234 240.605C144.007 240.372 143.662 240.256 143.199 240.256C142.718 240.256 142.342 240.361 142.069 240.571C141.797 240.781 141.605 241.006 141.494 241.244L140.539 240.903C140.71 240.506 140.937 240.196 141.221 239.974C141.508 239.75 141.821 239.594 142.159 239.506C142.5 239.415 142.835 239.369 143.164 239.369C143.375 239.369 143.616 239.395 143.889 239.446C144.164 239.494 144.43 239.595 144.686 239.749C144.944 239.902 145.159 240.134 145.329 240.443C145.5 240.753 145.585 241.168 145.585 241.688V246H144.579V245.114H144.528C144.46 245.256 144.346 245.408 144.187 245.57C144.028 245.732 143.816 245.869 143.552 245.983C143.288 246.097 142.966 246.153 142.585 246.153ZM142.738 245.25C143.136 245.25 143.471 245.172 143.744 245.016C144.02 244.859 144.227 244.658 144.366 244.411C144.508 244.163 144.579 243.903 144.579 243.631V242.71C144.537 242.761 144.443 242.808 144.298 242.851C144.156 242.891 143.991 242.926 143.804 242.957C143.619 242.986 143.439 243.011 143.262 243.034C143.089 243.054 142.949 243.071 142.841 243.085C142.579 243.119 142.335 243.175 142.108 243.251C141.883 243.325 141.701 243.437 141.562 243.588C141.426 243.736 141.358 243.937 141.358 244.193C141.358 244.543 141.487 244.807 141.745 244.986C142.007 245.162 142.338 245.25 142.738 245.25ZM142.772 238.568L143.812 236.591H144.988L143.659 238.568H142.772ZM155.432 240.92L154.528 241.176C154.472 241.026 154.388 240.879 154.277 240.737C154.169 240.592 154.021 240.473 153.834 240.379C153.646 240.286 153.406 240.239 153.114 240.239C152.713 240.239 152.379 240.331 152.112 240.516C151.848 240.697 151.716 240.929 151.716 241.21C151.716 241.46 151.807 241.658 151.989 241.803C152.17 241.947 152.455 242.068 152.841 242.165L153.812 242.403C154.398 242.545 154.834 242.763 155.121 243.055C155.408 243.345 155.551 243.719 155.551 244.176C155.551 244.551 155.443 244.886 155.227 245.182C155.014 245.477 154.716 245.71 154.332 245.881C153.949 246.051 153.503 246.136 152.994 246.136C152.327 246.136 151.774 245.991 151.337 245.702C150.899 245.412 150.622 244.989 150.506 244.432L151.46 244.193C151.551 244.545 151.723 244.81 151.976 244.986C152.232 245.162 152.565 245.25 152.977 245.25C153.446 245.25 153.818 245.151 154.094 244.952C154.372 244.75 154.511 244.509 154.511 244.227C154.511 244 154.432 243.81 154.273 243.656C154.114 243.5 153.869 243.384 153.54 243.307L152.449 243.051C151.849 242.909 151.409 242.689 151.128 242.391C150.849 242.089 150.71 241.713 150.71 241.261C150.71 240.892 150.814 240.565 151.021 240.281C151.232 239.997 151.517 239.774 151.878 239.612C152.241 239.45 152.653 239.369 153.114 239.369C153.761 239.369 154.27 239.511 154.639 239.795C155.011 240.08 155.276 240.455 155.432 240.92ZM157.065 246V239.455H158.071V246H157.065ZM157.576 238.364C157.38 238.364 157.211 238.297 157.069 238.163C156.93 238.03 156.86 237.869 156.86 237.682C156.86 237.494 156.93 237.334 157.069 237.2C157.211 237.067 157.38 237 157.576 237C157.772 237 157.94 237.067 158.079 237.2C158.221 237.334 158.292 237.494 158.292 237.682C158.292 237.869 158.221 238.03 158.079 238.163C157.94 238.297 157.772 238.364 157.576 238.364ZM162.657 246.136C162.026 246.136 161.482 245.997 161.025 245.719C160.57 245.438 160.219 245.045 159.972 244.543C159.728 244.037 159.606 243.449 159.606 242.778C159.606 242.108 159.728 241.517 159.972 241.006C160.219 240.491 160.563 240.091 161.004 239.804C161.447 239.514 161.964 239.369 162.555 239.369C162.896 239.369 163.232 239.426 163.565 239.54C163.897 239.653 164.2 239.838 164.472 240.094C164.745 240.347 164.962 240.682 165.124 241.099C165.286 241.517 165.367 242.031 165.367 242.642V243.068H160.322V242.199H164.344C164.344 241.83 164.271 241.5 164.123 241.21C163.978 240.92 163.771 240.692 163.501 240.524C163.234 240.357 162.918 240.273 162.555 240.273C162.154 240.273 161.808 240.372 161.515 240.571C161.225 240.767 161.002 241.023 160.846 241.338C160.69 241.653 160.612 241.991 160.612 242.352V242.932C160.612 243.426 160.697 243.845 160.867 244.189C161.04 244.53 161.281 244.79 161.587 244.969C161.894 245.145 162.251 245.233 162.657 245.233C162.921 245.233 163.16 245.196 163.373 245.122C163.589 245.045 163.775 244.932 163.931 244.781C164.087 244.628 164.208 244.437 164.293 244.21L165.265 244.483C165.163 244.812 164.991 245.102 164.749 245.352C164.508 245.599 164.21 245.793 163.854 245.932C163.499 246.068 163.1 246.136 162.657 246.136ZM167.903 242.062V246H166.897V239.455H167.869V240.477H167.954C168.107 240.145 168.34 239.878 168.653 239.676C168.965 239.472 169.369 239.369 169.863 239.369C170.306 239.369 170.694 239.46 171.026 239.642C171.359 239.821 171.617 240.094 171.802 240.46C171.987 240.824 172.079 241.284 172.079 241.841V246H171.073V241.909C171.073 241.395 170.94 240.994 170.673 240.707C170.406 240.418 170.039 240.273 169.573 240.273C169.252 240.273 168.965 240.342 168.712 240.482C168.462 240.621 168.265 240.824 168.12 241.091C167.975 241.358 167.903 241.682 167.903 242.062ZM176.388 246.136C175.843 246.136 175.361 245.999 174.944 245.723C174.526 245.445 174.199 245.053 173.963 244.547C173.728 244.038 173.61 243.438 173.61 242.744C173.61 242.057 173.728 241.46 173.963 240.955C174.199 240.449 174.527 240.058 174.948 239.783C175.368 239.507 175.854 239.369 176.405 239.369C176.831 239.369 177.168 239.44 177.415 239.582C177.665 239.722 177.855 239.881 177.986 240.06C178.12 240.236 178.223 240.381 178.297 240.494H178.382V237.273H179.388V246H178.417V244.994H178.297C178.223 245.114 178.118 245.264 177.982 245.446C177.846 245.625 177.651 245.786 177.398 245.928C177.145 246.067 176.809 246.136 176.388 246.136ZM176.525 245.233C176.928 245.233 177.269 245.128 177.547 244.918C177.826 244.705 178.037 244.411 178.182 244.036C178.327 243.658 178.4 243.222 178.4 242.727C178.4 242.239 178.328 241.811 178.186 241.445C178.044 241.075 177.834 240.788 177.556 240.584C177.277 240.376 176.934 240.273 176.525 240.273C176.098 240.273 175.743 240.382 175.459 240.601C175.178 240.817 174.966 241.111 174.824 241.483C174.685 241.852 174.615 242.267 174.615 242.727C174.615 243.193 174.686 243.616 174.828 243.997C174.973 244.375 175.186 244.676 175.468 244.901C175.752 245.122 176.104 245.233 176.525 245.233ZM184.029 246.136C183.438 246.136 182.919 245.996 182.473 245.714C182.03 245.433 181.684 245.04 181.434 244.534C181.186 244.028 181.063 243.437 181.063 242.761C181.063 242.08 181.186 241.484 181.434 240.976C181.684 240.467 182.03 240.072 182.473 239.791C182.919 239.51 183.438 239.369 184.029 239.369C184.62 239.369 185.137 239.51 185.58 239.791C186.026 240.072 186.373 240.467 186.62 240.976C186.87 241.484 186.995 242.08 186.995 242.761C186.995 243.437 186.87 244.028 186.62 244.534C186.373 245.04 186.026 245.433 185.58 245.714C185.137 245.996 184.62 246.136 184.029 246.136ZM184.029 245.233C184.478 245.233 184.847 245.118 185.137 244.888C185.426 244.658 185.641 244.355 185.78 243.98C185.919 243.605 185.989 243.199 185.989 242.761C185.989 242.324 185.919 241.916 185.78 241.538C185.641 241.161 185.426 240.855 185.137 240.622C184.847 240.389 184.478 240.273 184.029 240.273C183.58 240.273 183.211 240.389 182.921 240.622C182.631 240.855 182.417 241.161 182.277 241.538C182.138 241.916 182.069 242.324 182.069 242.761C182.069 243.199 182.138 243.605 182.277 243.98C182.417 244.355 182.631 244.658 182.921 244.888C183.211 245.118 183.58 245.233 184.029 245.233ZM132.455 262.136C131.841 262.136 131.313 261.991 130.869 261.702C130.426 261.412 130.085 261.013 129.847 260.504C129.608 259.996 129.489 259.415 129.489 258.761C129.489 258.097 129.611 257.51 129.855 257.001C130.102 256.49 130.446 256.091 130.886 255.804C131.33 255.514 131.847 255.369 132.438 255.369C132.898 255.369 133.312 255.455 133.682 255.625C134.051 255.795 134.354 256.034 134.589 256.341C134.825 256.648 134.972 257.006 135.028 257.415H134.023C133.946 257.116 133.776 256.852 133.511 256.622C133.25 256.389 132.898 256.273 132.455 256.273C132.063 256.273 131.719 256.375 131.423 256.58C131.131 256.781 130.902 257.067 130.737 257.436C130.575 257.803 130.494 258.233 130.494 258.727C130.494 259.233 130.574 259.673 130.733 260.048C130.895 260.423 131.122 260.714 131.415 260.922C131.71 261.129 132.057 261.233 132.455 261.233C132.716 261.233 132.953 261.188 133.166 261.097C133.379 261.006 133.56 260.875 133.707 260.705C133.855 260.534 133.96 260.33 134.023 260.091H135.028C134.972 260.477 134.831 260.825 134.607 261.135C134.385 261.442 134.091 261.686 133.724 261.868C133.361 262.047 132.938 262.136 132.455 262.136ZM139.158 262.136C138.567 262.136 138.048 261.996 137.602 261.714C137.159 261.433 136.812 261.04 136.562 260.534C136.315 260.028 136.192 259.437 136.192 258.761C136.192 258.08 136.315 257.484 136.562 256.976C136.812 256.467 137.159 256.072 137.602 255.791C138.048 255.51 138.567 255.369 139.158 255.369C139.749 255.369 140.266 255.51 140.709 255.791C141.155 256.072 141.501 256.467 141.749 256.976C141.999 257.484 142.124 258.08 142.124 258.761C142.124 259.437 141.999 260.028 141.749 260.534C141.501 261.04 141.155 261.433 140.709 261.714C140.266 261.996 139.749 262.136 139.158 262.136ZM139.158 261.233C139.607 261.233 139.976 261.118 140.266 260.888C140.555 260.658 140.77 260.355 140.909 259.98C141.048 259.605 141.118 259.199 141.118 258.761C141.118 258.324 141.048 257.916 140.909 257.538C140.77 257.161 140.555 256.855 140.266 256.622C139.976 256.389 139.607 256.273 139.158 256.273C138.709 256.273 138.339 256.389 138.05 256.622C137.76 256.855 137.545 257.161 137.406 257.538C137.267 257.916 137.197 258.324 137.197 258.761C137.197 259.199 137.267 259.605 137.406 259.98C137.545 260.355 137.76 260.658 138.05 260.888C138.339 261.118 138.709 261.233 139.158 261.233ZM144.664 258.062V262H143.659V255.455H144.63V256.477H144.716C144.869 256.145 145.102 255.878 145.414 255.676C145.727 255.472 146.13 255.369 146.625 255.369C147.068 255.369 147.456 255.46 147.788 255.642C148.12 255.821 148.379 256.094 148.564 256.46C148.748 256.824 148.841 257.284 148.841 257.841V262H147.835V257.909C147.835 257.395 147.701 256.994 147.434 256.707C147.167 256.418 146.801 256.273 146.335 256.273C146.014 256.273 145.727 256.342 145.474 256.482C145.224 256.621 145.027 256.824 144.882 257.091C144.737 257.358 144.664 257.682 144.664 258.062ZM155.315 256.92L154.411 257.176C154.354 257.026 154.271 256.879 154.16 256.737C154.052 256.592 153.904 256.473 153.717 256.379C153.529 256.286 153.289 256.239 152.996 256.239C152.596 256.239 152.262 256.331 151.995 256.516C151.731 256.697 151.599 256.929 151.599 257.21C151.599 257.46 151.69 257.658 151.871 257.803C152.053 257.947 152.337 258.068 152.724 258.165L153.695 258.403C154.281 258.545 154.717 258.763 155.004 259.055C155.29 259.345 155.434 259.719 155.434 260.176C155.434 260.551 155.326 260.886 155.11 261.182C154.897 261.477 154.599 261.71 154.215 261.881C153.832 262.051 153.386 262.136 152.877 262.136C152.21 262.136 151.657 261.991 151.219 261.702C150.782 261.412 150.505 260.989 150.388 260.432L151.343 260.193C151.434 260.545 151.606 260.81 151.859 260.986C152.114 261.162 152.448 261.25 152.86 261.25C153.329 261.25 153.701 261.151 153.977 260.952C154.255 260.75 154.394 260.509 154.394 260.227C154.394 260 154.315 259.81 154.156 259.656C153.996 259.5 153.752 259.384 153.423 259.307L152.332 259.051C151.732 258.909 151.292 258.689 151.011 258.391C150.732 258.089 150.593 257.713 150.593 257.261C150.593 256.892 150.697 256.565 150.904 256.281C151.114 255.997 151.4 255.774 151.761 255.612C152.124 255.45 152.536 255.369 152.996 255.369C153.644 255.369 154.153 255.511 154.522 255.795C154.894 256.08 155.158 256.455 155.315 256.92ZM161.073 259.324V255.455H162.078V262H161.073V260.892H161.005C160.851 261.224 160.613 261.507 160.289 261.74C159.965 261.97 159.556 262.085 159.061 262.085C158.652 262.085 158.289 261.996 157.971 261.817C157.652 261.635 157.402 261.362 157.221 260.999C157.039 260.632 156.948 260.17 156.948 259.614V255.455H157.953V259.545C157.953 260.023 158.087 260.403 158.354 260.688C158.624 260.972 158.968 261.114 159.385 261.114C159.635 261.114 159.89 261.05 160.148 260.922C160.409 260.794 160.628 260.598 160.804 260.334C160.983 260.07 161.073 259.733 161.073 259.324ZM163.92 262V255.455H164.892V256.477H164.977C165.114 256.128 165.334 255.857 165.638 255.663C165.942 255.467 166.307 255.369 166.733 255.369C167.165 255.369 167.524 255.467 167.811 255.663C168.101 255.857 168.327 256.128 168.489 256.477H168.557C168.724 256.139 168.976 255.871 169.311 255.672C169.646 255.47 170.048 255.369 170.517 255.369C171.102 255.369 171.581 255.553 171.953 255.919C172.325 256.283 172.511 256.849 172.511 257.619V262H171.506V257.619C171.506 257.136 171.374 256.791 171.109 256.584C170.845 256.376 170.534 256.273 170.176 256.273C169.716 256.273 169.359 256.412 169.107 256.69C168.854 256.966 168.727 257.315 168.727 257.739V262H167.705V257.517C167.705 257.145 167.584 256.845 167.342 256.618C167.101 256.388 166.79 256.273 166.409 256.273C166.148 256.273 165.903 256.342 165.676 256.482C165.452 256.621 165.27 256.814 165.131 257.061C164.994 257.305 164.926 257.588 164.926 257.909V262H163.92ZM174.35 262V255.455H175.356V262H174.35ZM174.862 254.364C174.665 254.364 174.496 254.297 174.354 254.163C174.215 254.03 174.146 253.869 174.146 253.682C174.146 253.494 174.215 253.334 174.354 253.2C174.496 253.067 174.665 253 174.862 253C175.058 253 175.225 253.067 175.364 253.2C175.506 253.334 175.577 253.494 175.577 253.682C175.577 253.869 175.506 254.03 175.364 254.163C175.225 254.297 175.058 254.364 174.862 254.364ZM179.669 262.136C179.124 262.136 178.642 261.999 178.225 261.723C177.807 261.445 177.48 261.053 177.245 260.547C177.009 260.038 176.891 259.438 176.891 258.744C176.891 258.057 177.009 257.46 177.245 256.955C177.48 256.449 177.809 256.058 178.229 255.783C178.65 255.507 179.135 255.369 179.686 255.369C180.113 255.369 180.449 255.44 180.696 255.582C180.946 255.722 181.137 255.881 181.267 256.06C181.401 256.236 181.505 256.381 181.578 256.494H181.664V253.273H182.669V262H181.698V260.994H181.578C181.505 261.114 181.4 261.264 181.263 261.446C181.127 261.625 180.932 261.786 180.679 261.928C180.426 262.067 180.09 262.136 179.669 262.136ZM179.806 261.233C180.209 261.233 180.55 261.128 180.828 260.918C181.107 260.705 181.319 260.411 181.463 260.036C181.608 259.658 181.681 259.222 181.681 258.727C181.681 258.239 181.61 257.811 181.468 257.445C181.326 257.075 181.115 256.788 180.837 256.584C180.559 256.376 180.215 256.273 179.806 256.273C179.38 256.273 179.025 256.382 178.74 256.601C178.459 256.817 178.248 257.111 178.105 257.483C177.966 257.852 177.897 258.267 177.897 258.727C177.897 259.193 177.968 259.616 178.11 259.997C178.255 260.375 178.468 260.676 178.749 260.901C179.033 261.122 179.385 261.233 179.806 261.233ZM187.31 262.136C186.719 262.136 186.201 261.996 185.755 261.714C185.311 261.433 184.965 261.04 184.715 260.534C184.468 260.028 184.344 259.437 184.344 258.761C184.344 258.08 184.468 257.484 184.715 256.976C184.965 256.467 185.311 256.072 185.755 255.791C186.201 255.51 186.719 255.369 187.31 255.369C187.901 255.369 188.418 255.51 188.861 255.791C189.307 256.072 189.654 256.467 189.901 256.976C190.151 257.484 190.276 258.08 190.276 258.761C190.276 259.437 190.151 260.028 189.901 260.534C189.654 261.04 189.307 261.433 188.861 261.714C188.418 261.996 187.901 262.136 187.31 262.136ZM187.31 261.233C187.759 261.233 188.128 261.118 188.418 260.888C188.708 260.658 188.922 260.355 189.061 259.98C189.201 259.605 189.27 259.199 189.27 258.761C189.27 258.324 189.201 257.916 189.061 257.538C188.922 257.161 188.708 256.855 188.418 256.622C188.128 256.389 187.759 256.273 187.31 256.273C186.861 256.273 186.492 256.389 186.202 256.622C185.912 256.855 185.698 257.161 185.559 257.538C185.419 257.916 185.35 258.324 185.35 258.761C185.35 259.199 185.419 259.605 185.559 259.98C185.698 260.355 185.912 260.658 186.202 260.888C186.492 261.118 186.861 261.233 187.31 261.233ZM198.936 257.79V258.727H195.118V257.79H198.936ZM207.13 262.148C206.447 262.148 205.858 261.997 205.362 261.695C204.87 261.391 204.49 260.966 204.222 260.421C203.957 259.873 203.825 259.236 203.825 258.51C203.825 257.784 203.957 257.143 204.222 256.589C204.49 256.032 204.862 255.598 205.339 255.288C205.819 254.974 206.379 254.817 207.02 254.817C207.389 254.817 207.754 254.878 208.114 255.001C208.474 255.125 208.801 255.325 209.097 255.602C209.392 255.875 209.628 256.239 209.803 256.691C209.979 257.143 210.066 257.701 210.066 258.362V258.824H204.6V257.882H208.958C208.958 257.482 208.878 257.125 208.718 256.811C208.561 256.497 208.337 256.249 208.044 256.068C207.755 255.886 207.413 255.795 207.02 255.795C206.586 255.795 206.21 255.903 205.893 256.119C205.579 256.331 205.338 256.608 205.168 256.95C204.999 257.291 204.914 257.657 204.914 258.048V258.676C204.914 259.212 205.007 259.666 205.191 260.038C205.379 260.407 205.639 260.689 205.972 260.883C206.304 261.074 206.69 261.169 207.13 261.169C207.417 261.169 207.675 261.129 207.906 261.049C208.14 260.966 208.341 260.843 208.511 260.68C208.68 260.513 208.811 260.307 208.903 260.061L209.956 260.357C209.845 260.714 209.659 261.027 209.397 261.298C209.135 261.566 208.812 261.775 208.428 261.926C208.043 262.074 207.61 262.148 207.13 262.148ZM212.813 252.545V262H211.724V252.545H212.813Z" fill="#1B202D"/>
<path d="M118.802 280.659V270.909H120.741V272.1H120.829C120.915 271.909 121.04 271.715 121.203 271.518C121.369 271.318 121.585 271.152 121.849 271.02C122.117 270.884 122.449 270.817 122.846 270.817C123.363 270.817 123.84 270.952 124.278 271.223C124.715 271.491 125.064 271.895 125.325 272.437C125.587 272.976 125.718 273.651 125.718 274.464C125.718 275.255 125.59 275.923 125.335 276.467C125.082 277.009 124.738 277.42 124.301 277.7C123.867 277.977 123.38 278.115 122.842 278.115C122.46 278.115 122.135 278.052 121.868 277.926C121.603 277.8 121.386 277.641 121.217 277.451C121.048 277.257 120.918 277.061 120.829 276.864H120.769V280.659H118.802ZM120.727 274.455C120.727 274.876 120.786 275.244 120.903 275.558C121.02 275.872 121.189 276.116 121.411 276.292C121.632 276.464 121.902 276.55 122.219 276.55C122.539 276.55 122.809 276.463 123.031 276.287C123.253 276.109 123.42 275.863 123.534 275.549C123.651 275.232 123.71 274.867 123.71 274.455C123.71 274.045 123.653 273.685 123.539 273.374C123.425 273.063 123.257 272.82 123.036 272.645C122.814 272.469 122.542 272.382 122.219 272.382C121.898 272.382 121.628 272.466 121.406 272.636C121.188 272.805 121.02 273.045 120.903 273.356C120.786 273.667 120.727 274.033 120.727 274.455ZM127.029 278V270.909H128.936V272.146H129.009C129.139 271.706 129.356 271.374 129.66 271.149C129.965 270.921 130.316 270.808 130.713 270.808C130.811 270.808 130.918 270.814 131.031 270.826C131.145 270.838 131.245 270.855 131.331 270.877V272.622C131.239 272.594 131.111 272.569 130.948 272.548C130.785 272.526 130.636 272.516 130.501 272.516C130.211 272.516 129.953 272.579 129.725 272.705C129.5 272.828 129.322 273 129.189 273.222C129.06 273.444 128.996 273.699 128.996 273.988V278H127.029ZM135.222 278.138C134.505 278.138 133.885 277.986 133.362 277.681C132.841 277.374 132.44 276.946 132.157 276.398C131.874 275.847 131.732 275.209 131.732 274.482C131.732 273.75 131.874 273.11 132.157 272.562C132.44 272.011 132.841 271.583 133.362 271.278C133.885 270.971 134.505 270.817 135.222 270.817C135.939 270.817 136.558 270.971 137.078 271.278C137.601 271.583 138.004 272.011 138.287 272.562C138.571 273.11 138.712 273.75 138.712 274.482C138.712 275.209 138.571 275.847 138.287 276.398C138.004 276.946 137.601 277.374 137.078 277.681C136.558 277.986 135.939 278.138 135.222 278.138ZM135.231 276.615C135.557 276.615 135.83 276.523 136.048 276.338C136.267 276.15 136.432 275.895 136.542 275.572C136.656 275.249 136.713 274.881 136.713 274.468C136.713 274.056 136.656 273.688 136.542 273.365C136.432 273.042 136.267 272.786 136.048 272.599C135.83 272.411 135.557 272.317 135.231 272.317C134.902 272.317 134.625 272.411 134.4 272.599C134.179 272.786 134.011 273.042 133.897 273.365C133.786 273.688 133.731 274.056 133.731 274.468C133.731 274.881 133.786 275.249 133.897 275.572C134.011 275.895 134.179 276.15 134.4 276.338C134.625 276.523 134.902 276.615 135.231 276.615ZM142.604 278.115C142.065 278.115 141.577 277.977 141.14 277.7C140.706 277.42 140.362 277.009 140.106 276.467C139.854 275.923 139.728 275.255 139.728 274.464C139.728 273.651 139.859 272.976 140.12 272.437C140.382 271.895 140.729 271.491 141.163 271.223C141.6 270.952 142.079 270.817 142.599 270.817C142.996 270.817 143.327 270.884 143.592 271.02C143.859 271.152 144.075 271.318 144.238 271.518C144.404 271.715 144.53 271.909 144.617 272.1H144.677V268.545H146.639V278H144.7V276.864H144.617C144.524 277.061 144.393 277.257 144.224 277.451C144.058 277.641 143.841 277.8 143.573 277.926C143.309 278.052 142.985 278.115 142.604 278.115ZM143.227 276.55C143.544 276.55 143.812 276.464 144.03 276.292C144.252 276.116 144.421 275.872 144.538 275.558C144.658 275.244 144.718 274.876 144.718 274.455C144.718 274.033 144.66 273.667 144.543 273.356C144.426 273.045 144.256 272.805 144.035 272.636C143.813 272.466 143.544 272.382 143.227 272.382C142.904 272.382 142.631 272.469 142.41 272.645C142.188 272.82 142.021 273.063 141.907 273.374C141.793 273.685 141.736 274.045 141.736 274.455C141.736 274.867 141.793 275.232 141.907 275.549C142.024 275.863 142.191 276.109 142.41 276.287C142.631 276.463 142.904 276.55 143.227 276.55ZM152.803 274.981V270.909H154.769V278H152.881V276.712H152.807C152.647 277.127 152.381 277.461 152.009 277.714C151.639 277.966 151.189 278.092 150.656 278.092C150.182 278.092 149.765 277.985 149.405 277.769C149.045 277.554 148.763 277.248 148.56 276.85C148.36 276.453 148.259 275.978 148.256 275.424V270.909H150.222V275.073C150.225 275.492 150.338 275.823 150.559 276.066C150.781 276.309 151.078 276.43 151.45 276.43C151.687 276.43 151.909 276.377 152.115 276.269C152.321 276.158 152.487 275.995 152.613 275.779C152.743 275.564 152.806 275.298 152.803 274.981ZM159.546 278.138C158.82 278.138 158.195 277.985 157.672 277.677C157.152 277.366 156.752 276.935 156.472 276.384C156.195 275.833 156.056 275.199 156.056 274.482C156.056 273.756 156.196 273.119 156.476 272.571C156.759 272.02 157.161 271.591 157.681 271.283C158.201 270.972 158.82 270.817 159.537 270.817C160.156 270.817 160.697 270.929 161.162 271.154C161.627 271.378 161.995 271.694 162.265 272.1C162.536 272.506 162.685 272.983 162.713 273.531H160.857C160.805 273.177 160.667 272.893 160.442 272.677C160.22 272.459 159.929 272.349 159.569 272.349C159.265 272.349 158.998 272.433 158.771 272.599C158.546 272.762 158.371 273 158.244 273.314C158.118 273.628 158.055 274.008 158.055 274.455C158.055 274.907 158.117 275.292 158.24 275.609C158.366 275.926 158.543 276.167 158.771 276.333C158.998 276.5 159.265 276.583 159.569 276.583C159.794 276.583 159.996 276.537 160.174 276.444C160.356 276.352 160.505 276.218 160.622 276.043C160.742 275.864 160.82 275.65 160.857 275.401H162.713C162.682 275.943 162.535 276.42 162.27 276.832C162.008 277.241 161.647 277.561 161.185 277.792C160.723 278.023 160.177 278.138 159.546 278.138ZM167.744 270.909V272.386H163.474V270.909H167.744ZM164.443 269.21H166.41V275.821C166.41 276.003 166.438 276.144 166.493 276.246C166.548 276.344 166.625 276.413 166.724 276.453C166.825 276.493 166.942 276.513 167.075 276.513C167.167 276.513 167.259 276.506 167.352 276.49C167.444 276.472 167.515 276.458 167.564 276.449L167.873 277.912C167.775 277.943 167.636 277.978 167.458 278.018C167.279 278.062 167.062 278.088 166.807 278.097C166.333 278.115 165.917 278.052 165.56 277.908C165.206 277.763 164.931 277.538 164.734 277.234C164.537 276.929 164.44 276.544 164.443 276.08V269.21ZM172.153 278.138C171.436 278.138 170.815 277.986 170.292 277.681C169.772 277.374 169.371 276.946 169.087 276.398C168.804 275.847 168.663 275.209 168.663 274.482C168.663 273.75 168.804 273.11 169.087 272.562C169.371 272.011 169.772 271.583 170.292 271.278C170.815 270.971 171.436 270.817 172.153 270.817C172.87 270.817 173.488 270.971 174.009 271.278C174.532 271.583 174.935 272.011 175.218 272.562C175.501 273.11 175.643 273.75 175.643 274.482C175.643 275.209 175.501 275.847 175.218 276.398C174.935 276.946 174.532 277.374 174.009 277.681C173.488 277.986 172.87 278.138 172.153 278.138ZM172.162 276.615C172.488 276.615 172.761 276.523 172.979 276.338C173.198 276.15 173.362 275.895 173.473 275.572C173.587 275.249 173.644 274.881 173.644 274.468C173.644 274.056 173.587 273.688 173.473 273.365C173.362 273.042 173.198 272.786 172.979 272.599C172.761 272.411 172.488 272.317 172.162 272.317C171.833 272.317 171.556 272.411 171.331 272.599C171.109 272.786 170.942 273.042 170.828 273.365C170.717 273.688 170.662 274.056 170.662 274.468C170.662 274.881 170.717 275.249 170.828 275.572C170.942 275.895 171.109 276.15 171.331 276.338C171.556 276.523 171.833 276.615 172.162 276.615ZM115.952 294.148C115.29 294.148 114.718 293.994 114.234 293.686C113.751 293.375 113.377 292.946 113.113 292.398C112.851 291.847 112.72 291.213 112.72 290.496C112.72 289.782 112.851 289.148 113.113 288.594C113.377 288.037 113.742 287.602 114.207 287.288C114.674 286.971 115.215 286.812 115.827 286.812C116.212 286.812 116.583 286.883 116.94 287.025C117.297 287.163 117.617 287.377 117.9 287.666C118.186 287.952 118.412 288.314 118.578 288.751C118.745 289.185 118.828 289.699 118.828 290.293V290.699H113.288V289.974H117.988C117.988 289.519 117.895 289.11 117.711 288.746C117.529 288.38 117.275 288.091 116.949 287.879C116.626 287.666 116.252 287.56 115.827 287.56C115.378 287.56 114.982 287.68 114.641 287.92C114.299 288.16 114.031 288.477 113.837 288.871C113.647 289.265 113.55 289.696 113.547 290.164V290.598C113.547 291.161 113.643 291.653 113.837 292.075C114.034 292.493 114.313 292.818 114.673 293.049C115.033 293.28 115.459 293.395 115.952 293.395C116.287 293.395 116.581 293.343 116.833 293.238C117.089 293.134 117.303 292.994 117.475 292.818C117.651 292.64 117.783 292.444 117.872 292.232L118.652 292.486C118.545 292.784 118.368 293.06 118.121 293.312C117.878 293.565 117.574 293.768 117.207 293.922C116.844 294.072 116.426 294.148 115.952 294.148ZM120.639 294V286.909H121.437V287.999H121.497C121.639 287.642 121.885 287.354 122.236 287.135C122.59 286.914 122.99 286.803 123.436 286.803C123.504 286.803 123.579 286.804 123.662 286.808C123.745 286.811 123.815 286.814 123.87 286.817V287.652C123.833 287.646 123.769 287.637 123.676 287.625C123.584 287.612 123.484 287.606 123.376 287.606C123.007 287.606 122.678 287.685 122.388 287.842C122.102 287.996 121.876 288.209 121.71 288.483C121.543 288.757 121.46 289.07 121.46 289.42V294H120.639ZM127.923 294.148C127.262 294.148 126.689 293.994 126.206 293.686C125.723 293.375 125.349 292.946 125.084 292.398C124.823 291.847 124.692 291.213 124.692 290.496C124.692 289.782 124.823 289.148 125.084 288.594C125.349 288.037 125.714 287.602 126.178 287.288C126.646 286.971 127.186 286.812 127.799 286.812C128.183 286.812 128.554 286.883 128.911 287.025C129.268 287.163 129.588 287.377 129.872 287.666C130.158 287.952 130.384 288.314 130.55 288.751C130.716 289.185 130.799 289.699 130.799 290.293V290.699H125.26V289.974H129.959C129.959 289.519 129.867 289.11 129.682 288.746C129.501 288.38 129.247 288.091 128.921 287.879C128.597 287.666 128.223 287.56 127.799 287.56C127.349 287.56 126.954 287.68 126.612 287.92C126.271 288.16 126.003 288.477 125.809 288.871C125.618 289.265 125.521 289.696 125.518 290.164V290.598C125.518 291.161 125.615 291.653 125.809 292.075C126.006 292.493 126.285 292.818 126.645 293.049C127.005 293.28 127.431 293.395 127.923 293.395C128.259 293.395 128.553 293.343 128.805 293.238C129.061 293.134 129.274 292.994 129.447 292.818C129.622 292.64 129.755 292.444 129.844 292.232L130.624 292.486C130.516 292.784 130.339 293.06 130.093 293.312C129.85 293.565 129.545 293.768 129.179 293.922C128.816 294.072 128.397 294.148 127.923 294.148ZM137.374 288.465L136.622 288.677C136.548 288.465 136.443 288.272 136.308 288.1C136.173 287.928 135.996 287.791 135.777 287.689C135.562 287.588 135.294 287.537 134.974 287.537C134.494 287.537 134.1 287.651 133.792 287.879C133.484 288.106 133.33 288.4 133.33 288.76C133.33 289.065 133.435 289.313 133.644 289.504C133.857 289.691 134.183 289.841 134.623 289.951L135.694 290.214C136.288 290.359 136.733 290.588 137.028 290.902C137.327 291.216 137.476 291.61 137.476 292.084C137.476 292.484 137.365 292.84 137.144 293.151C136.922 293.461 136.613 293.706 136.216 293.885C135.822 294.06 135.365 294.148 134.845 294.148C134.152 294.148 133.581 293.992 133.132 293.681C132.683 293.368 132.395 292.915 132.269 292.324L133.058 292.13C133.16 292.552 133.358 292.871 133.654 293.086C133.952 293.301 134.345 293.409 134.831 293.409C135.376 293.409 135.811 293.288 136.137 293.044C136.463 292.798 136.627 292.49 136.627 292.121C136.627 291.835 136.531 291.595 136.34 291.401C136.15 291.204 135.86 291.059 135.472 290.967L134.314 290.69C133.698 290.542 133.243 290.308 132.947 289.988C132.652 289.668 132.504 289.271 132.504 288.797C132.504 288.406 132.61 288.063 132.823 287.768C133.035 287.469 133.327 287.235 133.7 287.066C134.072 286.897 134.497 286.812 134.974 286.812C135.623 286.812 136.142 286.96 136.53 287.255C136.921 287.548 137.202 287.951 137.374 288.465ZM141.661 286.194V284.545H149.426V286.194H146.531V294H144.555V286.194H141.661ZM156.544 284.545H158.543V290.685C158.543 291.375 158.379 291.978 158.049 292.495C157.723 293.012 157.266 293.415 156.678 293.705C156.09 293.991 155.406 294.134 154.624 294.134C153.839 294.134 153.153 293.991 152.565 293.705C151.977 293.415 151.52 293.012 151.194 292.495C150.868 291.978 150.705 291.375 150.705 290.685V284.545H152.703V290.515C152.703 290.875 152.782 291.195 152.939 291.475C153.099 291.755 153.324 291.975 153.613 292.135C153.902 292.295 154.239 292.375 154.624 292.375C155.012 292.375 155.349 292.295 155.635 292.135C155.924 291.975 156.147 291.755 156.304 291.475C156.464 291.195 156.544 290.875 156.544 290.515V284.545ZM153.918 283.631L154.896 281.531H156.715L155.307 283.631H153.918ZM160.856 294.12C160.551 294.12 160.29 294.012 160.071 293.797C159.856 293.578 159.748 293.317 159.748 293.012C159.748 292.71 159.856 292.452 160.071 292.237C160.29 292.021 160.551 291.913 160.856 291.913C161.152 291.913 161.41 292.021 161.632 292.237C161.853 292.452 161.964 292.71 161.964 293.012C161.964 293.215 161.912 293.401 161.807 293.571C161.706 293.737 161.572 293.871 161.406 293.972C161.239 294.071 161.056 294.12 160.856 294.12Z" fill="#C84130"/>
<path d="M44.3959 117.025C44.3959 120.797 46.3644 122.853 51.4546 122.853C54.056 122.853 56.0878 122.245 57.3814 121.143C58.4782 119.829 58.9141 118.014 58.9774 115.634L61.178 115.81C61.0093 121.638 57.7119 124.59 51.4827 124.59C44.7896 124.59 42.1531 121.532 42.1531 117.301C42.1531 108.415 51.1101 112.321 51.1101 103.435C51.4406 103.471 51.778 103.471 52.1085 103.471C52.4389 103.471 52.8045 103.471 53.0717 103.435C53.0717 112.999 44.3748 108.874 44.3748 117.018L44.3959 117.025ZM53.4865 98.3993C53.4865 99.36 53.1842 99.925 52.1225 99.925C51.0609 99.925 50.7234 99.3529 50.7234 98.3993C50.7234 97.4458 51.0257 96.8737 52.1225 96.8737C53.2193 96.8737 53.4865 97.4458 53.4865 98.3993Z" fill="#1A202F"/>
<path d="M65.9447 113.296C65.9447 106.649 65.9799 103.132 65.9096 99.1128L62.4786 99.1481V97.5518H65.9096L65.8463 92.0777L68.1102 92.0071L68.0469 97.5518C70.2756 97.5518 73.2074 97.5871 75.7103 97.5518L75.647 99.1905L68.0539 99.1199C67.9907 103.139 67.9204 106.656 67.9204 113.197C67.9204 116.927 69.3546 118.106 71.5833 118.106C72.9191 118.106 74.0511 117.788 75.5838 117.181L75.5486 119.067C74.1495 119.526 72.7856 119.851 71.1826 119.851C67.6883 119.851 65.9518 118.106 65.9518 113.31L65.9447 113.296Z" fill="#1A202F"/>
<path d="M76.3361 108.422C76.3361 101.203 79.8022 96.9725 85.5321 96.9725C91.2621 96.9725 94.4892 100.85 94.6931 107.673L78.6351 108.493C78.6702 114.857 81.2013 118.268 85.5954 118.268C88.0632 118.268 90.095 117.202 91.3254 115.175C91.691 114.143 91.9581 113.218 92.1269 112.081H94.3556C93.3924 117.237 90.2286 119.9 85.5321 119.9C79.8022 119.9 76.3361 115.669 76.3361 108.415V108.422ZM85.4618 98.6112C83.0292 98.6112 80.9622 99.6425 79.6686 101.846C79.071 103.372 78.7335 105.117 78.6702 107.144L92.3237 106.289C91.8246 101.274 89.392 98.6112 85.4618 98.6112Z" fill="#1A202F"/>
<path d="M41 148.302V139.911H42.9686V135.715H44.9372V133.617H48.8673V135.715H46.8987V139.911H44.9301V146.204H46.8987V148.302H50.8288V150.4H42.9686V148.302H41ZM52.7974 131.512V133.61H48.8673V131.512H52.7974ZM52.7974 146.204V148.302H50.8288V146.204H52.7974ZM54.759 144.106V142.008H56.7275V137.813H58.6961V131.519H52.7974V129.422H62.6263V137.813H60.6577V144.106H58.6891V148.302H60.6577V150.4H54.759V146.204H52.7904V144.106H54.759ZM62.6263 146.204V148.302H60.6577V146.204H62.6263Z" fill="#1A202F"/>
<path d="M66.5563 146.204V137.813H68.5249V133.617H70.4935V131.519H74.4236V133.617H72.4551V137.813H70.4865V146.204H72.4551V148.302H76.3852V150.4H70.4865V148.302H68.5179V146.204H66.5493H66.5563ZM80.3153 129.414V131.512H82.2839V135.708H78.3538V131.512H74.4236V129.414H80.3223H80.3153ZM80.3153 146.204V148.302H76.3852V146.204H80.3153ZM82.2769 144.106V146.204H80.3083V144.106H82.2769Z" fill="#1A202F"/>
<path d="M88.1756 150.4V148.302H86.207V142.008H88.1756V135.715H90.1442V131.519H88.1756V129.422H94.0743V135.715H92.1057V142.008H90.1372V146.204H92.1057V148.302H94.0743V150.4H88.1756ZM86.207 133.61V131.512H88.1756V133.61H86.207ZM94.0743 148.302V146.204H96.0429V148.302H94.0743ZM96.0359 146.204V144.106H98.0044V146.204H96.0359ZM98.0044 144.106V142.008H99.973V139.911H101.942V135.715H103.91V129.422H107.84V135.715H105.872V142.008H103.903V148.302H105.872V150.4H99.973V144.106H98.0044ZM105.865 148.302V146.204H107.833V148.302H105.865Z" fill="#C84130"/>
<path d="M111.763 146.204V137.813H113.732V133.617H115.701V131.519H119.631V133.617H117.662V137.813H115.694V142.008H119.624V144.106H115.694V146.204H117.662V148.302H123.561V150.4H115.701V148.302H113.732V146.204H111.763ZM125.522 137.806V131.512H119.624V129.414H127.484V131.512H129.453V137.806H127.484V139.903H123.554V137.806H125.522ZM123.561 139.903V142.001H119.631V139.903H123.561ZM127.491 146.204V148.302H123.561V146.204H127.491ZM129.453 144.106V146.204H127.484V144.106H129.453Z" fill="#1A202F"/>
<path d="M135.351 144.106V137.813H137.32V131.519H135.351V129.421H141.25V133.617H143.219V135.715H141.25V139.911H139.281V144.106H137.313V150.4H133.383V144.106H135.351ZM135.351 131.512V133.61H133.383V131.512H135.351ZM145.18 131.512V133.61H143.212V131.512H145.18ZM149.11 129.414V131.512H151.079V135.708H147.149V131.512H145.18V129.414H149.11Z" fill="#1A202F"/>
<path d="M153.04 148.302V139.911H155.009V135.715H156.977V133.617H160.908V135.715H158.939V139.911H156.97V146.204H158.939V148.302H162.869V150.4H155.009V148.302H153.04ZM164.838 131.512V133.61H160.908V131.512H164.838ZM164.838 146.204V148.302H162.869V146.204H164.838ZM166.799 144.106V142.008H168.768V137.813H170.736V131.519H164.838V129.422H172.698V123.128H168.768V121.03H176.628V129.422H174.66V137.813H172.691V144.106H170.722V148.302H172.691V150.4H166.792V146.204H164.824V144.106H166.792H166.799ZM174.667 146.204V148.302H172.698V146.204H174.667Z" fill="#1A202F"/>
<path d="M178.597 148.302V139.911H180.565V135.715H182.534V133.617H186.464V135.715H184.495V139.911H182.527V146.204H184.495V148.302H188.426V150.4H180.565V148.302H178.597ZM190.387 131.512V133.61H186.457V131.512H190.387ZM190.387 146.204V148.302H188.418V146.204H190.387ZM192.356 144.106V142.008H194.324V137.813H196.293V131.519H190.394V129.422H200.223V137.813H198.254V144.106H196.286V148.302H198.254V150.4H192.356V146.204H190.387V144.106H192.356ZM200.216 146.204V148.302H198.247V146.204H200.216Z" fill="#1A202F"/>
<path d="M202.185 148.302V144.106H206.115V148.302H212.013V144.106H210.045V139.911H208.076V135.715H206.108V131.519H208.076V129.422H217.905V131.519H219.874V135.715H215.944V131.519H210.045V135.715H212.013V139.911H213.982V144.106H215.951V148.302H213.982V150.4H204.153V148.302H202.185Z" fill="#1A202F"/>
<path d="M226.961 146.479V150.675H223.03V146.479H226.961Z" fill="#1A202F"/>
<path d="M234.821 146.479V150.675H230.891V146.479H234.821Z" fill="#1A202F"/>
<path d="M242.688 146.479V150.675H238.758V146.479H242.688Z" fill="#1A202F"/>
<defs>
<clipPath id="clip0_14_381">
<rect width="321" height="407" fill="white"/>
</clipPath>
<clipPath id="clip1_14_381">
<rect width="109" height="89" fill="white" transform="translate(165 277)"/>
</clipPath>
</defs>
</svg>
